<?xml version="1.0" encoding="utf-8"?>
<!-- Generator: Adobe Illustrator 14.0.0, SVG Export Plug-In . SVG Version: 6.00 Build 43363)  -->
<!DOCTYPE svg PUBLIC "-//W3C//DTD SVG 1.1//EN" "http://www.w3.org/Graphics/SVG/1.1/DTD/svg11.dtd">
<svg version="1.1" xmlns="http://www.w3.org/2000/svg" xmlns:xlink="http://www.w3.org/1999/xlink" x="0px" y="0px" width="320px"
	 height="50px" viewBox="0 0 320 50" enable-background="new 0 0 320 50" xml:space="preserve">
<g id="圖層_2">
	<g>
		<g>
			<path opacity="0.2" fill="#9CD1F2" d="M111.283-121.553c-7.573-0.543-15.057-1.42-22.551-2.617
				c0.055-12.854,1.955-25.379,5.769-37.709c4.145,0.854,8.295,1.609,12.482,2.266C106.349-146.801,107.775-134.166,111.283-121.553
				z"/>
			<path opacity="0.2" fill="#9CD1F2" d="M192.307-105.4c-12.756,5.111-26.061,8.785-39.985,11.256
				c-9.961-10.23-17.98-21.305-24.072-33.402c9.874-0.125,19.571-0.869,29.234-2.301C167.55-120.086,179.115-112.004,192.307-105.4z
				"/>
			<path opacity="0.2" fill="#9CD1F2" d="M161.889-90.281c-8.144,1.746-16.355,3.057-24.726,3.977
				c-4.559-5.883-8.607-11.934-12.189-18.25c7.055-0.234,14.029-0.75,20.995-1.572C150.842-100.52,156.123-95.27,161.889-90.281z"/>
			<path opacity="0.2" fill="#9CD1F2" d="M132.243-111.016c-8.232,0.359-16.433,0.297-24.692-0.156
				c-3.732-12.639-5.457-25.328-5.141-38.219c4.977,0.75,9.95,1.355,14.963,1.811C120.23-134.824,125.161-122.693,132.243-111.016z"
				/>
			<path opacity="0.2" fill="#9CD1F2" d="M182.76-120.881c-15.29,4.973-31.165,7.885-47.657,9.063
				c-7.421-11.531-12.691-23.566-15.867-36.281c10.447,0.695,20.778,0.658,31.149-0.15C159.274-137.5,170.003-128.43,182.76-120.881
				z"/>
			<path opacity="0.2" fill="#9CD1F2" d="M301.636-47.988c-30.256,34.438-74.341,57.646-122.918,70.76
				c-15.1-9.25-28.898-19.674-41.312-31.416c41.088-5.898,79.894-19.203,111.554-41.486
				C266.509-47.293,284.033-46.598,301.636-47.988z"/>
			<path opacity="0.2" fill="#9CD1F2" d="M206.066-73.404c-18.947,8.877-39.352,14.82-60.829,18.342
				c-10.556-10.686-19.374-22.199-26.384-34.701c16.394-0.438,32.387-2.4,48.029-6.131
				C178.695-86.795,191.747-79.357,206.066-73.404z"/>
			<path opacity="0.2" fill="#9CD1F2" d="M221.352-38.824c-26.32,13.145-55.418,21.4-85.947,25.563
				c-19.73-19.881-34.449-42.406-42.77-67.088c19.106,1.229,38.003,0.527,56.662-2.383
				C168.811-63.197,193.467-48.537,221.352-38.824z"/>
			<path opacity="0.2" fill="#9CD1F2" d="M152.961-31.301c-13.987,2.592-28.13,4.203-42.511,4.926
				c-7.519-10.648-13.788-21.711-18.761-33.297c11.376,0.465,22.675,0.318,33.969-0.484
				C133.589-49.75,142.684-40.184,152.961-31.301z"/>
			<path opacity="0.2" fill="#9CD1F2" d="M202.58-26.055c-11.404,4.414-23.126,8.07-35.225,11.064
				c-9.666-6.891-18.587-14.344-26.801-22.449c10.493-1.57,20.768-3.652,30.895-6.301C181.244-37.07,191.597-31.213,202.58-26.055z"
				/>
			<path opacity="0.2" fill="#9CD1F2" d="M247.182,1.373c-13.827,7.514-28.38,13.896-43.617,19.283
				c-11.803-5.605-23.018-11.891-33.684-18.957c13.708-3.434,26.973-7.664,39.83-12.807C221.83-6.049,234.289-1.92,247.182,1.373z"
				/>
			<path opacity="0.2" fill="#9CD1F2" d="M283.735-117.805c-5.096,12.217-12.583,23.191-21.997,33.336
				c-21.451-0.51-42.17-4.771-61.703-12.834c10.056-4.795,19.332-10.328,27.854-16.854
				C246.985-111.576,265.71-112.721,283.735-117.805z"/>
			<path opacity="0.2" fill="#9CD1F2" d="M316.761-132.609c-0.169,22.631-8.93,43.717-22.791,62.551
				c-14.936,1.645-29.848,1.572-44.917-0.229c16.154-13.338,28.917-28.902,36.284-47.088
				C296.887-121.049,307.26-126.096,316.761-132.609z"/>
			<path opacity="0.2" fill="#9CD1F2" d="M206.666-90.658c-7.707,3.838-15.678,7.15-23.982,10.037
				c-12.813-7.869-24.037-16.979-33.708-27.539c6.57-0.959,13.02-2.18,19.419-3.699C179.92-103.123,192.637-96.123,206.666-90.658z"
				/>
			<path opacity="0.2" fill="#9CD1F2" d="M249.638-53.83c-10.657,7.709-22.142,14.371-34.429,20.193
				c-15.725-6.115-30.316-13.721-43.76-22.99c10.703-2.986,20.999-6.604,30.958-10.961C217.477-61.135,233.184-56.594,249.638-53.83
				z"/>
			<path opacity="0.2" fill="#9CD1F2" d="M221.418-114.092c-9.063,6.189-18.814,11.361-29.316,15.744
				c-19.462-9.949-35.496-23.092-47.512-39.334c7.035-0.564,13.946-1.449,20.826-2.688
				C181.258-127.418,200.187-118.602,221.418-114.092z"/>
			<path opacity="0.2" fill="#9CD1F2" d="M288.974-95.498c-10.596,18.004-25.857,33.15-44.189,45.9
				c-23.874-4.82-46.108-13.373-65.983-25.82c16.338-5.283,31.449-12.238,45.123-21.285
				C245.603-91.936,267.465-91.514,288.974-95.498z"/>
			<path opacity="0.2" fill="#9CD1F2" d="M249.774-96.908c-9.62,9.359-20.638,17.318-32.884,24.213
				c-16.914-5.715-32.367-13.498-46.262-23.533c10.604-2.932,20.712-6.602,30.401-11.162
				C216.621-101.371,232.852-97.904,249.774-96.908z"/>
			<path opacity="0.2" fill="#9CD1F2" d="M312.225-77.834c-14.781,25.826-37.864,46.855-65.55,63.33
				c-19.933-4.793-38.802-11.797-56.448-21.176c25.005-8.875,47.636-21.17,66.239-37.639
				C275.51-72.012,294.085-73.525,312.225-77.834z"/>
			<path opacity="0.2" fill="#9CD1F2" d="M334.475-143.104c4.755,26.936-2.622,53.338-16.889,76.914
				c-15.223,3.313-30.704,4.822-46.591,4.512c17.604-17.385,30.391-37.635,34.768-60.555
				C316.756-127.904,326.194-134.846,334.475-143.104z"/>
			<path opacity="0.2" fill="#9CD1F2" d="M271.644-103.41c-7.743,11.309-17.464,21.219-28.808,30.08
				c-4.214-0.701-8.372-1.512-12.529-2.441c11.446-7.775,21.502-16.547,29.94-26.684
				C264.068-102.623,267.871-102.941,271.644-103.41z"/>
			<path opacity="0.2" fill="#9CD1F2" d="M140.709-86.051c-18.508,2.092-37.105,2.064-55.817,0.172
				c-2.592-11.996-3.67-23.973-3.177-36.057c12.951,2.373,25.925,3.748,39.085,4.035C125.857-106.598,132.487-96.043,140.709-86.051
				z"/>
			<path opacity="0.2" fill="#9CD1F2" d="M145.808-95.064c-3.533,0.457-7.066,0.848-10.623,1.178
				c-8.13-11.334-14.27-23.24-18.406-35.9c2.392,0.131,4.792,0.221,7.183,0.268C129.28-117.172,136.551-105.754,145.808-95.064z"/>
			<path opacity="0.2" fill="#9CD1F2" d="M140.75-131.133c-1.693,0.102-2.542,0.145-4.252,0.215
				c-5.064-8.652-8.878-17.545-11.552-26.848c1.13,0.063,1.696,0.094,2.827,0.141C130.911-148.387,135.193-139.611,140.75-131.133z"
				/>
			<path opacity="0.2" fill="#9CD1F2" d="M233.979-107.098c-1.57,1.314-3.178,2.594-4.824,3.838
				c-10.533-1.943-20.571-4.822-30.377-8.725c1.963-0.912,2.926-1.381,4.814-2.342C213.468-110.904,223.506-108.518,233.979-107.098
				z"/>
			<path opacity="0.2" fill="#9CD1F2" d="M271.3-64.68c-2.392,2.373-4.875,4.684-7.445,6.926
				c-12.231-1.02-24.165-3.039-35.994-6.109c2.591-1.578,5.13-3.213,7.613-4.912C247.326-66.355,259.199-65.006,271.3-64.68z"/>
			<path opacity="0.2" fill="#9CD1F2" d="M129.902-134.619c-6.088-0.047-12.138-0.32-18.219-0.822
				c-1.372-7.025-2.128-14.02-2.284-21.1c4.365,0.551,8.72,0.988,13.105,1.32C124.33-148.186,126.777-141.365,129.902-134.619z"/>
		</g>
		<g opacity="0.4">
			<g>
				<g opacity="0.8">
					<path fill="#FFFFFF" d="M112.007-123.322l-0.222-0.012c-7.459-0.342-15.071-1.025-22.627-2.031l-0.13-0.018l-0.006-0.135
						c-0.287-12.84,1.315-25.588,4.766-37.891l0.04-0.135l0.139,0.025c4.167,0.746,8.385,1.396,12.529,1.938l0.14,0.02l-0.006,0.139
						c-0.287,12.727,1.5,25.475,5.312,37.889L112.007-123.322L112.007-123.322z M89.331-125.656
						c7.429,0.986,14.913,1.658,22.247,2.002c-3.764-12.332-5.53-24.99-5.257-37.635c-4.065-0.531-8.19-1.17-12.271-1.898
						C90.647-151,89.062-138.375,89.331-125.656L89.331-125.656z"/>
				</g>
				<g opacity="0.8">
					<path fill="#FFFFFF" d="M153.5-96.988l-0.059-0.057c-10.243-9.98-18.647-21.018-24.985-32.805l-0.12-0.221l0.25-0.01
						c10.053-0.387,19.583-1.387,29.144-3.057l0.074-0.014l0.056,0.051c10.304,9.48,21.888,17.17,35.429,23.51l0.313,0.148
						l-0.316,0.137c-12.414,5.354-25.4,9.373-39.705,12.301L153.5-96.988L153.5-96.988z M128.848-129.777
						c6.294,11.654,14.623,22.572,24.751,32.451c14.132-2.895,26.973-6.863,39.244-12.127c-13.41-6.314-24.908-13.959-35.134-23.363
						C148.239-131.166,138.795-130.17,128.848-129.777L128.848-129.777z"/>
				</g>
				<g opacity="0.8">
					<path fill="#FFFFFF" d="M138.54-88.756l-0.053-0.07c-4.773-5.834-8.925-11.707-12.683-17.949l-0.136-0.219l0.257-0.016
						c7.073-0.418,14.121-1.131,20.929-2.115l0.085-0.01l0.054,0.061c5.025,5.479,10.365,10.52,16.324,15.41l0.244,0.197
						l-0.303,0.074c-7.945,1.918-16.231,3.475-24.63,4.621L138.54-88.756L138.54-88.756z M126.201-106.715
						c3.708,6.123,7.785,11.891,12.47,17.623c8.251-1.129,16.395-2.656,24.208-4.531c-5.854-4.818-11.108-9.787-16.06-15.182
						C140.105-107.836,133.171-107.135,126.201-106.715L126.201-106.715z"/>
				</g>
				<g opacity="0.8">
					<path fill="#FFFFFF" d="M115.816-112.75c-2.469,0-4.982-0.037-7.482-0.109l-0.108-0.002l-0.034-0.105
						c-4.062-12.52-6.138-25.346-6.169-38.121l-0.003-0.178l0.176,0.021c5.002,0.625,10.047,1.104,15,1.424l0.115,0.006l0.028,0.111
						c3.167,12.566,8.488,24.719,15.818,36.117l0.142,0.221l-0.261,0.02C127.376-112.951,121.583-112.75,115.816-112.75
						L115.816-112.75z M108.453-113.168c2.46,0.068,4.938,0.105,7.364,0.105c5.669,0,11.368-0.193,16.937-0.576
						c-7.254-11.33-12.532-23.4-15.69-35.879c-4.866-0.318-9.816-0.787-14.728-1.395
						C102.384-138.264,104.443-125.564,108.453-113.168L108.453-113.168z"/>
				</g>
				<g opacity="0.8">
					<path fill="#FFFFFF" d="M135.79-114.213l-0.054-0.076c-7.692-11.287-13.364-23.367-16.853-35.9l-0.057-0.207l0.214,0.008
						c2.997,0.121,6.019,0.184,8.975,0.184c7.409,0,14.859-0.387,22.133-1.145l0.083-0.01l0.054,0.061
						c9.227,10.572,20.037,19.236,33.051,26.488l0.305,0.166l-0.326,0.117c-14.68,5.199-30.64,8.668-47.434,10.309L135.79-114.213
						L135.79-114.213z M119.242-150.068c3.522,12.57,8.987,24.195,16.699,35.529c16.614-1.629,32.407-5.049,46.947-10.168
						c-12.893-7.221-23.621-15.834-32.784-26.322c-7.26,0.752-14.691,1.137-22.088,1.137
						C125.125-149.893,122.173-149.951,119.242-150.068L119.242-150.068z"/>
				</g>
				<g opacity="0.8">
					<path fill="#FFFFFF" d="M183.047,19.199l-0.059-0.031c-15.514-8.951-29.698-19.162-42.165-30.35l-0.239-0.215l0.319-0.055
						c43.645-7.43,80.768-22.35,110.333-44.344l0.051-0.037l0.063,0.006c9.788,1.324,19.719,1.996,29.511,1.996c0,0,0.002,0,0.006,0
						c7.669,0,15.464-0.412,23.165-1.225l0.382-0.041l-0.248,0.295c-27.464,32.977-69.323,58.559-121.057,73.98L183.047,19.199
						L183.047,19.199z M141.274-11.199c12.374,11.076,26.442,21.188,41.812,30.063C234.572,3.5,276.265-21.934,303.684-54.703
						c-7.588,0.783-15.263,1.184-22.816,1.184c-0.004,0-0.004,0-0.006,0c-9.786,0-19.704-0.668-29.49-1.986
						c-15.049,11.189-32.369,20.682-51.486,28.219C181.871-20.186,162.152-14.775,141.274-11.199L141.274-11.199z"/>
				</g>
				<g opacity="0.8">
					<path fill="#FFFFFF" d="M147.461-57.736l-0.053-0.057c-10.925-10.49-20.119-21.941-27.334-34.035l-0.131-0.221l0.259-0.014
						c16.645-0.877,32.731-3.357,47.82-7.373l0.07-0.02l0.06,0.043c11.831,8.629,25.2,15.844,39.735,21.445l0.329,0.129
						l-0.315,0.156c-18.012,9.021-38.317,15.727-60.358,19.93L147.461-57.736L147.461-57.736z M120.478-91.768
						c7.163,11.969,16.275,23.303,27.083,33.693c21.855-4.172,42.001-10.811,59.886-19.727
						c-14.407-5.584-27.67-12.756-39.421-21.314C153.02-95.125,137.022-92.654,120.478-91.768L120.478-91.768z"/>
				</g>
				<g opacity="0.8">
					<path fill="#FFFFFF" d="M138.75-15.697l-0.057-0.055c-20.809-19.893-35.81-42.1-44.584-66.01l-0.083-0.217l0.233,0.008
						c3.584,0.137,7.195,0.207,10.732,0.207c15.66,0,31.074-1.367,45.813-4.059l0.08-0.016l0.06,0.055
						c19.605,18.623,44.214,32.748,73.14,41.984l0.355,0.113l-0.331,0.174c-24.974,13.297-53.667,22.65-85.281,27.803L138.75-15.697
						L138.75-15.697z M94.481-81.65c8.76,23.758,23.692,45.836,44.373,65.621c31.417-5.125,59.934-14.404,84.783-27.586
						c-28.792-9.24-53.3-23.332-72.856-41.889c-14.733,2.689-30.142,4.051-45.79,4.051C101.53-81.453,97.992-81.52,94.481-81.65
						L94.481-81.65z"/>
				</g>
				<g opacity="0.8">
					<path fill="#FFFFFF" d="M113.436-28.164l-0.054-0.066c-7.842-10.508-14.46-21.551-19.662-32.828l-0.102-0.223l0.247,0.004
						c1.574,0.023,3.167,0.035,4.732,0.035c9.829,0,19.65-0.469,29.191-1.4l0.088-0.008l0.051,0.064
						c8.044,9.998,17.48,19.457,28.038,28.115l0.253,0.207l-0.317,0.066c-13.64,2.895-27.897,4.924-42.38,6.029L113.436-28.164
						L113.436-28.164z M94.107-60.963c5.166,11.154,11.717,22.078,19.473,32.477c14.328-1.096,28.437-3.098,41.939-5.949
						c-10.45-8.598-19.798-17.977-27.782-27.889c-9.53,0.926-19.333,1.393-29.14,1.393C97.113-60.932,95.603-60.939,94.107-60.963
						L94.107-60.963z"/>
				</g>
				<g opacity="0.8">
					<path fill="#FFFFFF" d="M170.668-18.252l-0.059-0.039c-9.879-6.662-19.104-13.984-27.412-21.762l-0.227-0.215l0.307-0.053
						c10.51-1.852,20.837-4.24,30.699-7.098l0.068-0.018l0.061,0.033c9.794,6.305,20.414,11.977,31.572,16.861l0.331,0.146
						l-0.335,0.143c-11.049,4.611-22.804,8.643-34.935,11.982L170.668-18.252L170.668-18.252z M143.639-40.07
						c8.22,7.676,17.329,14.9,27.086,21.48c11.973-3.299,23.576-7.271,34.494-11.811c-11.029-4.85-21.529-10.467-31.224-16.699
						C164.24-44.275,154.029-41.91,143.639-40.07L143.639-40.07z"/>
				</g>
				<g opacity="0.8">
					<path fill="#FFFFFF" d="M207.842,16.443l-0.061-0.025c-12.031-5.34-23.539-11.426-34.193-18.088l-0.301-0.188l0.341-0.096
						c13.753-3.824,27.026-8.479,39.45-13.826l0.059-0.027l0.061,0.025c12.064,4.666,24.772,8.531,37.771,11.494l0.387,0.088
						l-0.347,0.197C237.711,3.682,223.206,10.551,207.9,16.42L207.842,16.443L207.842,16.443z M174.051-1.746
						c10.547,6.57,21.914,12.576,33.799,17.854c15.137-5.811,29.486-12.596,42.66-20.182c-12.855-2.947-25.424-6.781-37.365-11.396
						C200.825-10.17,187.676-5.555,174.051-1.746L174.051-1.746z"/>
				</g>
				<g opacity="0.8">
					<path fill="#FFFFFF" d="M262.771-90.174c-21.424,0-42.167-3.779-61.661-11.234l-0.327-0.125l0.313-0.16
						c10.266-5.227,19.216-10.969,27.363-17.553l0.05-0.041l0.063,0.008c5.315,0.576,10.651,0.869,15.862,0.869c0,0,0,0,0.001,0
						c13.664,0,27.056-2.006,39.807-5.963l0.307-0.096l-0.115,0.301c-4.603,11.912-11.51,23.014-21.126,33.941l-0.047,0.053H262.771
						L262.771-90.174z M201.547-101.574c19.363,7.357,39.959,11.088,61.224,11.088l0.35-0.002
						c9.483-10.787,16.325-21.748,20.905-33.494c-12.688,3.904-26.009,5.883-39.592,5.883c-0.001,0-0.001,0-0.001,0
						c-5.202,0-10.526-0.291-15.831-0.863C220.535-112.449,211.682-106.758,201.547-101.574L201.547-101.574z"/>
				</g>
				<g opacity="0.8">
					<path fill="#FFFFFF" d="M269.331-74.803c-6.098,0-12.308-0.293-18.457-0.865l-0.364-0.035l0.276-0.236
						c16.748-14.588,28.512-30.721,34.97-47.951l0.022-0.068l0.069-0.025c11.442-3.971,21.571-9.215,30.964-16.025l0.242-0.176
						l0.005,0.299c0.406,21.205-6.705,42.471-21.137,63.215l-0.042,0.055l-0.066,0.008C287.04-75.41,278.131-74.803,269.331-74.803
						L269.331-74.803z M251.267-75.945c6.02,0.551,12.094,0.83,18.064,0.83c8.761,0,17.634-0.602,26.374-1.791
						c14.299-20.57,21.382-41.656,21.051-62.676c-9.334,6.73-19.392,11.924-30.74,15.871
						C279.574-106.553,267.883-90.482,251.267-75.945L251.267-75.945z"/>
				</g>
				<g opacity="0.8">
					<path fill="#FFFFFF" d="M184.249-84.256l-0.065-0.037c-13.266-7.678-24.54-16.402-34.467-26.68l-0.204-0.211l0.293-0.049
						c6.577-1.139,13.071-2.549,19.3-4.201l0.068-0.018l0.061,0.043c11.713,8.402,24.402,15.002,38.789,20.176l0.33,0.119
						l-0.314,0.166c-7.503,3.99-15.267,7.479-23.726,10.664L184.249-84.256L184.249-84.256z M150.148-110.977
						c9.84,10.146,21.006,18.777,34.125,26.377c8.303-3.131,15.933-6.555,23.309-10.459c-14.25-5.156-26.839-11.719-38.468-20.053
						C162.99-113.492,156.611-112.102,150.148-110.977L150.148-110.977z"/>
				</g>
				<g opacity="0.8">
					<path fill="#FFFFFF" d="M218.047-38.139l-0.063-0.021c-16.02-5.752-30.957-13.105-44.394-21.859l-0.281-0.182l0.318-0.1
						c10.733-3.297,21.04-7.25,30.635-11.75l0.063-0.031l0.062,0.027c15.004,5.965,31.002,10.176,47.547,12.514l0.369,0.053
						l-0.296,0.225c-10.123,7.736-21.527,14.836-33.901,21.096L218.047-38.139L218.047-38.139z M174.037-60.098
						c13.33,8.648,28.126,15.922,43.99,21.621c12.211-6.182,23.479-13.186,33.494-20.809c-16.415-2.348-32.29-6.541-47.186-12.455
						C194.84-67.293,184.646-63.375,174.037-60.098L174.037-60.098z"/>
				</g>
				<g opacity="0.8">
					<path fill="#FFFFFF" d="M193.205-102.223l-0.068-0.031c-19.936-9.537-36.285-22.367-48.601-38.129l-0.174-0.221l0.279-0.029
						c7.126-0.758,13.907-1.813,20.732-3.227l0.068-0.014l0.061,0.045c16.088,12.461,35.139,20.801,56.617,24.781l0.359,0.066
						l-0.299,0.213c-8.727,6.303-18.185,11.705-28.91,16.516L193.205-102.223L193.205-102.223z M144.953-140.355
						c12.254,15.607,28.484,28.32,48.252,37.789c10.561-4.738,19.885-10.055,28.498-16.242
						c-21.355-4.012-40.307-12.332-56.338-24.73C158.645-142.148,151.96-141.107,144.953-140.355L144.953-140.355z"/>
				</g>
				<g opacity="0.8">
					<path fill="#FFFFFF" d="M247.21-54.863l-0.063-0.014c-24.38-4.264-46.825-12.379-66.708-24.115l-0.284-0.17l0.312-0.109
						c16.654-5.873,31.627-13.42,44.502-22.432l0.055-0.039l0.064,0.014c10.456,2.014,21.042,3.039,31.47,3.039
						c11.234,0,22.518-1.189,33.529-3.525l0.329-0.07l-0.161,0.299c-9.582,17.316-24.049,33.156-42.991,47.082L247.21-54.863
						L247.21-54.863z M180.889-79.092c19.76,11.617,42.047,19.656,66.244,23.896c18.776-13.807,33.131-29.498,42.685-46.645
						c-10.932,2.295-22.117,3.459-33.257,3.459c-0.003,0,0,0-0.003,0c-10.428,0-21.011-1.02-31.464-3.029
						C212.289-92.453,197.416-84.949,180.889-79.092L180.889-79.092z"/>
				</g>
				<g opacity="0.8">
					<path fill="#FFFFFF" d="M218.691-77.223l-0.064-0.021c-17.22-5.32-33.004-12.838-46.918-22.344l-0.269-0.182l0.308-0.094
						c10.828-3.303,20.664-7.207,30.068-11.941l0.06-0.029l0.065,0.021c15.583,5.555,32.055,8.652,48.955,9.201l0.355,0.014
						l-0.247,0.252c-9.107,9.344-19.659,17.551-32.253,25.088L218.691-77.223L218.691-77.223z M172.15-99.662
						c13.806,9.391,29.451,16.824,46.502,22.102c12.433-7.443,22.865-15.545,31.883-24.748c-16.791-0.586-33.15-3.676-48.64-9.188
						C192.586-106.814,182.851-102.939,172.15-99.662L172.15-99.662z"/>
				</g>
				<g opacity="0.8">
					<path fill="#FFFFFF" d="M250.032-19.83l-0.061-0.014c-20.262-4.314-39.449-10.949-57.034-19.717l-0.314-0.154l0.328-0.131
						c25.993-9.992,47.915-23.221,65.16-39.314l0.045-0.047l0.065,0.006c2.747,0.115,5.516,0.174,8.24,0.174
						c16.063,0,31.986-2.063,47.331-6.135l0.35-0.092l-0.174,0.316c-13.358,24.855-34.852,46.748-63.882,65.072L250.032-19.83
						L250.032-19.83z M193.392-39.68c17.458,8.668,36.491,15.234,56.585,19.52c28.83-18.213,50.21-39.949,63.553-64.607
						c-15.266,4.018-31.098,6.055-47.063,6.055c-0.004,0-0.004,0-0.004,0c-2.707,0-5.462-0.061-8.188-0.174
						C241.082-62.854,219.26-49.666,193.392-39.68L193.392-39.68z"/>
				</g>
				<g opacity="0.8">
					<path fill="#FFFFFF" d="M272.687-67.627l0.255-0.266c18.439-19.203,29.575-39.846,33.089-61.357l0.015-0.074l0.067-0.039
						c10.683-5.869,19.877-12.928,28.104-21.58l0.205-0.217l0.062,0.293c2.631,12.889,2.549,26.281-0.25,39.803
						c-2.586,12.512-7.496,25.172-14.594,37.635l-0.031,0.059l-0.064,0.016c-15.084,3.697-30.723,5.621-46.487,5.725L272.687-67.627
						L272.687-67.627z M306.328-129.125c-3.524,21.447-14.597,42.029-32.907,61.18c15.592-0.129,31.062-2.045,45.981-5.697
						c14.643-25.732,19.767-52.305,14.834-76.869C326.056-141.953,316.923-134.957,306.328-129.125L306.328-129.125z"/>
				</g>
				<g opacity="0.8">
					<path fill="#FFFFFF" d="M244.634-78.539l-0.068-0.008c-4.204-0.59-8.442-1.303-12.595-2.117l-0.355-0.072l0.296-0.209
						c11.726-8.424,21.271-17.393,29.183-27.422l0.043-0.053l0.068-0.004c3.807-0.27,7.627-0.688,11.356-1.248l0.341-0.053
						l-0.188,0.289c-7.215,11.162-16.381,21.256-28.026,30.854L244.634-78.539L244.634-78.539z M232.383-80.902
						c4.014,0.783,8.101,1.469,12.159,2.037c11.493-9.482,20.566-19.445,27.724-30.449c-3.607,0.533-7.295,0.936-10.97,1.195
						C253.441-98.172,243.979-89.264,232.383-80.902L232.383-80.902z"/>
				</g>
				<g opacity="0.8">
					<path fill="#FFFFFF" d="M107.004-86.203c-6.774,0-13.722-0.264-20.652-0.781l-0.114-0.008l-0.025-0.111
						c-2.917-11.953-4.309-24.066-4.142-36.004l0.003-0.18l0.177,0.027c12.795,2.004,25.64,3.021,38.184,3.021
						c0.323,0,0.647,0,0.971-0.002h0.097l0.043,0.09c5.348,11.141,12.128,21.377,20.732,31.281l0.19,0.219l-0.284,0.039
						C130.72-87.014,118.887-86.203,107.004-86.203L107.004-86.203z M86.488-87.287c6.886,0.512,13.788,0.773,20.517,0.773
						c11.769,0,23.494-0.797,34.85-2.365c-8.509-9.836-15.23-19.994-20.547-31.049c-12.794,0.051-25.88-0.961-38.926-2.996
						C82.228-111.107,83.611-99.119,86.488-87.287L86.488-87.287z"/>
				</g>
				<g opacity="0.8">
					<path fill="#FFFFFF" d="M136.355-96.289l-0.051-0.07c-8.448-11.143-14.97-23.068-19.384-35.451l-0.08-0.217l0.228,0.008
						c2.352,0.068,4.778,0.096,7.189,0.082h0.1l0.042,0.09c5.637,12.191,13.072,23.26,22.732,33.834l0.194,0.215l-0.287,0.045
						c-3.465,0.541-7.03,1.031-10.593,1.455L136.355-96.289L136.355-96.289z M117.29-131.701
						c4.392,12.248,10.854,24.051,19.208,35.082c3.431-0.41,6.865-0.879,10.209-1.398c-9.562-10.508-16.941-21.506-22.548-33.607
						C121.855-131.613,119.54-131.639,117.29-131.701L117.29-131.701z"/>
				</g>
				<g opacity="0.8">
					<path fill="#FFFFFF" d="M136.665-133.346l-0.051-0.08c-5.306-8.533-9.322-17.225-12.279-26.572l-0.068-0.209l0.221,0.006
						c1.131,0.033,1.698,0.049,2.824,0.066l0.107,0.002l0.038,0.1c3.414,9.238,7.885,17.777,13.663,26.109l0.155,0.223l-0.267,0.023
						c-1.658,0.145-2.49,0.207-4.251,0.326L136.665-133.346L136.665-133.346z M124.699-159.885
						c2.934,9.213,6.904,17.795,12.131,26.215c1.596-0.105,2.429-0.172,3.883-0.295c-5.701-8.256-10.124-16.719-13.513-25.861
						C126.211-159.84,125.653-159.854,124.699-159.885L124.699-159.885z"/>
				</g>
				<g opacity="0.8">
					<path fill="#FFFFFF" d="M230.152-108.102l-0.067-0.012c-10.661-1.682-20.679-4.277-30.626-7.939l-0.338-0.123l0.324-0.162
						c1.914-0.951,2.846-1.434,4.742-2.463l0.061-0.033l0.063,0.021c9.992,3.172,19.985,5.277,30.537,6.43l0.354,0.039l-0.264,0.232
						c-1.549,1.363-3.141,2.697-4.73,3.967L230.152-108.102L230.152-108.102z M199.908-116.219
						c9.793,3.578,19.664,6.129,30.156,7.789c1.482-1.182,2.957-2.418,4.399-3.682c-10.423-1.16-20.303-3.25-30.185-6.385
						C202.527-117.545,201.596-117.061,199.908-116.219L199.908-116.219z"/>
				</g>
				<g opacity="0.8">
					<path fill="#FFFFFF" d="M266.076-63.52l-0.065-0.004c-12.396-0.709-24.229-2.402-36.176-5.174l-0.358-0.084l0.313-0.197
						c2.56-1.656,5.072-3.373,7.474-5.104l0.051-0.039l0.065,0.012c11.941,2.113,23.684,3.148,35.898,3.158h0.363l-0.253,0.262
						c-2.332,2.441-4.774,4.84-7.263,7.125L266.076-63.52L266.076-63.52z M230.267-68.918c11.784,2.713,23.468,4.375,35.696,5.08
						c2.374-2.186,4.713-4.473,6.95-6.805c-12.077-0.029-23.703-1.061-35.523-3.148C235.102-72.141,232.707-70.5,230.267-68.918
						L230.267-68.918z"/>
				</g>
				<g opacity="0.8">
					<path fill="#FFFFFF" d="M125.593-136.838c-4.547,0-9.184-0.131-13.779-0.389l-0.116-0.006l-0.026-0.117
						c-1.57-7.047-2.507-13.936-2.852-21.061l-0.005-0.178l0.179,0.018c4.388,0.434,8.802,0.764,13.122,0.977l0.114,0.008
						l0.031,0.105c2.026,7.031,4.62,13.697,7.934,20.377l0.111,0.221l-0.248,0.002C128.579-136.854,127.073-136.838,125.593-136.838
						L125.593-136.838z M111.951-137.533c4.549,0.254,9.14,0.383,13.642,0.383c1.395,0,2.815-0.012,4.213-0.035
						c-3.253-6.59-5.81-13.17-7.811-20.102c-4.236-0.213-8.559-0.533-12.853-0.957C109.491-151.24,110.412-144.463,111.951-137.533
						L111.951-137.533z"/>
				</g>
			</g>
		</g>
	</g>
</g>
<g id="圖層_1">
	<g>
		<path fill="#0E71B8" d="M105.303,20.858v5.056h-6.544v-5.056v-2.38v-2.379h13.683v-0.745H100.99v-4.758l14.753-7.277l14.846,7.277
			v4.758h-11.75v0.745h7.287h3.271h3.272v9.815h-6.542v-5.056h-7.287v5.501h-6.398v-5.501H105.303z M115.565,46.591
			c-2.081,0-3.123-1.044-3.123-3.124v-3.568h-4.908v1.634h-6.694V30.971v-1.933v-1.933h22.906h3.422h3.271v8.923v1.041l3.421,1.043
			v2.678c-0.101,3.866-2.379,5.801-6.842,5.801H115.565z M111.551,23.684h-5.059v-2.083h5.059V23.684z M111.551,26.359h-5.059v-2.08
			h5.059V26.359z M112.442,30.971h-4.908v0.895h4.908V30.971z M112.442,35.135h-4.908v0.894h4.908V35.135z M119.284,31.865h4.462
			v-0.895h-4.462V31.865z M119.284,36.028h4.462v-0.894h-4.462V36.028z M126.572,39.898h-7.289c0.099,0.689,0.495,1.04,1.189,1.04
			h4.909C126.175,40.837,126.572,40.491,126.572,39.898z M125.085,23.684h-4.908v-2.083h4.908V23.684z M125.085,26.359h-4.908v-2.08
			h4.908V26.359z"/>
		<path fill="#0E71B8" d="M77.982,37.792v-5.235h2.562V29.33h-2.229v-5.012h2.229v-4.677h5.011v4.677h2.227v-4.677h5.012v4.677
			h2.895v5.012h-2.895v3.227h3.229v5.235h-4.566c1.41,1.634,3.009,3.118,4.788,4.455l-3.674,4.344
			c-1.931-1.487-3.936-3.455-6.014-5.905l3.34-2.894H82.77l3.34,2.672c-1.558,2.005-3.452,4.012-5.679,6.013l-3.34-3.786v3.9h-5.01
			V34.34c-0.297,0.373-0.669,0.779-1.114,1.226l-1.448-6.459c1.929-2.747,3.488-6.05,4.676-9.91l5.012,1.67
			c-0.743,2.3-1.447,4.231-2.116,5.79v15.367c1.561-1.41,2.895-2.819,4.008-4.231H77.982z M87.782,32.557V29.33h-2.227v3.227H87.782
			z"/>
		<path fill="#BDD596" d="M138.107,43.704v-3.541h8.661v-0.558h-6.985v-1.305v-1.305v-6.145h2.143h2.047h9.685h2.144h2.049v6.145
			v1.305v1.305h-6.983v0.558h8.939v3.541h-8.939v2.979h-4.099v-2.979H138.107z M144.625,30.292h-2.047h-1.958h-1.954v-6.146h1.954
			h1.958h2.047h1.958h1.956v6.146h-1.956H144.625z M144.625,26.846h-2.047v0.745h2.047V26.846z M146.768,33.458h-2.794v0.558h2.794
			V33.458z M146.768,36.439h-2.794v0.557h2.794V36.439z M155.335,30.292h-2.141h-1.958h-1.955v-6.239h1.955h1.958h2.141h1.953h1.957
			v6.239h-1.957H155.335z M150.867,34.016h2.791v-0.558h-2.791V34.016z M150.867,36.996h2.791v-0.557h-2.791V36.996z
			 M155.335,26.753h-2.141v0.838h2.141V26.753z"/>
		<path fill="#BDD596" d="M170.385,46.31h-4.283V36.53c-0.374,0.435-0.746,0.871-1.117,1.305l-1.119-5.495
			c1.679-2.358,3.012-5.152,4.005-8.38l4.19,1.396c-0.558,1.739-1.117,3.261-1.676,4.563V46.31z M180.909,31.409l4.376,1.209
			c-0.807,4.04-1.522,7.08-2.144,9.128h3.26v4.469h-15.363v-4.469h7.356C179.264,38.767,180.103,35.32,180.909,31.409z
			 M175.786,31.782c1.057,2.548,1.861,5.309,2.422,8.288l-4.379,0.838c-0.557-2.607-1.303-5.122-2.232-7.542L175.786,31.782z
			 M176.348,24.146h4.466v2.607h4.937v4.377h-13.875v-4.377h4.473V24.146z"/>
		<polygon fill="#FFFFFF" points="115.002,6.833 117.903,6.833 116.584,9.206 118.298,9.206 114.475,13.03 115.396,10.656 
			113.814,10.656 		"/>
		<path fill="#999999" d="M196.468,34.769c0.057,0,0.363,0.243,0.925,0.729c0,0.159-0.075,0.262-0.224,0.307
			c-0.157,0.039-0.271,0.086-0.338,0.143c-0.495,0.579-1.007,1.079-1.539,1.501v7.081c0,0.132-0.087,0.196-0.252,0.196h-0.535
			c-0.168,0-0.253-0.064-0.253-0.196v-6.337c-0.504,0.365-1.131,0.767-1.878,1.203c-0.282-0.31-0.492-0.513-0.632-0.614
			c-0.065-0.086-0.098-0.143-0.098-0.171c0-0.045,0.021-0.083,0.071-0.111c1.055-0.494,1.983-1.095,2.789-1.795
			c0.607-0.514,1.21-1.132,1.81-1.853C196.358,34.797,196.412,34.769,196.468,34.769z M195.655,31.796l0.897,0.619
			c0.109,0.073,0.168,0.177,0.168,0.308c0,0.074-0.067,0.109-0.196,0.109c-0.233,0-0.396,0.043-0.491,0.129
			c-1.16,1.083-2.23,1.875-3.212,2.368c-0.104,0-0.183-0.027-0.237-0.085c-0.132-0.166-0.261-0.312-0.393-0.436
			c-0.084-0.063-0.127-0.104-0.127-0.126c0-0.043,0.036-0.078,0.113-0.096c0.354-0.147,0.691-0.338,1.009-0.56
			c0.504-0.291,0.963-0.619,1.373-0.982c0.375-0.355,0.69-0.723,0.941-1.109C195.565,31.845,195.618,31.796,195.655,31.796z
			 M197.534,36.313h7.038c0.13,0,0.197,0.064,0.197,0.196v0.477c0,0.131-0.067,0.194-0.197,0.194h-2.104v6.507
			c0,0.729-0.577,1.096-1.737,1.096l-1.181-0.057c-0.063,0-0.096-0.1-0.096-0.297c-0.021-0.196-0.108-0.441-0.268-0.742V43.66
			c0.524,0.091,1.021,0.139,1.485,0.139c0.506,0,0.759-0.167,0.759-0.504V37.18h-3.897c-0.13,0-0.194-0.063-0.194-0.194v-0.477
			C197.34,36.377,197.404,36.313,197.534,36.313z M198.262,32.469h5.525c0.112,0,0.169,0.085,0.169,0.254v0.419
			c0,0.168-0.057,0.253-0.169,0.253h-5.525c-0.111,0-0.168-0.085-0.168-0.253v-0.419C198.094,32.554,198.15,32.469,198.262,32.469z"
			/>
		<path fill="#999999" d="M215.406,32.525c-0.114,0-0.207,0.011-0.28,0.028c-0.56,0.226-1.188,0.396-1.881,0.518v1.025h2.946
			c0.057,0,0.084,0.055,0.084,0.168v0.448c0,0.149-0.027,0.225-0.084,0.225h-2.946v0.926h2.412c0.149,0,0.226,0.048,0.226,0.141
			v4.094c0,0.112-0.076,0.169-0.226,0.169h-2.412v1.008h2.525c0.075,0,0.112,0.058,0.112,0.168v0.449
			c0,0.149-0.037,0.225-0.112,0.225h-2.525v0.982c0.515-0.056,1.067-0.12,1.658-0.195c0.503-0.087,0.915-0.16,1.232-0.225
			c0.036,0,0.056,0.046,0.056,0.138c-0.056,0.198-0.088,0.412-0.099,0.646c0,0.095-0.022,0.143-0.07,0.143
			c-0.477,0.035-0.959,0.087-1.444,0.149c-1.551,0.267-3.156,0.521-4.81,0.775c-0.084,0.281-0.169,0.431-0.253,0.447
			c-0.054,0-0.106-0.024-0.154-0.083l-0.35-1.233c0.45-0.039,1.522-0.178,3.226-0.421v-1.123h-2.581
			c-0.057,0-0.083-0.075-0.083-0.225v-0.449c0-0.11,0.026-0.168,0.083-0.168h2.581v-1.008h-2.469c-0.131,0-0.195-0.057-0.195-0.169
			v-4.094c0-0.093,0.064-0.141,0.195-0.141h2.469v-0.926h-2.975c-0.075,0-0.111-0.075-0.111-0.225v-0.448
			c0-0.113,0.036-0.168,0.111-0.168h2.975v-0.844c-0.841,0.096-1.703,0.142-2.581,0.142c-0.141,0-0.228-0.051-0.266-0.154
			c-0.019-0.178-0.08-0.345-0.183-0.505c-0.038-0.056-0.057-0.125-0.057-0.21c1.366-0.011,2.432-0.068,3.199-0.183
			c0.913-0.102,1.741-0.313,2.48-0.63c0.093-0.038,0.163-0.057,0.21-0.057c0.057,0,0.113,0.019,0.169,0.057
			c0.447,0.391,0.673,0.645,0.673,0.756c0,0.169-0.059,0.254-0.169,0.254L215.406,32.525z M210.58,37.655h1.657v-0.979h-1.657
			V37.655z M212.237,39.452v-0.981h-1.657v0.981H212.237z M213.245,36.676v0.979h1.658v-0.979H213.245z M214.903,39.452v-0.981
			h-1.658v0.981H214.903z M216.751,34.88h1.53c0.008-0.597,0.012-1.25,0.012-1.962c0-0.195-0.018-0.567-0.055-1.122
			c0-0.074,0.064-0.111,0.197-0.111l1.008,0.098c0.151,0.028,0.225,0.07,0.225,0.127c0,0.129-0.046,0.214-0.139,0.251
			c-0.188,0.048-0.281,0.15-0.281,0.309c0,0.897-0.009,1.701-0.029,2.411h2.498c0.11,0,0.166,0.085,0.166,0.253
			c-0.018,2.522-0.073,4.347-0.166,5.471c-0.094,1.317-0.248,2.308-0.464,2.972c-0.159,0.69-0.641,1.039-1.444,1.039
			c-0.645,0-0.977-0.099-0.996-0.295c-0.055-0.198-0.183-0.436-0.377-0.715v-0.112c0.504,0.036,0.962,0.054,1.373,0.054
			c0.385,0,0.617-0.246,0.7-0.743c0.123-0.41,0.229-1.186,0.325-2.328c0.084-0.953,0.139-2.509,0.169-4.67h-1.784
			c-0.036,1.236-0.097,2.231-0.181,2.988c-0.169,1.469-0.453,2.733-0.855,3.8c-0.272,0.767-0.604,1.479-0.995,2.133h-0.183
			c-0.301-0.097-0.585-0.201-0.855-0.322c-0.046-0.03-0.07-0.079-0.07-0.157c0.496-0.642,0.899-1.348,1.204-2.115
			c0.329-0.757,0.571-1.725,0.73-2.903c0.113-0.795,0.191-1.936,0.239-3.423h-1.502c-0.111,0-0.166-0.083-0.166-0.251v-0.421
			C216.585,34.965,216.64,34.88,216.751,34.88z"/>
		<path fill="#999999" d="M226.883,33.282h5.583v-1.43c0-0.114,0.083-0.168,0.25-0.168c0.693,0,1.039,0.054,1.039,0.168
			c0,0.141-0.047,0.219-0.14,0.237c-0.096,0.01-0.141,0.1-0.141,0.268v0.925h5.385c0.112,0,0.168,0.066,0.168,0.197v0.475
			c0,0.133-0.056,0.197-0.168,0.197h-4.993c0.365,0.478,0.725,0.893,1.079,1.25c0.581,0.531,1.142,0.946,1.685,1.247
			c0.768,0.514,1.697,0.922,2.789,1.22c0.113,0.019,0.171,0.062,0.171,0.127c0,0.064-0.024,0.121-0.071,0.168
			c-0.197,0.149-0.39,0.317-0.575,0.504c-0.047,0.076-0.084,0.114-0.112,0.114c-0.821-0.282-1.504-0.586-2.047-0.913
			c-0.084-0.036-0.159-0.074-0.225-0.113v4.613c0,0.096-0.067,0.142-0.195,0.142h-6.563c-0.168,0-0.254-0.046-0.254-0.142v-4.713
			c0-0.11,0.086-0.168,0.254-0.168h2.665v-2.451c-0.45,0.467-0.847,0.841-1.193,1.12c-0.579,0.534-1.218,1.021-1.92,1.46
			c-0.796,0.468-1.592,0.875-2.385,1.219c-0.093,0-0.168-0.032-0.225-0.098c-0.195-0.187-0.378-0.35-0.546-0.49
			c-0.028-0.066-0.043-0.112-0.043-0.142c0.757-0.289,1.376-0.564,1.853-0.825c0.708-0.328,1.444-0.796,2.2-1.403
			c0.447-0.356,1.052-0.93,1.809-1.726h-5.133c-0.109,0-0.166-0.064-0.166-0.197v-0.475
			C226.717,33.349,226.773,33.282,226.883,33.282z M226.717,43.379h12.367c0.131,0,0.195,0.074,0.195,0.226v0.447
			c0,0.131-0.064,0.194-0.195,0.194h-12.367c-0.132,0-0.199-0.063-0.199-0.194v-0.447C226.518,43.453,226.585,43.379,226.717,43.379
			z M230.559,39.536h4.991v-1.179h-4.991V39.536z M235.55,41.64v-1.177h-4.991v1.177H235.55z M233.475,37.487h2.607
			c-0.505-0.325-0.971-0.689-1.4-1.093c-0.376-0.347-0.777-0.776-1.207-1.29V37.487z"/>
		<path fill="#999999" d="M243.828,34.097h4.659c0.13,0,0.197,0.073,0.197,0.225v0.447c0,0.169-0.067,0.253-0.197,0.253h-4.659
			c-0.109,0-0.166-0.084-0.166-0.253v-0.447C243.662,34.17,243.719,34.097,243.828,34.097z M244.392,39.956h3.59
			c0.166,0,0.251,0.049,0.251,0.142v4.376c0,0.129-0.085,0.194-0.251,0.194h-0.563c-0.149,0-0.223-0.065-0.223-0.194v-0.729h-1.99
			v0.729c0,0.129-0.086,0.194-0.253,0.194h-0.562c-0.15,0-0.226-0.065-0.226-0.194v-4.319
			C244.166,40.024,244.241,39.956,244.392,39.956z M244.392,36.004h3.478c0.13,0,0.194,0.083,0.194,0.251v0.421
			c0,0.169-0.064,0.251-0.194,0.251h-3.478c-0.113,0-0.168-0.082-0.168-0.251v-0.421C244.224,36.087,244.278,36.004,244.392,36.004z
			 M244.392,37.91h3.478c0.13,0,0.194,0.085,0.194,0.253v0.447c0,0.149-0.064,0.225-0.194,0.225h-3.478
			c-0.113,0-0.168-0.075-0.168-0.225v-0.447C244.224,37.995,244.278,37.91,244.392,37.91z M244.531,32.216h3.45
			c0.132,0,0.196,0.066,0.196,0.199v0.475c0,0.131-0.064,0.196-0.196,0.196h-3.45c-0.13,0-0.194-0.065-0.194-0.196v-0.475
			C244.337,32.282,244.401,32.216,244.531,32.216z M245.206,42.875h1.99v-2.049h-1.99V42.875z M250.842,31.656l0.995,0.366
			c0.084,0.072,0.129,0.138,0.129,0.193c0,0.066-0.03,0.112-0.086,0.142c-0.111,0-0.183,0.061-0.211,0.183
			c-0.132,0.403-0.243,0.752-0.335,1.053h4.949c0.131,0,0.196,0.082,0.196,0.251c-0.028,2.954-0.102,5.075-0.223,6.366
			c-0.123,1.551-0.306,2.701-0.55,3.45c-0.195,0.805-0.772,1.205-1.727,1.205c-0.653,0-0.993-0.083-1.022-0.251
			c-0.044-0.226-0.188-0.479-0.435-0.757v-0.112c0.534,0.036,1.018,0.054,1.457,0.054c0.509,0,0.82-0.285,0.943-0.854
			c0.158-0.477,0.294-1.4,0.405-2.776c0.121-1.121,0.19-3.006,0.209-5.652h-4.556c-0.197,0.468-0.416,0.911-0.66,1.334
			c-0.224,0.373-0.479,0.713-0.77,1.023c-0.104,0-0.196-0.021-0.283-0.057c-0.194-0.084-0.383-0.158-0.559-0.225
			c-0.075-0.029-0.111-0.057-0.111-0.083c0-0.038,0.022-0.069,0.067-0.1c0.42-0.456,0.791-1.022,1.111-1.696
			c0.214-0.382,0.382-0.79,0.504-1.221c0.177-0.438,0.331-1.023,0.462-1.754C250.771,31.685,250.805,31.656,250.842,31.656z
			 M250.223,36.255h3.704c0.168,0,0.252,0.058,0.252,0.167v5.077c0,0.171-0.084,0.252-0.252,0.252h-2.915v1.065
			c0,0.113-0.077,0.169-0.227,0.169h-0.563c-0.093,0-0.138-0.056-0.138-0.169v-6.395C250.085,36.313,250.13,36.255,250.223,36.255z
			 M251.012,38.527h2.187v-1.458h-2.187V38.527z M251.012,40.883h2.187v-1.487h-2.187V40.883z"/>
	</g>
</g>
</svg>
