<?xml version="1.0" encoding="utf-8"?>
<!-- Generator: Adobe Illustrator 14.0.0, SVG Export Plug-In . SVG Version: 6.00 Build 43363)  -->
<!DOCTYPE svg PUBLIC "-//W3C//DTD SVG 1.1//EN" "http://www.w3.org/Graphics/SVG/1.1/DTD/svg11.dtd">
<svg version="1.1" xmlns="http://www.w3.org/2000/svg" xmlns:xlink="http://www.w3.org/1999/xlink" x="0px" y="0px" width="60px"
	 height="60px" viewBox="0 0 60 60" enable-background="new 0 0 60 60" xml:space="preserve">
<g id="圖層_1">
	
		<ellipse transform="matrix(-0.8442 -0.536 0.536 -0.8442 71.0353 41.602)" fill="#FFFFFF" cx="41.563" cy="10.478" rx="3.637" ry="1.132"/>
	<g>
		
			<linearGradient id="SVGID_1_" gradientUnits="userSpaceOnUse" x1="-1843.1963" y1="50.9063" x2="-1843.1963" y2="55.8861" gradientTransform="matrix(-0.9234 -0.384 -0.384 0.9234 -1660.1266 -705.441)">
			<stop  offset="0" style="stop-color:#040000"/>
			<stop  offset="1" style="stop-color:#424242"/>
		</linearGradient>
		<path fill="url(#SVGID_1_)" d="M17.532,48.468c-0.833,2.001,0.313,4.678,2.69,5.668c2.375,0.987,5.081-0.089,5.915-2.089
			c0.831-2.002-0.671-3.821-3.047-4.811C20.713,46.251,18.364,46.466,17.532,48.468z"/>
		<g>
			
				<linearGradient id="SVGID_2_" gradientUnits="userSpaceOnUse" x1="-1843.4819" y1="38.0146" x2="-1842.1232" y2="53.6924" gradientTransform="matrix(-0.9234 -0.384 -0.384 0.9234 -1660.1266 -705.441)">
				<stop  offset="0" style="stop-color:#BEC3BE"/>
				<stop  offset="1" style="stop-color:#746D69"/>
			</linearGradient>
			<path fill="url(#SVGID_2_)" d="M15.858,47.08c-1.305,3.14,10.604,7.956,11.86,4.933c0.821-1.977,4.934-11.862,4.934-11.862
				L20.79,35.218C20.79,35.218,17.164,43.94,15.858,47.08z"/>
			<g>
				<path fill="#746C69" d="M28.609,49.873c-0.307,0.737-0.567,1.362-0.75,1.801c-0.803,0.044-3.217-0.576-6.077-1.948
					c-3.213-1.538-4.748-3.241-5.211-4.36c0.241-0.579,0.505-1.216,0.781-1.878c0.324,0.783,2.305,2.901,5.133,4.385
					C24.604,48.981,28.439,50.279,28.609,49.873z"/>
				<path fill="#746C69" d="M22.915,47.004c-3.213-1.542-4.747-3.24-5.21-4.365c0.259-0.619,0.522-1.253,0.781-1.876
					c0.323,0.781,2.305,2.903,5.133,4.386c2.118,1.11,5.954,2.407,6.121,2c-0.257,0.622-0.51,1.232-0.747,1.804
					C28.191,48.994,25.774,48.374,22.915,47.004z"/>
				<path fill="#746C69" d="M24.047,44.281c-3.213-1.539-4.749-3.239-5.211-4.361c0.277-0.666,0.541-1.303,0.781-1.881
					c0.323,0.783,2.305,2.904,5.133,4.386c2.118,1.11,5.954,2.407,6.123,2.002c-0.241,0.584-0.495,1.19-0.749,1.8
					C29.323,46.271,26.906,45.652,24.047,44.281z"/>
			</g>
			
				<linearGradient id="SVGID_3_" gradientUnits="userSpaceOnUse" x1="-1842.9946" y1="47.6494" x2="-1842.6962" y2="51.0927" gradientTransform="matrix(-0.9234 -0.384 -0.384 0.9234 -1660.1266 -705.441)">
				<stop  offset="0" style="stop-color:#D0D4CF"/>
				<stop  offset="1" style="stop-color:#746D69"/>
			</linearGradient>
			<path fill="url(#SVGID_3_)" d="M17.498,43.14c0.323,0.78,2.304,2.902,5.133,4.384c2.118,1.11,5.954,2.405,6.123,1.997
				c0.639,0.267,0.671,0.691,0.453,1.215c-0.218,0.522-0.625,0.562-1.202,0.591c-0.8,0.041-3.217-0.576-6.078-1.947
				c-3.212-1.541-4.748-3.241-5.208-4.364C16.253,43.891,16.276,42.631,17.498,43.14z"/>
			
				<linearGradient id="SVGID_4_" gradientUnits="userSpaceOnUse" x1="-1841.6001" y1="50.4756" x2="-1841.3014" y2="53.9227" gradientTransform="matrix(-0.9234 -0.384 -0.384 0.9234 -1660.1266 -705.441)">
				<stop  offset="0" style="stop-color:#D0D4CF"/>
				<stop  offset="1" style="stop-color:#746D69"/>
			</linearGradient>
			<path fill="url(#SVGID_4_)" d="M16.365,45.86c0.323,0.783,2.305,2.902,5.132,4.387c2.119,1.109,4.088,2.515,3.601,2.824
				c-0.557,0.349-1.444,0.401-4.304-0.969c-3.213-1.539-4.748-3.24-5.209-4.363C15.121,46.612,15.144,45.353,16.365,45.86z"/>
			
				<linearGradient id="SVGID_5_" gradientUnits="userSpaceOnUse" x1="-1842.9946" y1="44.6973" x2="-1842.6959" y2="48.1434" gradientTransform="matrix(-0.9234 -0.384 -0.384 0.9234 -1660.1266 -705.441)">
				<stop  offset="0" style="stop-color:#D0D4CF"/>
				<stop  offset="1" style="stop-color:#746D69"/>
			</linearGradient>
			<path fill="url(#SVGID_5_)" d="M18.63,40.413c0.323,0.783,2.304,2.904,5.132,4.385c2.119,1.112,5.954,2.408,6.122,2.003
				c0.638,0.267,0.671,0.688,0.455,1.21c-0.219,0.524-0.625,0.561-1.203,0.593c-0.802,0.043-3.217-0.578-6.078-1.948
				c-3.213-1.541-4.748-3.24-5.209-4.363C17.385,41.167,17.409,39.906,18.63,40.413z"/>
			
				<linearGradient id="SVGID_6_" gradientUnits="userSpaceOnUse" x1="-1842.9937" y1="41.749" x2="-1842.6949" y2="45.1952" gradientTransform="matrix(-0.9234 -0.384 -0.384 0.9234 -1660.1266 -705.441)">
				<stop  offset="0" style="stop-color:#D0D4CF"/>
				<stop  offset="1" style="stop-color:#746D69"/>
			</linearGradient>
			<path fill="url(#SVGID_6_)" d="M19.763,37.69c0.322,0.783,2.305,2.902,5.133,4.386c2.119,1.111,5.953,2.408,6.123,1.998
				c0.639,0.268,0.67,0.692,0.451,1.214c-0.218,0.523-0.622,0.561-1.201,0.591c-0.802,0.043-3.218-0.575-6.078-1.946
				c-3.213-1.541-4.748-3.241-5.209-4.363C18.517,38.447,18.541,37.184,19.763,37.69z"/>
		</g>
	</g>
	
		<linearGradient id="SVGID_7_" gradientUnits="userSpaceOnUse" x1="-1842.8813" y1="37.8271" x2="-1842.8813" y2="41.8142" gradientTransform="matrix(-0.9234 -0.384 -0.384 0.9234 -1660.1266 -705.441)">
		<stop  offset="0" style="stop-color:#EEE4A6"/>
		<stop  offset="1" style="stop-color:#9C9E61"/>
	</linearGradient>
	<path fill="url(#SVGID_7_)" d="M27.325,37.053c3.139,1.306,5.3,3.158,4.793,4.379c-0.094,0.229-0.073,0.177-0.187,0.451
		c-2.33,0.132-4.668-0.221-6.889-1.145c-1.958-0.814-3.666-2.006-5.103-3.472c0.216-0.521,0.18-0.434,0.318-0.767
		C20.839,35.104,24.185,35.747,27.325,37.053z"/>
	
		<linearGradient id="SVGID_8_" gradientUnits="userSpaceOnUse" x1="-1844.0171" y1="5.6035" x2="-1840.9034" y2="41.5302" gradientTransform="matrix(-0.9234 -0.384 -0.384 0.9234 -1660.1266 -705.441)">
		<stop  offset="0" style="stop-color:#FFFCD1"/>
		<stop  offset="1" style="stop-color:#E60021"/>
	</linearGradient>
	<path fill="url(#SVGID_8_)" d="M15.632,16.133c-4.854,11.672,0.162,20.759,9.411,24.605c9.249,3.846,19.017,1.493,24.08-10.68
		C53.185,20.29,48.287,10.92,39.04,7.075C29.792,3.228,19.695,6.364,15.632,16.133z"/>
	
		<linearGradient id="SVGID_9_" gradientUnits="userSpaceOnUse" x1="-1846.1938" y1="39.8193" x2="-1851.7983" y2="26.2173" gradientTransform="matrix(-0.9234 -0.384 -0.384 0.9234 -1660.1266 -705.441)">
		<stop  offset="0" style="stop-color:#F5B3A5"/>
		<stop  offset="1" style="stop-color:#F0875D"/>
	</linearGradient>
	<path opacity="0.78" fill="url(#SVGID_9_)" d="M29.698,36.265c-0.639,0.702-2.793,1.877-2.561,3.051
		c0.144,0.712,0.88,0.57,1.397,0.652c0.717,0.114,1.359,0.346,2.1,0.347c2.776,0.005,5.404-1.692,7.216-3.647
		c1.074-1.159,2.403-3.499,2.268-5.123c-0.101-1.24-0.793-2.002-1.937-2.393c-0.955-0.325-2.563-0.346-3.352,0.381
		c-0.967,0.891-1.962,2.259-2.663,3.376C31.242,34.379,30.493,35.391,29.698,36.265z"/>
	
		<linearGradient id="SVGID_10_" gradientUnits="userSpaceOnUse" x1="-1830.8286" y1="36.2139" x2="-1833.3711" y2="30.3931" gradientTransform="matrix(-0.9234 -0.384 -0.384 0.9234 -1660.1266 -705.441)">
		<stop  offset="0" style="stop-color:#FBD7B7"/>
		<stop  offset="0.697" style="stop-color:#ED7240"/>
	</linearGradient>
	<path opacity="0.46" fill="url(#SVGID_10_)" d="M22.026,36.347c-3.003-5.405-3.547-11.89-3.084-16.199
		c-0.83,0.116-1.403-0.072-2.144-0.25c-0.915,4.655-0.389,11.584,3.64,17.015C20.926,36.777,21.42,36.572,22.026,36.347z"/>
	<g>
		
			<linearGradient id="SVGID_11_" gradientUnits="userSpaceOnUse" x1="-1842.8809" y1="37.3926" x2="-1842.8809" y2="42.5166" gradientTransform="matrix(-0.9234 -0.384 -0.384 0.9234 -1660.1266 -705.441)">
			<stop  offset="0" style="stop-color:#E73119"/>
			<stop  offset="1" style="stop-color:#CF131B"/>
		</linearGradient>
		<path fill="url(#SVGID_11_)" d="M27.658,36.421c-3.79-1.576-7.862-2.272-8.635-0.412c-0.146,0.347-0.148,0.354-0.281,0.675
			c1.741,1.678,3.876,3.047,6.301,4.055c2.698,1.124,5.443,1.718,8.099,1.692c0.094-0.222,0.089-0.21,0.197-0.471
			C34.016,40.335,31.449,37.999,27.658,36.421z"/>
	</g>
	<g opacity="0.79">
		
			<linearGradient id="SVGID_12_" gradientUnits="userSpaceOnUse" x1="-1881.835" y1="-24.2412" x2="-1878.4346" y2="-11.8678" gradientTransform="matrix(-0.9681 -0.2505 -0.2505 0.9681 -1788.2549 -439.1377)">
			<stop  offset="0" style="stop-color:#FFFCD6"/>
			<stop  offset="1" style="stop-color:#F08D62"/>
		</linearGradient>
		<path fill="url(#SVGID_12_)" d="M31.207,20.61c-3.983-2.068-8.038-5.344-9.813-9.598c-0.076-0.18-0.147-0.366-0.214-0.55
			c3.688-3.684,9.363-4.563,15.245-3.042c8.21,2.125,13.797,8.144,11.993,16.667c-1.584,0.407-3.332,0.462-4.687,0.451
			C39.484,24.497,34.917,22.539,31.207,20.61z"/>
	</g>
	<g>
		
			<linearGradient id="SVGID_13_" gradientUnits="userSpaceOnUse" x1="710.5439" y1="14.4756" x2="710.5439" y2="35.1048" gradientTransform="matrix(-0.9041 -0.4274 -0.4274 0.9041 675.2788 295.6118)">
			<stop  offset="0" style="stop-color:#FDE4BD"/>
			<stop  offset="1" style="stop-color:#ED7046"/>
		</linearGradient>
		<path fill="url(#SVGID_13_)" d="M16.389,17.016c3.296-6.971,9.49-9.487,11.771-10.006c2.465-0.561,2.75-0.111,1.347,0.919
			c-1.559,1.142-6.311,7.606-7.574,11.896c-1.039,3.526-6.265,5.658-6.433,3.242C15.171,21.212,15.416,19.077,16.389,17.016z"/>
	</g>
	<path fill="#FFFFFF" d="M20.265,38.88c0.766,1.293,2.032,2.43,3.904,3.465c1.871,1.034,4.022,1.83,5.406,2.069
		c-1.25-0.443-3.463-1.209-5.28-2.247C22.476,41.13,21.201,40.012,20.265,38.88z"/>
	<path fill="#FFFFFF" d="M19.149,41.563c0.768,1.291,2.034,2.431,3.906,3.463c1.87,1.036,4.023,1.828,5.404,2.068
		c-1.249-0.438-3.461-1.209-5.279-2.247C21.36,43.811,20.086,42.693,19.149,41.563z"/>
	<path fill="#FFFFFF" d="M18.016,44.289c0.768,1.291,2.033,2.43,3.905,3.465c1.871,1.031,4.023,1.824,5.405,2.066
		c-1.249-0.441-3.462-1.212-5.28-2.246C20.227,46.537,18.953,45.419,18.016,44.289z"/>
	<path fill="#FFFFFF" d="M16.882,47.015c0.767,1.291,2.033,2.43,3.905,3.465c0.881,0.486,1.825,0.918,2.721,1.266
		c1.007,0.391-0.778-0.409-2.596-1.444C19.092,49.264,17.818,48.145,16.882,47.015z"/>
	
		<ellipse transform="matrix(-0.8531 -0.5217 0.5217 -0.8531 71.8011 41.6317)" fill="#FFFFFF" cx="41.761" cy="10.709" rx="3.777" ry="0.991"/>
	<path fill="#FFFFFF" d="M38.338,25.905c-0.548-0.229-1.189-0.496-1.74-0.725c-0.739-0.307-1.321-0.548-1.321-0.548l-2.671-1.112
		c1.243-1.16,2.375-2.211,2.727-2.54c1.809-1.676,0.38-2.927-0.286-3.203c-0.662-0.277-1.064-0.442-2.061-0.858
		c-0.997-0.415-2.759-0.491-4.077,1.053c-1.02,1.197-2.859,3.315-4.162,4.937c-1.158,1.442-0.806,2.637,0.391,3.134
		c0.373,0.156,1.227,0.511,1.972,0.821c0.71,0.294,1.323,0.55,1.323,0.55l2.724,1.133c-1.682,1.597-3.402,3.232-4.138,3.934
		c-1.197,1.138,0.401,2.082,1.769,1.412c2.239-1.098,7.617-3.824,9.938-5.059C40.729,27.768,39.617,26.437,38.338,25.905z"/>
</g>
<g id="圖層_3" display="none">
	<linearGradient id="SVGID_14_" gradientUnits="userSpaceOnUse" x1="30.4585" y1="39.2568" x2="30.4585" y2="48.9664">
		<stop  offset="0" style="stop-color:#BBB195"/>
		<stop  offset="1" style="stop-color:#998B7A"/>
	</linearGradient>
	<polygon display="inline" fill="url(#SVGID_14_)" points="39.147,34.155 30.458,33.826 21.768,34.155 16.032,49.459 30.458,49.459 
		44.885,49.459 	"/>
	<g display="inline">
		<path fill="#998B79" d="M20.802,36.733l-1.856,4.952c6.681,0.469,17.602,0.696,22.995-0.084l-1.809-4.82L20.802,36.733z"/>
	</g>
	<linearGradient id="SVGID_15_" gradientUnits="userSpaceOnUse" x1="30.0566" y1="8.5752" x2="30.0566" y2="39.6104">
		<stop  offset="0" style="stop-color:#3E91B6"/>
		<stop  offset="1" style="stop-color:#2383B4"/>
	</linearGradient>
	<path display="inline" fill="url(#SVGID_15_)" d="M53.481,18.377c-1.16-5.127-4.979-7.991-10.312-8.664
		c-8.063-1.018-17.984-0.865-26.459,0c-5.898,0.601-9.292,4.386-10.31,8.664C5.182,23.5,4.783,26.244,5.243,30.703
		c0.485,4.689,4.227,8.082,9.151,8.596c8.401,0.877,23.58,1.097,31.094,0c6.075-0.889,8.48-2.465,9.289-7.461
		C55.527,27.201,54.661,23.61,53.481,18.377z"/>
	<linearGradient id="SVGID_16_" gradientUnits="userSpaceOnUse" x1="30.0576" y1="35.2402" x2="30.0576" y2="10.4463">
		<stop  offset="0" style="stop-color:#0074C1"/>
		<stop  offset="1" style="stop-color:#0067B1"/>
	</linearGradient>
	<path display="inline" fill="url(#SVGID_16_)" d="M32.479,35.035c-6.202,0-12.794-0.159-16.577-0.317
		c-4.141-0.173-7.461-3.06-7.896-6.867c-0.41-3.604-0.083-5.771,1.045-10.063c1.146-4.363,3.593-6.487,7.931-6.888
		c4.027-0.372,8.882-0.577,13.672-0.577c4.721,0,8.959,0.2,12.254,0.576c2.259,0.258,3.979,0.924,5.257,2.036
		c1.271,1.104,2.149,2.692,2.688,4.851l0.089,0.363c1.045,4.189,1.736,6.958,1.083,10.627c-0.373,2.079-1.081,3.408-2.303,4.308
		c-1.198,0.882-3.024,1.401-5.748,1.636C41.574,34.926,37.597,35.035,32.479,35.035L32.479,35.035z"/>
	<linearGradient id="SVGID_17_" gradientUnits="userSpaceOnUse" x1="30.0571" y1="12.3389" x2="30.0571" y2="33.3685">
		<stop  offset="0" style="stop-color:#E2E1E1"/>
		<stop  offset="1" style="stop-color:#C8C8C9"/>
	</linearGradient>
	<path display="inline" fill="url(#SVGID_17_)" d="M32.479,33.938c-6.183,0-12.754-0.158-16.525-0.315
		c-3.566-0.148-6.423-2.625-6.795-5.889c-0.392-3.439-0.074-5.527,1.018-9.681c1.023-3.895,3.092-5.707,6.918-6.061
		c3.992-0.369,8.806-0.572,13.56-0.572c4.676,0,8.866,0.196,12.115,0.567c3.983,0.456,5.998,2.208,6.955,6.05l0.091,0.363
		c1.013,4.06,1.684,6.742,1.067,10.193c-0.317,1.788-0.896,2.905-1.873,3.624c-1.014,0.748-2.646,1.195-5.138,1.41
		C41.502,33.83,37.563,33.938,32.479,33.938L32.479,33.938z"/>
	<g display="inline">
		<linearGradient id="SVGID_18_" gradientUnits="userSpaceOnUse" x1="12.4048" y1="11.3232" x2="12.4048" y2="33.4841">
			<stop  offset="0" style="stop-color:#F7F7F7"/>
			<stop  offset="0.5212" style="stop-color:#F1F1F1"/>
			<stop  offset="0.5697" style="stop-color:#F0F0F0"/>
			<stop  offset="1" style="stop-color:#ECECEB"/>
		</linearGradient>
		<path fill="url(#SVGID_18_)" d="M15.809,17.96c-2.295,0.087-4.256,0.197-5.694,0.327c-0.706,2.709-1.071,4.535-1.113,6.479
			c1.524-0.08,3.425-0.149,5.58-0.207C14.969,22.292,15.398,20.016,15.809,17.96z"/>
		<linearGradient id="SVGID_19_" gradientUnits="userSpaceOnUse" x1="13.7422" y1="11.3218" x2="13.7422" y2="33.4888">
			<stop  offset="0" style="stop-color:#F7F7F7"/>
			<stop  offset="0.5212" style="stop-color:#F1F1F1"/>
			<stop  offset="0.5697" style="stop-color:#F0F0F0"/>
			<stop  offset="1" style="stop-color:#ECECEB"/>
		</linearGradient>
		<path fill="url(#SVGID_19_)" d="M17.079,11.993c-3.549,0.333-5.583,1.925-6.673,5.277c1.479-0.125,3.399-0.229,5.605-0.315
			C16.417,14.962,16.793,13.231,17.079,11.993z"/>
		<linearGradient id="SVGID_20_" gradientUnits="userSpaceOnUse" x1="17.8896" y1="11.3228" x2="17.8896" y2="33.4853">
			<stop  offset="0" style="stop-color:#F7F7F7"/>
			<stop  offset="0.5212" style="stop-color:#F1F1F1"/>
			<stop  offset="0.5697" style="stop-color:#F0F0F0"/>
			<stop  offset="1" style="stop-color:#ECECEB"/>
		</linearGradient>
		<path fill="url(#SVGID_20_)" d="M14.412,33.403c0.494,0.121,1.009,0.196,1.541,0.219c1.336,0.056,3.027,0.11,4.926,0.16
			c0.014-2.356,0.211-5.322,0.488-8.355c-2.083,0.027-4.071,0.062-5.895,0.105C15.001,28.368,14.607,31.143,14.412,33.403z"/>
		<linearGradient id="SVGID_21_" gradientUnits="userSpaceOnUse" x1="20.0688" y1="11.3228" x2="20.0688" y2="33.4816">
			<stop  offset="0" style="stop-color:#F7F7F7"/>
			<stop  offset="0.5212" style="stop-color:#F1F1F1"/>
			<stop  offset="0.5697" style="stop-color:#F0F0F0"/>
			<stop  offset="1" style="stop-color:#ECECEB"/>
		</linearGradient>
		<path fill="url(#SVGID_21_)" d="M23.058,11.592c-1.703,0.077-3.348,0.18-4.889,0.307c-0.28,1.198-0.668,2.959-1.089,5.018
			c1.638-0.056,3.406-0.101,5.247-0.135C22.601,14.649,22.863,12.823,23.058,11.592z"/>
		<linearGradient id="SVGID_22_" gradientUnits="userSpaceOnUse" x1="11.7104" y1="11.3203" x2="11.7104" y2="33.4861">
			<stop  offset="0" style="stop-color:#F7F7F7"/>
			<stop  offset="0.5212" style="stop-color:#F1F1F1"/>
			<stop  offset="0.5697" style="stop-color:#F0F0F0"/>
			<stop  offset="1" style="stop-color:#ECECEB"/>
		</linearGradient>
		<path fill="url(#SVGID_22_)" d="M9.007,25.756c0.02,0.622,0.07,1.271,0.15,1.977c0.277,2.433,1.935,4.426,4.236,5.347
			c0.201-2.191,0.574-4.826,1.02-7.521C12.314,25.614,10.473,25.68,9.007,25.756z"/>
		<linearGradient id="SVGID_23_" gradientUnits="userSpaceOnUse" x1="45.75" y1="11.3232" x2="45.75" y2="33.4827">
			<stop  offset="0" style="stop-color:#F7F7F7"/>
			<stop  offset="0.5212" style="stop-color:#F1F1F1"/>
			<stop  offset="0.5697" style="stop-color:#F0F0F0"/>
			<stop  offset="1" style="stop-color:#ECECEB"/>
		</linearGradient>
		<path fill="url(#SVGID_23_)" d="M49.521,17.309c-1.028-3.337-3.03-4.896-6.753-5.322c-0.257-0.029-0.521-0.057-0.79-0.083
			c0.284,1.23,0.666,2.975,1.076,4.992C45.728,16.993,47.977,17.131,49.521,17.309z"/>
		<linearGradient id="SVGID_24_" gradientUnits="userSpaceOnUse" x1="38.9971" y1="11.3228" x2="38.9971" y2="33.4851">
			<stop  offset="0" style="stop-color:#F7F7F7"/>
			<stop  offset="0.5212" style="stop-color:#F1F1F1"/>
			<stop  offset="0.5697" style="stop-color:#F0F0F0"/>
			<stop  offset="1" style="stop-color:#ECECEB"/>
		</linearGradient>
		<path fill="url(#SVGID_24_)" d="M41.986,16.859c-0.427-2.09-0.818-3.87-1.102-5.058c-1.488-0.127-3.125-0.224-4.877-0.287
			c0.194,1.226,0.459,3.068,0.738,5.229C38.586,16.769,40.354,16.807,41.986,16.859z"/>
		<linearGradient id="SVGID_25_" gradientUnits="userSpaceOnUse" x1="26.0708" y1="11.3223" x2="26.0708" y2="33.487">
			<stop  offset="0" style="stop-color:#F7F7F7"/>
			<stop  offset="0.5212" style="stop-color:#F1F1F1"/>
			<stop  offset="0.5697" style="stop-color:#F0F0F0"/>
			<stop  offset="1" style="stop-color:#ECECEB"/>
		</linearGradient>
		<path fill="url(#SVGID_25_)" d="M23.379,16.763c1.755-0.028,3.566-0.047,5.383-0.055v-5.277c-1.564,0.017-3.122,0.057-4.642,0.116
			C23.927,12.743,23.661,14.587,23.379,16.763z"/>
		<linearGradient id="SVGID_26_" gradientUnits="userSpaceOnUse" x1="32.75" y1="11.3228" x2="32.75" y2="33.4844">
			<stop  offset="0" style="stop-color:#F7F7F7"/>
			<stop  offset="0.5212" style="stop-color:#F1F1F1"/>
			<stop  offset="0.5697" style="stop-color:#F0F0F0"/>
			<stop  offset="1" style="stop-color:#ECECEB"/>
		</linearGradient>
		<path fill="url(#SVGID_26_)" d="M35.693,16.729c-0.283-2.204-0.554-4.063-0.745-5.25c-1.374-0.039-2.81-0.059-4.295-0.059
			c-0.282,0-0.565,0.001-0.847,0.002v5.282C31.794,16.7,33.776,16.708,35.693,16.729z"/>
		<linearGradient id="SVGID_27_" gradientUnits="userSpaceOnUse" x1="47.1611" y1="11.3223" x2="47.1611" y2="33.4852">
			<stop  offset="0" style="stop-color:#F7F7F7"/>
			<stop  offset="0.5212" style="stop-color:#F1F1F1"/>
			<stop  offset="0.5697" style="stop-color:#F0F0F0"/>
			<stop  offset="1" style="stop-color:#ECECEB"/>
		</linearGradient>
		<path fill="url(#SVGID_27_)" d="M44.483,24.489c2.574,0.058,4.831,0.137,6.582,0.237c-0.153-1.921-0.641-3.872-1.251-6.326
			l-0.016-0.061c-1.453-0.192-3.748-0.338-6.542-0.441C43.667,19.95,44.097,22.223,44.483,24.489z"/>
		<linearGradient id="SVGID_28_" gradientUnits="userSpaceOnUse" x1="25.6357" y1="11.3232" x2="25.6357" y2="33.4847">
			<stop  offset="0" style="stop-color:#F7F7F7"/>
			<stop  offset="0.5212" style="stop-color:#F1F1F1"/>
			<stop  offset="0.5697" style="stop-color:#F0F0F0"/>
			<stop  offset="1" style="stop-color:#ECECEB"/>
		</linearGradient>
		<path fill="url(#SVGID_28_)" d="M22.509,24.414c2.032-0.024,4.137-0.04,6.254-0.047V17.71c-1.862,0.008-3.716,0.027-5.511,0.055
			C22.994,19.826,22.732,22.121,22.509,24.414z"/>
		<linearGradient id="SVGID_29_" gradientUnits="userSpaceOnUse" x1="18.9214" y1="11.3223" x2="18.9214" y2="33.4847">
			<stop  offset="0" style="stop-color:#F7F7F7"/>
			<stop  offset="0.5212" style="stop-color:#F1F1F1"/>
			<stop  offset="0.5697" style="stop-color:#F0F0F0"/>
			<stop  offset="1" style="stop-color:#ECECEB"/>
		</linearGradient>
		<path fill="url(#SVGID_29_)" d="M16.876,17.921c-0.412,2.051-0.843,4.333-1.234,6.612c1.809-0.043,3.77-0.078,5.819-0.106
			c0.221-2.288,0.482-4.579,0.739-6.643C20.324,17.818,18.528,17.864,16.876,17.921z"/>
		<linearGradient id="SVGID_30_" gradientUnits="userSpaceOnUse" x1="47.8838" y1="11.3213" x2="47.8838" y2="33.4851">
			<stop  offset="0" style="stop-color:#F7F7F7"/>
			<stop  offset="0.5212" style="stop-color:#F1F1F1"/>
			<stop  offset="0.5697" style="stop-color:#F0F0F0"/>
			<stop  offset="1" style="stop-color:#ECECEB"/>
		</linearGradient>
		<path fill="url(#SVGID_30_)" d="M51.114,25.719c-1.701-0.098-3.92-0.174-6.464-0.231c0.475,2.854,0.867,5.641,1.061,7.911
			c1.489-0.253,2.561-0.637,3.298-1.182c0.978-0.719,1.556-1.836,1.873-3.624C51.06,27.587,51.132,26.647,51.114,25.719z"/>
		<linearGradient id="SVGID_31_" gradientUnits="userSpaceOnUse" x1="40.1504" y1="11.3223" x2="40.1504" y2="33.4858">
			<stop  offset="0" style="stop-color:#F7F7F7"/>
			<stop  offset="0.5212" style="stop-color:#F1F1F1"/>
			<stop  offset="0.5697" style="stop-color:#F0F0F0"/>
			<stop  offset="1" style="stop-color:#ECECEB"/>
		</linearGradient>
		<path fill="url(#SVGID_31_)" d="M42.188,17.861c-1.649-0.052-3.442-0.091-5.313-0.117c0.257,2.063,0.516,4.354,0.737,6.643
			c2.033,0.017,3.99,0.044,5.813,0.08C43.034,22.188,42.601,19.908,42.188,17.861z"/>
		<linearGradient id="SVGID_32_" gradientUnits="userSpaceOnUse" x1="33.1865" y1="11.3228" x2="33.1865" y2="33.4845">
			<stop  offset="0" style="stop-color:#F7F7F7"/>
			<stop  offset="0.5212" style="stop-color:#F1F1F1"/>
			<stop  offset="0.5697" style="stop-color:#F0F0F0"/>
			<stop  offset="1" style="stop-color:#ECECEB"/>
		</linearGradient>
		<path fill="url(#SVGID_32_)" d="M36.566,24.379c-0.223-2.294-0.487-4.589-0.746-6.648c-1.955-0.021-3.983-0.029-6.014-0.025v6.658
			C32.081,24.358,34.362,24.364,36.566,24.379z"/>
		<linearGradient id="SVGID_33_" gradientUnits="userSpaceOnUse" x1="25.3423" y1="11.3213" x2="25.3423" y2="33.4852">
			<stop  offset="0" style="stop-color:#F7F7F7"/>
			<stop  offset="0.5212" style="stop-color:#F1F1F1"/>
			<stop  offset="0.5697" style="stop-color:#F0F0F0"/>
			<stop  offset="1" style="stop-color:#ECECEB"/>
		</linearGradient>
		<path fill="url(#SVGID_33_)" d="M21.921,33.809c2.125,0.05,4.465,0.09,6.841,0.111v-8.554c-2.151,0.007-4.29,0.023-6.349,0.047
			C22.133,28.464,21.934,31.447,21.921,33.809z"/>
		<linearGradient id="SVGID_34_" gradientUnits="userSpaceOnUse" x1="33.4814" y1="11.3213" x2="33.4814" y2="33.4851">
			<stop  offset="0" style="stop-color:#F7F7F7"/>
			<stop  offset="0.5212" style="stop-color:#F1F1F1"/>
			<stop  offset="0.5697" style="stop-color:#F0F0F0"/>
			<stop  offset="1" style="stop-color:#ECECEB"/>
		</linearGradient>
		<path fill="url(#SVGID_34_)" d="M29.806,25.363v8.564c0.892,0.006,1.785,0.01,2.672,0.01l0,0c1.689,0,3.255-0.012,4.678-0.035
			c-0.006-2.384-0.208-5.42-0.495-8.524C34.428,25.363,32.115,25.358,29.806,25.363z"/>
		<linearGradient id="SVGID_35_" gradientUnits="userSpaceOnUse" x1="41.1924" y1="11.3228" x2="41.1924" y2="33.4848">
			<stop  offset="0" style="stop-color:#F7F7F7"/>
			<stop  offset="0.5212" style="stop-color:#F1F1F1"/>
			<stop  offset="0.5697" style="stop-color:#F0F0F0"/>
			<stop  offset="1" style="stop-color:#ECECEB"/>
		</linearGradient>
		<path fill="url(#SVGID_35_)" d="M37.707,25.386c0.283,3.091,0.484,6.114,0.493,8.496c2.368-0.05,4.286-0.137,5.671-0.255
			c0.28-0.024,0.548-0.052,0.807-0.082c-0.194-2.304-0.599-5.161-1.083-8.079C41.756,25.43,39.771,25.404,37.707,25.386z"/>
		<g>
			<path fill="#AAA9A9" d="M29.634,26.003c0,0-0.368,0-0.871,0v7.021c0.369,0.077,0.73,0.112,1.042,0.112c0.001,0,0.001,0,0.002,0
				v-7.133H29.634z"/>
			<path fill="#AAA9A9" d="M36.679,25.568c0.113,1.251,0.215,2.488,0.293,3.675c0.339,0,0.678,0,0.99,0c0.017,0,0.036,0,0.053,0
				c-0.062-0.917-0.134-1.865-0.215-2.826C37.443,26.147,37.066,25.86,36.679,25.568z"/>
			<path fill="#AAA9A9" d="M35.083,24.37c-1.225-0.005-2.467-0.008-3.713-0.008c0.218,0.316,0.451,0.655,0.688,1
				c1.473,0,2.934,0.006,4.364,0.015C35.979,25.041,35.525,24.7,35.083,24.37z"/>
			<g>
				<linearGradient id="SVGID_36_" gradientUnits="userSpaceOnUse" x1="33.0371" y1="32.8428" x2="32.5599" y2="22.5264">
					<stop  offset="0" style="stop-color:#ECECEB"/>
					<stop  offset="1" style="stop-color:#BEBDBD"/>
				</linearGradient>
				<path fill="url(#SVGID_36_)" d="M31.37,24.362c1.246,0,2.488,0.003,3.713,0.008c-1.07-0.802-2.069-1.543-2.713-2.012
					c-0.978-0.714-2.765-0.553-2.115,0.389C30.485,23.08,30.892,23.67,31.37,24.362z"/>
				<linearGradient id="SVGID_37_" gradientUnits="userSpaceOnUse" x1="26.9268" y1="33.0781" x2="26.451" y2="22.793">
					<stop  offset="0" style="stop-color:#ECECEB"/>
					<stop  offset="1" style="stop-color:#BEBDBD"/>
				</linearGradient>
				<path fill="url(#SVGID_37_)" d="M26.165,26.003c-1.26,0-2.022,0.604-1.521,1.711c0.563,1.245,1.424,2.905,1.894,3.838
					c0.427,0.847,1.35,1.284,2.225,1.471v-7.021c-0.163,0-0.339,0-0.522,0C27.458,26.003,26.559,26.003,26.165,26.003z"/>
				<linearGradient id="SVGID_38_" gradientUnits="userSpaceOnUse" x1="33.4629" y1="32.7822" x2="32.9875" y2="22.5064">
					<stop  offset="0" style="stop-color:#ECECEB"/>
					<stop  offset="1" style="stop-color:#BEBDBD"/>
				</linearGradient>
				<path fill="url(#SVGID_38_)" d="M36.423,25.376c-1.431-0.009-2.892-0.014-4.364-0.015c0.147,0.212,0.295,0.426,0.442,0.641
					h-2.695v7.133c1.049,0,1.467,0,2.167,0c0.701,0,2.449-0.378,1.453-1.776c-0.196-0.274-0.816-1.15-1.501-2.116h2.812
					c0,0,0.612,0,1.391,0c0.266,0,0.555,0,0.844,0c-0.078-1.187-0.18-2.424-0.293-3.675C36.594,25.504,36.51,25.441,36.423,25.376z"
					/>
				<linearGradient id="SVGID_39_" gradientUnits="userSpaceOnUse" x1="39.1191" y1="32.5391" x2="38.6435" y2="22.2572">
					<stop  offset="0" style="stop-color:#ECECEB"/>
					<stop  offset="1" style="stop-color:#BEBDBD"/>
				</linearGradient>
				<path fill="url(#SVGID_39_)" d="M39.402,27.65c-0.414-0.325-0.976-0.755-1.603-1.233c0.081,0.961,0.153,1.909,0.215,2.826
					C39.348,29.229,40.784,28.729,39.402,27.65z"/>
			</g>
		</g>
	</g>
	<g display="inline">
		<linearGradient id="SVGID_40_" gradientUnits="userSpaceOnUse" x1="11.7002" y1="12.9717" x2="12.5769" y2="22.9445">
			<stop  offset="0" style="stop-color:#F7F7F7"/>
			<stop  offset="1" style="stop-color:#E3E2E2"/>
		</linearGradient>
		<path fill="url(#SVGID_40_)" d="M9.021,24.244c1.841-0.447,3.801-0.874,5.839-1.274c0.309-1.731,0.635-3.435,0.948-5.01
			c-2.295,0.087-4.256,0.197-5.694,0.327C9.472,20.752,9.113,22.486,9.021,24.244z"/>
		<linearGradient id="SVGID_41_" gradientUnits="userSpaceOnUse" x1="13.584" y1="12.8315" x2="14.4607" y2="22.8036">
			<stop  offset="0" style="stop-color:#F7F7F7"/>
			<stop  offset="1" style="stop-color:#E3E2E2"/>
		</linearGradient>
		<path fill="url(#SVGID_41_)" d="M17.079,11.993c-3.549,0.333-5.583,1.925-6.673,5.277c1.479-0.125,3.399-0.229,5.605-0.315
			C16.417,14.962,16.793,13.231,17.079,11.993z"/>
		<linearGradient id="SVGID_42_" gradientUnits="userSpaceOnUse" x1="19.896" y1="12.2842" x2="20.7772" y2="22.3073">
			<stop  offset="0" style="stop-color:#F7F7F7"/>
			<stop  offset="1" style="stop-color:#E3E2E2"/>
		</linearGradient>
		<path fill="url(#SVGID_42_)" d="M18.169,11.898c-0.28,1.198-0.668,2.959-1.089,5.018c1.638-0.056,3.406-0.101,5.247-0.135
			c0.274-2.132,0.536-3.958,0.731-5.189C21.355,11.668,19.71,11.772,18.169,11.898z"/>
		<linearGradient id="SVGID_43_" gradientUnits="userSpaceOnUse" x1="45.3574" y1="10.1479" x2="46.2401" y2="20.1885">
			<stop  offset="0" style="stop-color:#F7F7F7"/>
			<stop  offset="1" style="stop-color:#E3E2E2"/>
		</linearGradient>
		<path fill="url(#SVGID_43_)" d="M42.769,11.987c-0.257-0.029-0.521-0.057-0.79-0.083c0.284,1.23,0.666,2.975,1.076,4.992
			c2.673,0.098,4.922,0.235,6.467,0.414C48.493,13.972,46.491,12.413,42.769,11.987z"/>
		<linearGradient id="SVGID_44_" gradientUnits="userSpaceOnUse" x1="38.6914" y1="10.7114" x2="39.5732" y2="20.7418">
			<stop  offset="0" style="stop-color:#F7F7F7"/>
			<stop  offset="1" style="stop-color:#E3E2E2"/>
		</linearGradient>
		<path fill="url(#SVGID_44_)" d="M40.885,11.801c-1.488-0.127-3.125-0.224-4.877-0.287c0.194,1.226,0.459,3.068,0.738,5.229
			c1.84,0.025,3.607,0.063,5.24,0.116C41.56,14.769,41.168,12.989,40.885,11.801z"/>
		<linearGradient id="SVGID_45_" gradientUnits="userSpaceOnUse" x1="25.8677" y1="11.7866" x2="26.7488" y2="21.8095">
			<stop  offset="0" style="stop-color:#F7F7F7"/>
			<stop  offset="1" style="stop-color:#E3E2E2"/>
		</linearGradient>
		<path fill="url(#SVGID_45_)" d="M23.379,16.763c1.755-0.028,3.566-0.047,5.383-0.055v-5.277c-1.564,0.017-3.122,0.057-4.642,0.116
			C23.927,12.743,23.661,14.587,23.379,16.763z"/>
		<linearGradient id="SVGID_46_" gradientUnits="userSpaceOnUse" x1="32.2695" y1="11.2495" x2="33.1514" y2="21.2803">
			<stop  offset="0" style="stop-color:#F7F7F7"/>
			<stop  offset="1" style="stop-color:#E3E2E2"/>
		</linearGradient>
		<path fill="url(#SVGID_46_)" d="M35.693,16.729c-0.283-2.204-0.554-4.063-0.745-5.25c-1.374-0.039-2.81-0.059-4.295-0.059
			c-0.282,0-0.565,0.001-0.847,0.002v5.282C31.794,16.7,33.776,16.708,35.693,16.729z"/>
		<linearGradient id="SVGID_47_" gradientUnits="userSpaceOnUse" x1="45.958" y1="10.0225" x2="46.8457" y2="20.1204">
			<stop  offset="0" style="stop-color:#F7F7F7"/>
			<stop  offset="1" style="stop-color:#E3E2E2"/>
		</linearGradient>
		<path fill="url(#SVGID_47_)" d="M49.814,18.4l-0.016-0.061c-1.453-0.192-3.748-0.338-6.542-0.441
			c0.125,0.624,0.251,1.27,0.378,1.927c2.484-0.01,4.728,0.089,6.606,0.314C50.109,19.585,49.966,19.008,49.814,18.4z"/>
		<linearGradient id="SVGID_48_" gradientUnits="userSpaceOnUse" x1="25.0952" y1="11.8516" x2="25.9724" y2="21.8299">
			<stop  offset="0" style="stop-color:#F7F7F7"/>
			<stop  offset="1" style="stop-color:#E3E2E2"/>
		</linearGradient>
		<path fill="url(#SVGID_48_)" d="M22.8,21.608c1.981-0.294,3.98-0.558,5.962-0.788v-3.11c-1.862,0.008-3.716,0.027-5.511,0.055
			C23.1,18.981,22.947,20.278,22.8,21.608z"/>
		<linearGradient id="SVGID_49_" gradientUnits="userSpaceOnUse" x1="18.3867" y1="12.415" x2="19.2636" y2="22.3897">
			<stop  offset="0" style="stop-color:#F7F7F7"/>
			<stop  offset="1" style="stop-color:#E3E2E2"/>
		</linearGradient>
		<path fill="url(#SVGID_49_)" d="M15.954,22.759c1.881-0.355,3.819-0.688,5.781-0.99c0.15-1.378,0.309-2.724,0.466-3.985
			c-1.876,0.035-3.672,0.081-5.324,0.137C16.573,19.439,16.257,21.083,15.954,22.759z"/>
		<linearGradient id="SVGID_50_" gradientUnits="userSpaceOnUse" x1="39.0078" y1="10.6201" x2="39.8944" y2="20.7053">
			<stop  offset="0" style="stop-color:#F7F7F7"/>
			<stop  offset="1" style="stop-color:#E3E2E2"/>
		</linearGradient>
		<path fill="url(#SVGID_50_)" d="M36.875,17.744c0.093,0.745,0.185,1.521,0.277,2.315c1.886-0.119,3.707-0.195,5.424-0.223
			c-0.128-0.676-0.259-1.337-0.388-1.976C40.539,17.809,38.746,17.77,36.875,17.744z"/>
		<linearGradient id="SVGID_51_" gradientUnits="userSpaceOnUse" x1="32.1533" y1="11.2588" x2="33.0311" y2="21.2439">
			<stop  offset="0" style="stop-color:#F7F7F7"/>
			<stop  offset="1" style="stop-color:#E3E2E2"/>
		</linearGradient>
		<path fill="url(#SVGID_51_)" d="M29.806,17.706v2.997c2.142-0.236,4.258-0.429,6.305-0.574c-0.095-0.824-0.194-1.627-0.291-2.398
			C33.865,17.71,31.837,17.702,29.806,17.706z"/>
	</g>
	<g display="inline">
		<g>
			<linearGradient id="SVGID_52_" gradientUnits="userSpaceOnUse" x1="32.2266" y1="-9.5063" x2="32.2266" y2="42.9358">
				<stop  offset="0" style="stop-color:#F5D423"/>
				<stop  offset="1" style="stop-color:#E09F15"/>
			</linearGradient>
			<path fill="url(#SVGID_52_)" d="M37.962,12.299c-0.578,0-1.252,0-1.834,0c-0.778,0-1.391,0-1.391,0h-2.812
				c0.685-1.426,1.305-2.718,1.501-3.122c0.996-2.064-0.752-2.622-1.453-2.622c-0.7,0-1.119,0-2.169,0
				c-1.05,0-2.66,0.558-3.267,2.336c-0.47,1.377-1.331,3.828-1.894,5.665c-0.501,1.634,0.261,2.526,1.521,2.526
				c0.394,0,1.292,0,2.076,0c0.749,0,1.393,0,1.393,0h2.867c-0.913,1.952-1.846,3.949-2.246,4.803
				c-0.65,1.392,1.137,1.629,2.115,0.576c1.6-1.723,5.41-5.94,7.032-7.81C40.803,13.038,39.311,12.299,37.962,12.299z"/>
			<g>
				<linearGradient id="SVGID_53_" gradientUnits="userSpaceOnUse" x1="32.0078" y1="-6.0298" x2="32.0078" y2="28.9576">
					<stop  offset="0" style="stop-color:#F5D423"/>
					<stop  offset="1" style="stop-color:#EAD13E"/>
				</linearGradient>
				<path fill="url(#SVGID_53_)" d="M39.525,12.711c-0.392-0.277-0.99-0.412-1.563-0.412c-0.578,0-1.252,0-1.834,0
					c-0.778,0-1.391,0-1.391,0h-2.812c0.685-1.426,1.305-2.718,1.501-3.122c0.996-2.064-0.752-2.622-1.453-2.622
					c-0.7,0-1.119,0-2.169,0c-1.05,0-2.66,0.558-3.267,2.336c-0.47,1.377-1.331,3.828-1.894,5.665
					c-0.118,0.385-0.165,0.728-0.153,1.028C27.077,16.253,37.558,14.575,39.525,12.711z"/>
			</g>
		</g>
		<path fill="#F4F18C" d="M30.379,6.977c-3.051,0-2.975,1.646-2.975,1.646s0.503-0.987,2.975-0.987s2.936,0.914,2.936,0.914
			S33.431,6.977,30.379,6.977z"/>
	</g>
	<g display="inline">
		<path fill="#1963AF" d="M14.394,39.299c8.401,0.877,23.58,1.097,31.094,0c6.075-0.889,8.48-2.465,9.289-7.461
			c0.212-1.309,0.295-2.536,0.276-3.739c-0.541,3.851-3.456,8.28-9.07,8.932c-8.817,1.024-23.419,1.098-31.852,0
			c-5.567-0.723-8.491-5.021-9.062-8.854c0.023,0.794,0.081,1.625,0.174,2.527C5.728,35.392,9.47,38.784,14.394,39.299z"/>
	</g>
	<linearGradient id="SVGID_54_" gradientUnits="userSpaceOnUse" x1="30.1431" y1="45.9424" x2="30.1431" y2="53.1951">
		<stop  offset="0" style="stop-color:#007CC8"/>
		<stop  offset="1" style="stop-color:#004C81"/>
	</linearGradient>
	<path display="inline" fill="url(#SVGID_54_)" d="M49.801,51.009c0,1.515-1.296,2.742-2.897,2.742H13.382
		c-1.6,0-2.896-1.228-2.896-2.742V48.66c0-1.516,1.296-2.743,2.896-2.743h33.521c1.602,0,2.897,1.228,2.897,2.743V51.009z"/>
	<path display="inline" fill="#D6E7AA" d="M48.825,48.441c0-1.028-0.883-1.864-1.971-1.864H13.454c-1.087,0-1.971,0.836-1.971,1.864
		c0,0,0.638-1.171,2.038-1.171c1.4,0,32.072,0,33.186,0C47.82,47.271,48.825,48.441,48.825,48.441z"/>
	<g display="inline">
		<linearGradient id="SVGID_55_" gradientUnits="userSpaceOnUse" x1="30.1538" y1="51.1279" x2="30.1538" y2="52.981">
			<stop  offset="0" style="stop-color:#0095C9"/>
			<stop  offset="1" style="stop-color:#005B9B"/>
		</linearGradient>
		<path fill="url(#SVGID_55_)" d="M46.707,52.289c-1.445,0-31.931,0-33.186,0c-1.256,0-2.038-1.169-2.038-1.169
			c0,1.028,0.884,1.865,1.971,1.865h33.401c1.088,0,1.971-0.837,1.971-1.865C48.825,51.12,48.151,52.289,46.707,52.289z"/>
	</g>
</g>
<g id="圖層_2" display="none">
	<linearGradient id="SVGID_56_" gradientUnits="userSpaceOnUse" x1="30.333" y1="5.1875" x2="30.333" y2="10.475">
		<stop  offset="0" style="stop-color:#BEC3BE"/>
		<stop  offset="1" style="stop-color:#746D69"/>
	</linearGradient>
	<path display="inline" fill="url(#SVGID_56_)" d="M37.274,9.118c0,1.089-0.896,1.973-1.999,1.973h-9.885
		c-1.104,0-1.999-0.884-1.999-1.973V7.162c0-1.091,0.895-1.974,1.999-1.974h9.885c1.104,0,1.999,0.883,1.999,1.974V9.118z"/>
	<linearGradient id="SVGID_57_" gradientUnits="userSpaceOnUse" x1="15.1968" y1="31.9922" x2="47.4825" y2="31.9922">
		<stop  offset="0" style="stop-color:#5EA832"/>
		<stop  offset="0.0459" style="stop-color:#71B134"/>
		<stop  offset="0.1313" style="stop-color:#89BD3A"/>
		<stop  offset="0.2269" style="stop-color:#99C63E"/>
		<stop  offset="0.3401" style="stop-color:#A2CB41"/>
		<stop  offset="0.5152" style="stop-color:#A5CD42"/>
		<stop  offset="0.6363" style="stop-color:#A1CB41"/>
		<stop  offset="0.7617" style="stop-color:#93C33D"/>
		<stop  offset="0.8888" style="stop-color:#7CB636"/>
		<stop  offset="1" style="stop-color:#5EA832"/>
	</linearGradient>
	<path display="inline" fill="url(#SVGID_57_)" d="M46.348,49.326c0,3.239-2.656,5.861-5.935,5.861H20.49
		c-3.278,0-5.935-2.622-5.935-5.861V14.66c0-3.238,2.657-5.862,5.935-5.862h19.923c3.278,0,5.935,2.625,5.935,5.862V49.326z"/>
	<path display="inline" fill="#FFFFFF" d="M35.314,25.184c-0.001,0-0.005-0.001-0.006-0.002c-0.045-0.015-0.091-0.029-0.137-0.041
		c-0.002,0-0.002-0.001-0.003-0.001c-0.048-0.012-0.097-0.022-0.146-0.032h-0.001c-0.046-0.009-0.093-0.016-0.14-0.021
		c-0.006-0.001-0.014-0.001-0.02-0.002c-0.046-0.006-0.091-0.01-0.136-0.013c-0.008-0.001-0.017-0.001-0.023-0.001
		c-0.047-0.003-0.094-0.005-0.141-0.005c-0.411,0-0.892,0-1.306,0c-0.556,0-0.99,0-0.99,0h-2.004
		c0.488-1.061,0.929-2.021,1.069-2.321c0.71-1.535-0.536-1.95-1.035-1.95c-0.499,0-0.798,0-1.546,0
		c-0.749,0-1.896,0.415-2.329,1.737c-0.334,1.024-0.947,2.846-1.349,4.212c-0.021,0.069-0.038,0.137-0.052,0.203
		c0,0.003-0.001,0.006-0.002,0.009c-0.014,0.064-0.025,0.128-0.034,0.189c0,0.003,0,0.005-0.001,0.008
		c-0.009,0.062-0.015,0.122-0.018,0.18c0,0.001,0,0.002,0,0.004c-0.046,0.836,0.452,1.286,1.191,1.286c0.281,0,0.921,0,1.479,0
		c0.535,0,0.994,0,0.994,0h2.043c-0.649,1.45-1.315,2.936-1.6,3.572c-0.463,1.033,0.811,1.211,1.507,0.428
		c1.14-1.28,3.856-4.416,5.012-5.808C36.324,25.934,35.945,25.404,35.314,25.184z"/>
	<g display="inline">
		<path fill="#D1E39B" d="M44.606,11.692c0-1.055-2.518-2.326-4.137-2.326H20.483c-2.002,0-4.445,1.271-4.445,2.326
			c0,0,1.846-1.202,4.426-1.202c2.58,0,17.679,0,19.733,0C41.866,10.49,44.606,11.692,44.606,11.692z"/>
		<g>
			<linearGradient id="SVGID_58_" gradientUnits="userSpaceOnUse" x1="15.543" y1="53.2832" x2="45.4638" y2="53.2832">
				<stop  offset="0" style="stop-color:#67A031"/>
				<stop  offset="0.5091" style="stop-color:#81BB26"/>
				<stop  offset="1" style="stop-color:#67A031"/>
			</linearGradient>
			<path fill="url(#SVGID_58_)" d="M40.039,53.227c-2.664,0-17.274,0-19.589,0c-2.313,0-4.239-1.199-4.239-1.199
				c0,1.056,2.112,2.512,4.115,2.512h19.987c2.002,0,4.294-1.456,4.294-2.512C44.606,52.027,42.702,53.227,40.039,53.227z"/>
		</g>
	</g>
	<path display="inline" fill="#E0EDBF" d="M38.56,46.737H22.875c-1.884,0-3.417-1.515-3.417-3.375V19.07
		c0-1.861,1.533-3.375,3.417-3.375H38.56c1.885,0,3.417,1.513,3.417,3.375v24.292C41.977,45.223,40.444,46.737,38.56,46.737
		L38.56,46.737z M22.875,17.944c-0.628,0-1.139,0.505-1.139,1.125v24.292c0,0.62,0.511,1.124,1.139,1.124H38.56
		c0.629,0,1.14-0.504,1.14-1.124V19.07c0-0.621-0.511-1.125-1.14-1.125H22.875L22.875,17.944z"/>
	<rect x="23.814" y="36.053" display="inline" fill="#E0EDBF" width="14.402" height="2.485"/>
	<rect x="23.814" y="40.169" display="inline" fill="#E0EDBF" width="14.402" height="2.483"/>
</g>
</svg>
