<?xml version="1.0" encoding="utf-8"?>
<!-- Generator: Adobe Illustrator 14.0.0, SVG Export Plug-In . SVG Version: 6.00 Build 43363)  -->
<!DOCTYPE svg PUBLIC "-//W3C//DTD SVG 1.1//EN" "http://www.w3.org/Graphics/SVG/1.1/DTD/svg11.dtd">
<svg version="1.1" id="圖層_1" xmlns="http://www.w3.org/2000/svg" xmlns:xlink="http://www.w3.org/1999/xlink" x="0px" y="0px"
	 width="30px" height="30px" viewBox="0 0 30 30" enable-background="new 0 0 30 30" xml:space="preserve">
<linearGradient id="SVGID_1_" gradientUnits="userSpaceOnUse" x1="14.7495" y1="-0.7002" x2="14.7495" y2="29.4169" gradientTransform="matrix(-1 0 0 1 29.833 0)">
	<stop  offset="0.3576" style="stop-color:#E3E3E3"/>
	<stop  offset="1" style="stop-color:#A1A1A1"/>
</linearGradient>
<path fill="url(#SVGID_1_)" stroke="#7C7B7C" stroke-width="0.25" d="M1.333,20.166c0,1.105,0.896,2,2,2h23.501c1.104,0,2-0.895,2-2
	V3c0-1.104-0.896-2-2-2H3.333c-1.104,0-2,0.896-2,2V20.166z"/>
<linearGradient id="SVGID_2_" gradientUnits="userSpaceOnUse" x1="60.167" y1="-0.7002" x2="60.167" y2="29.4169">
	<stop  offset="0.3576" style="stop-color:#E3E3E3"/>
	<stop  offset="1" style="stop-color:#A1A1A1"/>
</linearGradient>
<path fill="url(#SVGID_2_)" stroke="#7C7B7C" stroke-width="0.25" d="M71.834,20.166c0,1.105-0.896,2-2,2H50.5c-1.104,0-2-0.895-2-2
	V3c0-1.104,0.896-2,2-2h19.334c1.104,0,2,0.896,2,2V20.166z"/>
<rect x="19.334" y="4.833" fill="#8C8C8C" stroke="#666666" width="4.333" height="13.501"/>
<polygon fill="#8C8C8C" stroke="#666666" points="5.459,7.585 8.313,4.729 15.168,11.583 8.313,18.438 5.459,15.583 9.457,11.583 
	"/>
<polygon fill="#8C8C8C" stroke="#666666" points="64.041,7.585 61.187,4.729 54.332,11.583 61.187,18.438 64.041,15.583 
	60.043,11.583 "/>
</svg>
