<?xml version="1.0" encoding="utf-8"?>
<!-- Generator: Adobe Illustrator 16.0.0, SVG Export Plug-In . SVG Version: 6.00 Build 0)  -->
<!DOCTYPE svg PUBLIC "-//W3C//DTD SVG 1.1//EN" "http://www.w3.org/Graphics/SVG/1.1/DTD/svg11.dtd">
<svg version="1.1" xmlns="http://www.w3.org/2000/svg" xmlns:xlink="http://www.w3.org/1999/xlink" x="0px" y="0px" width="30px"
	 height="30px" viewBox="0 0 30 30" enable-background="new 0 0 30 30" xml:space="preserve">
<g id="圖層_1_拷貝" display="none">
	<circle display="inline" fill="#31462B" cx="15" cy="15" r="15"/>
	<g display="inline">
		
			<rect x="4.3" y="14.2" transform="matrix(0.7071 -0.7071 0.7071 0.7071 -6.2134 15.0006)" fill="#FFFFFF" width="21.3" height="1.6"/>
		
			<rect x="4.3" y="14.2" transform="matrix(-0.7071 -0.7071 0.7071 -0.7071 15.0002 36.2138)" fill="#FFFFFF" width="21.3" height="1.6"/>
	</g>
</g>
<g id="圖層_1" display="none">
	<circle display="inline" fill="#406F34" cx="15" cy="15" r="15"/>
	<g display="inline">
		
			<rect x="4.3" y="14.2" transform="matrix(0.7071 -0.7071 0.7071 0.7071 -6.2134 15.0006)" fill="#FFFFFF" width="21.3" height="1.6"/>
		
			<rect x="4.3" y="14.2" transform="matrix(-0.7071 -0.7071 0.7071 -0.7071 15.0002 36.2138)" fill="#FFFFFF" width="21.3" height="1.6"/>
	</g>
</g>
<g id="圖層_1_拷貝_3" display="none">
	<circle display="inline" fill="#31462B" cx="15" cy="15" r="15"/>
	<g display="inline">
		
			<rect x="4.3" y="14.2" transform="matrix(0.7071 -0.7071 0.7071 0.7071 -6.2134 15.0006)" fill="#FFFFFF" width="21.3" height="1.6"/>
		
			<rect x="4.3" y="14.2" transform="matrix(-0.7071 -0.7071 0.7071 -0.7071 15.0002 36.2138)" fill="#FFFFFF" width="21.3" height="1.6"/>
	</g>
</g>
<g id="圖層_1_拷貝_2">
	<g>
		
			<rect x="4.3" y="14.2" transform="matrix(0.7071 -0.7071 0.7071 0.7071 -6.2134 15.0006)" fill="#FFFFFF" width="21.3" height="1.6"/>
		
			<rect x="4.3" y="14.2" transform="matrix(-0.7071 -0.7071 0.7071 -0.7071 15.0002 36.2138)" fill="#FFFFFF" width="21.3" height="1.6"/>
	</g>
</g>
</svg>
