<?xml version="1.0" encoding="utf-8"?>
<!-- Generator: Adobe Illustrator 14.0.0, SVG Export Plug-In . SVG Version: 6.00 Build 43363)  -->
<!DOCTYPE svg PUBLIC "-//W3C//DTD SVG 1.1//EN" "http://www.w3.org/Graphics/SVG/1.1/DTD/svg11.dtd">
<svg version="1.1" id="圖層_1" xmlns="http://www.w3.org/2000/svg" xmlns:xlink="http://www.w3.org/1999/xlink" x="0px" y="0px"
	 width="400px" height="450px" viewBox="0 0 400 450" enable-background="new 0 0 400 450" xml:space="preserve">
<g>
	<defs>
		<path id="SVGID_1_" d="M180.585,107.921l29.355,35.381l7.342,4.103l24.619-36.232l26.478,1.858l12.541,31.123
			c0,0,17.187,27.406,17.187,28.8c0,1.394,18.116,35.303,18.116,35.303l-49.238,28.336l-159.792,3.252L70.96,141.83L180.585,107.921
			z"/>
	</defs>
	<clipPath id="SVGID_2_">
		<use xlink:href="#SVGID_1_"  overflow="visible"/>
	</clipPath>
	<g clip-path="url(#SVGID_2_)">
		<g opacity="0.1">
			<path fill="#8CCECB" d="M258.4,173.943c-2.048,1.858-6.27,0.735-9.697-2.093c-3.433-2.835-5.135-6.608-3.475-8.792
				c1.66-2.182,6.403-1.754,10.229,1.407C259.278,167.614,260.442,172.082,258.4,173.943z"/>
		</g>
		<g opacity="0.1">
			<path fill="#CAE7E7" d="M250.652,175.004c-2.18,2.175-6.718,1.409-10.434-1.264c-5.932-4.256-9.174-6.031-15.922-8.839
				c-4.235-1.769-7.037-5.141-6.001-7.962c1.624-4.502,2.438-6.752,4.072-11.239c1.021-2.829,6.542-3.762,11.997-1.49
				c8.704,3.63,12.884,5.903,20.51,11.388c4.793,3.442,6.584,8.521,4.412,10.703C255.838,169.784,254.108,171.517,250.652,175.004z"
				/>
		</g>
		<g opacity="0.1">
			<path fill="#81CAC7" d="M238.101,165.057c-1.716,2.524-6.345,2.605-10.53,0.666c-6.052-2.808-9.262-3.908-15.782-5.52
				c-4.512-1.108-7.877-4.039-7.348-6.984c0.773-4.236,1.151-6.351,1.93-10.585c0.532-2.938,5.789-4.659,11.522-3.237
				c8.304,2.047,12.379,3.448,20.082,7.017c5.319,2.462,8.021,7.023,6.318,9.546C241.817,159.605,240.578,161.412,238.101,165.057z"
				/>
		</g>
		<g opacity="0.1">
			<path fill="#2F4D9F" d="M214.198,149.644c-0.519,1.828-3.503,2.685-6.683,2.107c-3.181-0.565-5.594-2.395-5.327-4.264
				c0.275-1.87,3.334-3.072,6.771-2.454C212.384,145.653,214.734,147.829,214.198,149.644z"/>
		</g>
		<g opacity="0.1">
			<path fill="#368DCD" d="M204.496,149.623c-0.522,2.944-4.883,4.725-9.767,4.46c-2.378-0.129-3.56-0.156-5.938-0.15
				c-4.889,0.021-9.146-1.979-9.485-4.937c-0.161-1.435-0.238-2.156-0.4-3.596c-0.345-2.951,4.061-5.862,9.787-5.896
				c2.802-0.013,4.2,0.015,6.995,0.17c5.719,0.312,9.941,3.44,9.434,6.377C204.863,147.48,204.749,148.195,204.496,149.623z"/>
		</g>
		<g opacity="0.1">
			<path fill="#68C3BE" d="M186.801,147.589c0.083,2.979-3.906,5.46-8.802,6.024c-1.133,0.123-1.682,0.198-2.801,0.349
				c-4.891,0.7-9.471-0.694-10.28-3.571c-0.181-0.659-0.274-0.985-0.456-1.645c-0.816-2.876,3.018-6.344,8.632-7.147
				c1.28-0.17,1.922-0.257,3.202-0.401c5.644-0.639,10.377,1.734,10.456,4.706C186.765,146.577,186.779,146.916,186.801,147.589z"/>
		</g>
		<g opacity="0.1">
			<path fill="#C7E6E5" d="M172.116,149.704c0.584,2.924-2.913,5.922-7.634,7.161c-2.005,0.524-2.997,0.816-4.974,1.455
				c-4.637,1.476-9.378,0.89-10.738-1.815c-0.584-1.142-0.872-1.72-1.449-2.876c-1.365-2.692,1.767-6.786,7.162-8.519
				c2.314-0.742,3.477-1.081,5.833-1.694c5.511-1.434,10.611,0.245,11.195,3.17C171.75,147.836,171.862,148.455,172.116,149.704z"/>
		</g>
		<g opacity="0.1">
			<path fill="#9DD5D3" d="M150.502,154.049c0.873,1.864-1.034,4.393-4.117,5.883c-3.082,1.48-6.429,1.467-7.563-0.253
				c-1.132-1.733,0.563-4.677,3.905-6.283C146.076,151.786,149.629,152.186,150.502,154.049z"/>
		</g>
		<g opacity="0.1">
			<path fill="#8CCECB" d="M141.066,159.761c1.604,2.569-0.597,6.534-4.587,9.301c-1.217,0.843-1.83,1.286-3.019,2.183
				c-3.863,2.952-8.542,4.011-10.766,1.883c-0.689-0.646-1.028-0.98-1.709-1.625c-2.231-2.13-0.746-7.127,3.729-10.526
				c1.364-1.046,2.063-1.549,3.491-2.536c4.615-3.188,10.004-3.237,11.623-0.653C140.321,158.57,140.566,158.966,141.066,159.761z"
				/>
		</g>
		<g opacity="0.1">
			<path fill="#93D1CE" d="M277.628,186.638c-2.693,1.538-7.148-1.251-10.44-5.642c-1.567-2.094-2.384-3.101-4.109-5.053
				c-3.581-4.065-5.135-8.757-2.969-10.945c1.027-1.049,1.548-1.566,2.582-2.612c2.154-2.189,7.757-0.633,11.905,4.072
				c1.978,2.243,2.927,3.42,4.737,5.841c3.804,5.079,4.199,10.988,1.519,12.511C279.558,185.543,278.918,185.904,277.628,186.638z"
				/>
		</g>
		<g opacity="0.1">
			<path fill="#B7DFDF" d="M278.289,208.007c-2.876,1.153-6.729-1.741-9.116-6.036c-7.811-11.463-14.646-18.681-25.786-27.217
				c-4.006-2.597-6.274-6.48-4.749-9.081c4.816-8.187,7.223-12.277,12.038-20.464c1.533-2.59,7.759-2.223,13.45,1.464
				c15.159,9.799,27.87,23.019,36.534,38.567c3.376,6.084,3.164,12.48,0.292,13.64C291.891,202.533,287.353,204.357,278.289,208.007
				z"/>
		</g>
		<g opacity="0.1">
			<path fill="#7AC8C4" d="M254.297,160.291c-1.97,2.333-7.071,1.552-11.65-1.203c-2.265-1.359-3.413-2.007-5.777-3.202
				c-4.764-2.427-7.866-6.215-6.613-8.969c0.618-1.339,0.929-2.026,1.55-3.371c1.235-2.748,7.04-3.203,12.563-0.395
				c2.732,1.395,4.067,2.128,6.677,3.706c5.307,3.188,7.699,8.212,5.707,10.546C255.776,158.558,255.29,159.135,254.297,160.291z"/>
		</g>
		<g opacity="0.1">
			<path fill="#84CCC9" d="M241.084,153.437c-1.597,2.584-6.697,2.597-11.575,0.572c-4.207-1.74-6.359-2.488-10.758-3.76
				c-5.098-1.455-8.865-4.61-8.21-7.521c0.571-2.501,0.851-3.752,1.428-6.254c0.647-2.918,6.311-4.387,12.377-2.646
				c5.229,1.502,7.804,2.394,12.792,4.475c5.819,2.406,9.005,7.002,7.387,9.587C243.153,150.113,242.463,151.22,241.084,153.437z"/>
		</g>
		<g opacity="0.1">
			<path fill="#9CD4D3" d="M224.311,145.557c-1.07,2.802-6.106,3.706-11.342,2.537c-3.561-0.796-5.364-1.124-8.995-1.611
				c-5.326-0.721-9.608-3.305-9.439-6.269c0.104-2.034,0.162-3.047,0.267-5.074c0.154-2.958,5.481-5.215,11.729-4.358
				c4.257,0.579,6.374,0.953,10.567,1.891c6.143,1.374,10.126,5.303,9.057,8.098C225.414,142.694,225.05,143.654,224.311,145.557z"
				/>
		</g>
		<g opacity="0.1">
			<path fill="#3F97D4" d="M208,142.014c-0.582,2.938-5.375,4.57-10.716,4.176c-4.222-0.314-6.339-0.368-10.574-0.267
				c-5.362,0.138-10.056-1.74-10.448-4.698c-0.318-2.332-0.479-3.495-0.796-5.826c-0.394-2.945,4.426-5.998,10.773-6.154
				c5.017-0.115,7.519-0.054,12.523,0.313c6.323,0.469,10.962,3.752,10.377,6.676C208.695,138.553,208.451,139.71,208,142.014z"/>
		</g>
		<g opacity="0.1">
			<path fill="#81CAC7" d="M194.117,142.483c-0.16,2.973-4.578,5.182-9.82,5.42c-6.819,0.319-10.224,0.755-16.867,2.163
				c-5.114,1.073-10.033,0.074-11.067-2.742c-1.343-3.658-2.027-5.487-3.371-9.145c-1.048-2.822,3.11-6.745,9.407-8.071
				c8.169-1.72,12.362-2.25,20.741-2.645c6.446-0.298,11.604,2.407,11.463,5.378C194.407,136.697,194.309,138.629,194.117,142.483z"
				/>
		</g>
		<g opacity="0.1">
			<path fill="#98D3D0" d="M177.422,143.238c0.381,2.945-3.582,5.779-8.697,6.793c-6.965,1.373-10.406,2.36-16.971,4.936
				c-4.827,1.883-9.836,1.715-11.384-0.89c-2.103-3.563-3.152-5.337-5.255-8.886c-1.542-2.611,1.829-7.182,7.796-9.514
				c8.112-3.175,12.348-4.398,20.961-6.098c6.326-1.251,11.912,0.652,12.284,3.61C176.654,137.207,176.915,139.219,177.422,143.238z
				"/>
		</g>
		<g opacity="0.1">
			<path fill="#87CDCA" d="M152.81,144.836c1.104,2.801-2.203,6.453-7.113,8.662c-1.858,0.837-2.787,1.271-4.588,2.209
				c-4.785,2.455-9.928,2.91-11.757,0.457c-0.683-0.926-1.035-1.396-1.716-2.318c-1.816-2.456,0.885-7.27,6.373-10.09
				c2.077-1.075,3.124-1.579,5.263-2.538c5.629-2.535,11.378-1.814,12.482,0.98C152.184,143.258,152.396,143.79,152.81,144.836z"/>
		</g>
		<g opacity="0.1">
			<path fill="#98D3D0" d="M149.767,157.649c0.805,2.076-1.352,4.667-4.629,6.121c-8.649,3.787-14.649,9.051-21.198,15.504
				c-2.361,2.763-5.608,4.289-7.54,3.04c-5.697-3.686-8.545-5.534-14.248-9.221c-1.928-1.253-1.201-5.828,2.102-9.682
				c9.089-9.292,17.875-15.69,29.574-21.64c4.589-2.016,9.178-1.561,9.987,0.52C146.193,148.438,147.39,151.505,149.767,157.649z"/>
		</g>
		<g opacity="0.1">
			<path fill="#A5D8D6" d="M259.95,152.125c-1.96,2.352-7.425,1.339-12.512-1.658c-1.88-1.103-2.816-1.626-4.742-2.627
				c-5.249-2.724-8.747-6.709-7.474-9.443c0.473-1,0.712-1.502,1.185-2.502c1.264-2.74,7.456-2.998,13.409,0.094
				c2.168,1.143,3.258,1.735,5.375,2.979c5.762,3.399,8.528,8.655,6.563,11.001C261.033,150.826,260.666,151.269,259.95,152.125z"/>
		</g>
		<g opacity="0.1">
			<path fill="#BFE3E2" d="M240.788,139.253c-1.293,2.448-6.444,2.55-11.658,0.722c-5.22-1.816-8.99-5.031-8.195-7.657
				c0.787-2.616,6.281-3.576,12.003-1.584C238.649,132.733,242.086,136.819,240.788,139.253z"/>
		</g>
		<g opacity="0.2">
			<path fill="#3089CA" d="M226.92,136.214c-1.056,2.816-6.521,3.612-12.304,2.361c-3.266-0.708-4.912-1-8.227-1.477
				c-5.882-0.837-10.604-3.474-10.415-6.446c0.1-1.673,0.162-2.502,0.262-4.175c0.196-2.971,5.938-5.161,12.693-4.187
				c3.806,0.536,5.699,0.877,9.442,1.685c6.656,1.442,11.088,5.467,10.026,8.276C227.808,133.835,227.512,134.63,226.92,136.214z"/>
		</g>
		<g opacity="0.2">
			<path fill="#3A93D1" d="M212.428,134.944c-0.662,2.903-5.868,4.351-11.646,3.786c-6.813-0.659-10.273-0.741-17.121-0.42
				c-5.812,0.271-10.904-1.428-11.403-4.373c-0.563-3.468-0.851-5.195-1.428-8.664c-0.486-2.936,4.756-6.173,11.721-6.505
				c8.197-0.388,12.343-0.292,20.519,0.502c6.924,0.681,11.975,4.175,11.308,7.086C213.597,129.796,213.216,131.511,212.428,134.944
				z"/>
		</g>
		<g opacity="0.1">
			<path fill="#8DCFCD" d="M175.114,133.726c0.416,2.951-3.976,5.861-9.653,7.03c-6.895,1.442-10.293,2.421-16.851,4.909
				c-5.375,2.032-10.794,2.032-12.313-0.591c-1.844-3.195-2.772-4.8-4.63-7.99c-1.504-2.63,2.266-7.35,8.733-9.804
				c7.873-2.999,11.968-4.182,20.257-5.904c6.81-1.413,12.826,0.41,13.234,3.368C174.382,128.335,174.627,130.129,175.114,133.726z"
				/>
		</g>
		<g opacity="0.1">
			<path fill="#87CDCA" d="M150.826,136.405c1.07,2.801-2.667,6.541-8.078,8.887c-2.912,1.285-4.348,1.972-7.162,3.454
				c-5.201,2.753-10.667,3.488-12.525,1.068c-1.005-1.319-1.492-1.978-2.504-3.292c-1.851-2.434,1.181-7.554,7.135-10.71
				c3.222-1.698,4.883-2.502,8.231-3.957c6.177-2.698,12.362-2.059,13.446,0.75C149.953,134.127,150.243,134.875,150.826,136.405z"
				/>
		</g>
		<g opacity="0.1">
			<path fill="#9CD4D3" d="M280.818,156.878c-2.324,2.019-7.873-0.279-12.85-4.468c-0.676-0.572-1.006-0.849-1.695-1.401
				c-5.05-4.093-8.106-8.907-6.312-11.375c0.247-0.339,0.367-0.503,0.614-0.829c1.785-2.475,8.25-1.386,13.845,3.133
				c0.753,0.614,1.126,0.913,1.872,1.537c5.509,4.646,7.627,10.683,5.305,12.716C281.288,156.458,281.133,156.599,280.818,156.878z"
				/>
		</g>
		<g opacity="0.1">
			<path fill="#294B9E" d="M267.322,147.406c-2.02,2.298-7.753,0.918-13.165-2.439c-3.693-2.286-5.601-3.332-9.493-5.256
				c-5.719-2.816-9.688-6.855-8.463-9.615c0.814-1.876,1.24-2.815,2.062-4.692c1.218-2.76,7.868-2.971,14.416,0.245
				c4.468,2.21,6.644,3.413,10.871,6.024c6.2,3.849,9.225,9.485,7.205,11.791C269.383,145.04,268.692,145.822,267.322,147.406z"/>
		</g>
		<g opacity="0.2">
			<path fill="#C7E6E5" d="M250.437,136.805c-1.591,2.591-7.468,2.225-13.376-0.183c-4.497-1.822-6.783-2.631-11.456-3.999
				c-6.129-1.814-10.765-5.147-10.076-8.05c0.516-2.21,0.768-3.317,1.281-5.521c0.677-2.91,7.2-4.188,14.268-2.107
				c5.371,1.583,8.008,2.495,13.172,4.603c6.797,2.775,10.774,7.752,9.192,10.342C252.236,133.862,251.632,134.848,250.437,136.805z
				"/>
		</g>
		<g opacity="0.1">
			<path fill="#4298D4" d="M241.318,139.206c-1.438,2.673-7.051,2.754-12.765,0.794c-12.201-3.467-22.981-5.391-35.652-6.41
				c-6.087-0.185-11.237-2.264-11.455-5.229c-0.514-7.104-0.78-10.655-1.281-17.773c-0.225-2.951,5.968-5.829,13.741-5.604
				c15.502,0.443,30.911,3.175,45.523,8.187c7.296,2.502,11.83,7.371,10.406,10.043
				C246.417,129.605,244.723,132.815,241.318,139.206z"/>
		</g>
		<g opacity="0.2">
			<path fill="#CAE7E7" d="M272.569,138.539c-1.983,2.325-8.105,0.749-14.069-2.813c-2.824-1.708-4.271-2.503-7.222-4.006
				c-6.198-3.161-10.524-7.431-9.258-10.165c0.577-1.298,0.878-1.958,1.478-3.257c1.254-2.732,8.282-2.719,15.218,0.816
				c3.292,1.686,4.92,2.577,8.086,4.488c6.685,3.998,10.104,9.818,8.125,12.157C273.987,136.875,273.521,137.424,272.569,138.539z"
				/>
		</g>
	</g>
</g>
<g opacity="0.1">
	<path fill="#5DA9DE" d="M335.657,300.859c-3.778-2.715-3.008-9.881,1.007-16.568c4.047-6.664,10.224-11.01,14.423-8.994
		c4.198,1.984,4.609,10.254,0.136,17.65C346.762,300.342,339.421,303.584,335.657,300.859z"/>
</g>
<g opacity="0.02">
	<path fill="#406CB4" d="M333.176,289.299c-4.535-3.041-4.338-11.035-0.412-18.586c6.832-13.039,9.454-20.313,12.548-36.33
		c1.8-9.268,6.771-17.107,12.173-16.639c9.367,0.862,14.041,1.284,23.411,2.125c5.412,0.504,9.14,11.632,6.791,23.71
		c-4.038,20.865-7.466,30.338-16.321,47.314c-5.135,9.83-13.98,14.525-18.525,11.5C344.987,297.162,341.038,294.543,333.176,289.299
		z"/>
</g>
<g>
	<g>
		<path opacity="0.2" fill="#9CD1F2" d="M51.283,288.447c-7.573-0.543-15.057-1.42-22.551-2.617
			c0.055-12.854,1.955-25.379,5.769-37.709c4.145,0.854,8.295,1.609,12.482,2.266C46.349,263.199,47.775,275.834,51.283,288.447z"/>
		<path opacity="0.2" fill="#9CD1F2" d="M132.307,304.6c-12.756,5.111-26.062,8.785-39.986,11.256
			c-9.961-10.23-17.98-21.305-24.072-33.402c9.874-0.125,19.571-0.869,29.234-2.301C107.55,289.914,119.116,297.996,132.307,304.6z"
			/>
		<path opacity="0.2" fill="#9CD1F2" d="M101.888,319.719c-8.144,1.746-16.355,3.057-24.726,3.977
			c-4.559-5.883-8.607-11.934-12.189-18.25c7.055-0.234,14.029-0.75,20.995-1.572C90.842,309.48,96.123,314.73,101.888,319.719z"/>
		<path opacity="0.2" fill="#9CD1F2" d="M72.243,298.984c-8.232,0.359-16.433,0.297-24.692-0.156
			c-3.732-12.639-5.457-25.328-5.141-38.219c4.977,0.75,9.95,1.355,14.963,1.811C60.23,275.176,65.161,287.307,72.243,298.984z"/>
		<path opacity="0.2" fill="#9CD1F2" d="M122.76,289.119c-15.291,4.973-31.166,7.885-47.658,9.063
			c-7.421-11.531-12.691-23.566-15.867-36.281c10.447,0.695,20.778,0.658,31.149-0.15C99.274,272.5,110.003,281.57,122.76,289.119z"
			/>
		<path opacity="0.2" fill="#9CD1F2" d="M241.636,362.012c-30.256,34.438-74.34,57.646-122.918,70.76
			c-15.1-9.25-28.898-19.674-41.312-31.416c41.088-5.898,79.894-19.203,111.554-41.486
			C206.509,362.707,224.033,363.402,241.636,362.012z"/>
		<path opacity="0.2" fill="#9CD1F2" d="M146.066,336.596c-18.947,8.877-39.352,14.82-60.829,18.342
			c-10.556-10.686-19.374-22.199-26.384-34.701c16.394-0.438,32.387-2.4,48.029-6.131
			C118.696,323.205,131.747,330.643,146.066,336.596z"/>
		<path opacity="0.2" fill="#9CD1F2" d="M161.351,371.176c-26.32,13.145-55.417,21.4-85.947,25.563
			c-19.73-19.881-34.449-42.406-42.77-67.088c19.106,1.229,38.003,0.527,56.662-2.383
			C108.811,346.803,133.466,361.463,161.351,371.176z"/>
		<path opacity="0.2" fill="#9CD1F2" d="M92.961,378.699c-13.987,2.592-28.13,4.203-42.511,4.926
			c-7.519-10.648-13.788-21.711-18.761-33.297c11.376,0.465,22.675,0.318,33.969-0.484C73.589,360.25,82.684,369.816,92.961,378.699
			z"/>
		<path opacity="0.2" fill="#9CD1F2" d="M142.581,383.945c-11.405,4.414-23.126,8.07-35.225,11.064
			c-9.666-6.891-18.587-14.344-26.801-22.449c10.493-1.57,20.769-3.652,30.896-6.301
			C121.244,372.93,131.597,378.787,142.581,383.945z"/>
		<path opacity="0.2" fill="#9CD1F2" d="M187.182,411.373c-13.827,7.514-28.38,13.896-43.618,19.283
			c-11.803-5.605-23.017-11.891-33.683-18.957c13.708-3.434,26.973-7.664,39.83-12.807
			C161.831,403.951,174.289,408.08,187.182,411.373z"/>
		<path opacity="0.2" fill="#9CD1F2" d="M223.735,292.195c-5.096,12.217-12.583,23.191-21.997,33.336
			c-21.451-0.51-42.169-4.771-61.703-12.834c10.056-4.795,19.333-10.328,27.854-16.854
			C186.985,298.424,205.71,297.279,223.735,292.195z"/>
		<path opacity="0.2" fill="#9CD1F2" d="M256.761,277.391c-0.169,22.631-8.93,43.717-22.791,62.551
			c-14.936,1.645-29.848,1.572-44.917-0.229c16.154-13.338,28.917-28.902,36.284-47.088
			C236.887,288.951,247.26,283.904,256.761,277.391z"/>
		<path opacity="0.2" fill="#9CD1F2" d="M146.666,319.342c-7.706,3.838-15.677,7.15-23.982,10.037
			c-12.813-7.869-24.036-16.979-33.707-27.539c6.57-0.959,13.021-2.18,19.419-3.699
			C119.919,306.877,132.636,313.877,146.666,319.342z"/>
		<path opacity="0.2" fill="#9CD1F2" d="M189.638,356.17c-10.657,7.709-22.141,14.371-34.429,20.193
			c-15.725-6.115-30.316-13.721-43.759-22.99c10.702-2.986,20.999-6.604,30.958-10.961
			C157.476,348.865,173.184,353.406,189.638,356.17z"/>
		<path opacity="0.2" fill="#9CD1F2" d="M161.418,295.908c-9.064,6.189-18.814,11.361-29.316,15.744
			c-19.462-9.949-35.497-23.092-47.512-39.334c7.035-0.564,13.946-1.449,20.827-2.688
			C121.258,282.582,140.187,291.398,161.418,295.908z"/>
		<path opacity="0.2" fill="#9CD1F2" d="M228.974,314.502c-10.596,18.004-25.857,33.15-44.189,45.9
			c-23.874-4.82-46.109-13.373-65.983-25.82c16.338-5.283,31.449-12.238,45.123-21.285
			C185.603,318.064,207.465,318.486,228.974,314.502z"/>
		<path opacity="0.2" fill="#9CD1F2" d="M189.774,313.092c-9.62,9.359-20.638,17.318-32.883,24.213
			c-16.915-5.715-32.367-13.498-46.262-23.533c10.604-2.932,20.712-6.602,30.401-11.162
			C156.622,308.629,172.852,312.096,189.774,313.092z"/>
		<path opacity="0.2" fill="#9CD1F2" d="M252.225,332.166c-14.781,25.826-37.864,46.855-65.55,63.33
			c-19.933-4.793-38.802-11.797-56.448-21.176c25.004-8.875,47.635-21.17,66.239-37.639
			C215.51,337.988,234.085,336.475,252.225,332.166z"/>
		<path opacity="0.2" fill="#9CD1F2" d="M274.475,266.896c4.755,26.936-2.622,53.338-16.889,76.914
			c-15.223,3.313-30.704,4.822-46.591,4.512c17.604-17.385,30.391-37.635,34.768-60.555
			C256.756,282.096,266.194,275.154,274.475,266.896z"/>
		<path opacity="0.2" fill="#9CD1F2" d="M211.644,306.59c-7.743,11.309-17.464,21.219-28.808,30.08
			c-4.214-0.701-8.372-1.512-12.53-2.441c11.447-7.775,21.502-16.547,29.941-26.684C204.068,307.377,207.871,307.059,211.644,306.59
			z"/>
		<path opacity="0.2" fill="#9CD1F2" d="M80.709,323.949c-18.508,2.092-37.105,2.064-55.817,0.172
			c-2.592-11.996-3.67-23.973-3.177-36.057c12.951,2.373,25.925,3.748,39.085,4.035C65.857,303.402,72.487,313.957,80.709,323.949z"
			/>
		<path opacity="0.2" fill="#9CD1F2" d="M85.808,314.936c-3.533,0.457-7.066,0.848-10.623,1.178
			c-8.13-11.334-14.27-23.24-18.406-35.9c2.392,0.131,4.792,0.221,7.183,0.268C69.28,292.828,76.551,304.246,85.808,314.936z"/>
		<path opacity="0.2" fill="#9CD1F2" d="M80.75,278.867c-1.693,0.102-2.542,0.145-4.252,0.215
			c-5.064-8.652-8.878-17.545-11.552-26.848c1.13,0.063,1.696,0.094,2.827,0.141C70.911,261.613,75.193,270.389,80.75,278.867z"/>
		<path opacity="0.2" fill="#9CD1F2" d="M173.979,302.902c-1.57,1.314-3.178,2.594-4.825,3.838
			c-10.533-1.943-20.571-4.822-30.376-8.725c1.962-0.912,2.925-1.381,4.814-2.342C153.468,299.096,163.506,301.482,173.979,302.902z
			"/>
		<path opacity="0.2" fill="#9CD1F2" d="M211.3,345.32c-2.392,2.373-4.875,4.684-7.445,6.926
			c-12.231-1.02-24.165-3.039-35.994-6.109c2.59-1.578,5.13-3.213,7.613-4.912C187.326,343.645,199.199,344.994,211.3,345.32z"/>
		<path opacity="0.2" fill="#9CD1F2" d="M69.902,275.381c-6.088-0.047-12.138-0.32-18.219-0.822
			c-1.372-7.025-2.128-14.02-2.284-21.1c4.365,0.551,8.72,0.988,13.105,1.32C64.33,261.814,66.777,268.635,69.902,275.381z"/>
	</g>
	<g opacity="0.4">
		<g>
			<g opacity="0.8">
				<path fill="#FFFFFF" d="M52.007,286.678l-0.222-0.012c-7.459-0.342-15.071-1.025-22.627-2.031l-0.13-0.018l-0.006-0.135
					c-0.287-12.84,1.315-25.588,4.766-37.891l0.04-0.135l0.139,0.025c4.167,0.746,8.385,1.396,12.529,1.938l0.14,0.02l-0.006,0.139
					c-0.287,12.727,1.5,25.475,5.312,37.889L52.007,286.678L52.007,286.678z M29.331,284.344c7.429,0.986,14.913,1.658,22.247,2.002
					c-3.764-12.332-5.53-24.99-5.257-37.635c-4.065-0.531-8.19-1.17-12.271-1.898C30.647,259,29.062,271.625,29.331,284.344
					L29.331,284.344z"/>
			</g>
			<g opacity="0.8">
				<path fill="#FFFFFF" d="M93.5,313.012l-0.059-0.057c-10.243-9.98-18.647-21.018-24.985-32.805l-0.12-0.221l0.25-0.01
					c10.053-0.387,19.583-1.387,29.144-3.057l0.074-0.014l0.056,0.051c10.303,9.48,21.888,17.17,35.429,23.51l0.313,0.148
					l-0.317,0.137c-12.414,5.354-25.399,9.373-39.704,12.301L93.5,313.012L93.5,313.012z M68.848,280.223
					c6.294,11.654,14.623,22.572,24.751,32.451c14.132-2.895,26.973-6.863,39.244-12.127c-13.41-6.314-24.909-13.959-35.134-23.363
					C88.239,278.834,78.795,279.83,68.848,280.223L68.848,280.223z"/>
			</g>
			<g opacity="0.8">
				<path fill="#FFFFFF" d="M78.54,321.244l-0.053-0.07c-4.773-5.834-8.925-11.707-12.683-17.949l-0.136-0.219l0.257-0.016
					c7.073-0.418,14.121-1.131,20.929-2.115l0.085-0.01l0.054,0.061c5.025,5.479,10.365,10.52,16.324,15.41l0.244,0.197
					l-0.304,0.074c-7.945,1.918-16.231,3.475-24.629,4.621L78.54,321.244L78.54,321.244z M66.201,303.285
					c3.708,6.123,7.785,11.891,12.47,17.623c8.251-1.129,16.395-2.656,24.208-4.531c-5.854-4.818-11.108-9.787-16.06-15.182
					C80.105,302.164,73.171,302.865,66.201,303.285L66.201,303.285z"/>
			</g>
			<g opacity="0.8">
				<path fill="#FFFFFF" d="M55.816,297.25c-2.469,0-4.982-0.037-7.482-0.109l-0.108-0.002l-0.034-0.105
					c-4.062-12.52-6.138-25.346-6.169-38.121l-0.003-0.178l0.176,0.021c5.002,0.625,10.047,1.104,15,1.424l0.115,0.006l0.028,0.111
					c3.167,12.566,8.488,24.719,15.818,36.117l0.142,0.221l-0.261,0.02C67.376,297.049,61.583,297.25,55.816,297.25L55.816,297.25z
					 M48.453,296.832c2.46,0.068,4.938,0.105,7.364,0.105c5.669,0,11.368-0.193,16.937-0.576c-7.254-11.33-12.532-23.4-15.69-35.879
					c-4.866-0.318-9.816-0.787-14.728-1.395C42.384,271.736,44.443,284.436,48.453,296.832L48.453,296.832z"/>
			</g>
			<g opacity="0.8">
				<path fill="#FFFFFF" d="M75.79,295.787l-0.054-0.076c-7.692-11.287-13.364-23.367-16.853-35.9l-0.057-0.207l0.214,0.008
					c2.997,0.121,6.019,0.184,8.975,0.184c7.409,0,14.859-0.387,22.133-1.145l0.083-0.01l0.054,0.061
					c9.227,10.572,20.037,19.236,33.051,26.488l0.305,0.166l-0.327,0.117c-14.68,5.199-30.64,8.668-47.434,10.309L75.79,295.787
					L75.79,295.787z M59.242,259.932c3.522,12.57,8.987,24.195,16.699,35.529c16.614-1.629,32.406-5.049,46.947-10.168
					c-12.893-7.221-23.621-15.834-32.784-26.322c-7.26,0.752-14.691,1.137-22.088,1.137
					C65.125,260.107,62.173,260.049,59.242,259.932L59.242,259.932z"/>
			</g>
			<g opacity="0.8">
				<path fill="#FFFFFF" d="M123.047,429.199l-0.059-0.031c-15.513-8.951-29.698-19.162-42.164-30.35l-0.239-0.215l0.319-0.055
					c43.646-7.43,80.768-22.35,110.333-44.344l0.051-0.037l0.063,0.006c9.788,1.324,19.719,1.996,29.511,1.996c0,0,0.002,0,0.006,0
					c7.669,0,15.464-0.412,23.165-1.225l0.382-0.041l-0.248,0.295c-27.464,32.977-69.323,58.559-121.057,73.98L123.047,429.199
					L123.047,429.199z M81.274,398.801c12.374,11.076,26.443,21.188,41.812,30.063c51.486-15.363,93.178-40.797,120.597-73.566
					c-7.588,0.783-15.263,1.184-22.816,1.184c-0.004,0-0.004,0-0.006,0c-9.786,0-19.704-0.668-29.49-1.986
					c-15.049,11.189-32.37,20.682-51.486,28.219C121.871,389.814,102.152,395.225,81.274,398.801L81.274,398.801z"/>
			</g>
			<g opacity="0.8">
				<path fill="#FFFFFF" d="M87.461,352.264l-0.053-0.057c-10.925-10.49-20.119-21.941-27.334-34.035l-0.131-0.221l0.259-0.014
					c16.645-0.877,32.731-3.357,47.819-7.373l0.071-0.02l0.06,0.043c11.831,8.629,25.201,15.844,39.735,21.445l0.33,0.129
					l-0.315,0.156c-18.011,9.021-38.317,15.727-60.358,19.93L87.461,352.264L87.461,352.264z M60.478,318.232
					c7.163,11.969,16.275,23.303,27.083,33.693c21.855-4.172,42.002-10.811,59.886-19.727c-14.407-5.584-27.669-12.756-39.42-21.314
					C93.02,314.875,77.022,317.346,60.478,318.232L60.478,318.232z"/>
			</g>
			<g opacity="0.8">
				<path fill="#FFFFFF" d="M78.75,394.303l-0.057-0.055c-20.809-19.893-35.81-42.1-44.584-66.01l-0.083-0.217l0.233,0.008
					c3.584,0.137,7.195,0.207,10.732,0.207c15.66,0,31.074-1.367,45.813-4.059l0.08-0.016l0.06,0.055
					c19.605,18.623,44.214,32.748,73.14,41.984l0.355,0.113l-0.331,0.174c-24.973,13.297-53.667,22.65-85.281,27.803L78.75,394.303
					L78.75,394.303z M34.481,328.35c8.76,23.758,23.692,45.836,44.373,65.621c31.417-5.125,59.934-14.404,84.783-27.586
					c-28.792-9.24-53.299-23.332-72.856-41.889c-14.733,2.689-30.142,4.051-45.79,4.051C41.53,328.547,37.992,328.48,34.481,328.35
					L34.481,328.35z"/>
			</g>
			<g opacity="0.8">
				<path fill="#FFFFFF" d="M53.436,381.836l-0.054-0.066c-7.842-10.508-14.46-21.551-19.662-32.828l-0.102-0.223l0.247,0.004
					c1.574,0.023,3.167,0.035,4.732,0.035c9.829,0,19.65-0.469,29.191-1.4l0.088-0.008l0.051,0.064
					c8.044,9.998,17.48,19.457,28.038,28.115l0.253,0.207l-0.317,0.066c-13.64,2.895-27.897,4.924-42.38,6.029L53.436,381.836
					L53.436,381.836z M34.107,349.037c5.166,11.154,11.717,22.078,19.473,32.477c14.328-1.096,28.437-3.098,41.939-5.949
					c-10.45-8.598-19.798-17.977-27.782-27.889c-9.53,0.926-19.333,1.393-29.14,1.393C37.113,349.068,35.603,349.061,34.107,349.037
					L34.107,349.037z"/>
			</g>
			<g opacity="0.8">
				<path fill="#FFFFFF" d="M110.668,391.748l-0.059-0.039c-9.879-6.662-19.104-13.984-27.412-21.762l-0.227-0.215l0.307-0.053
					c10.51-1.852,20.838-4.24,30.699-7.098l0.068-0.018l0.061,0.033c9.793,6.305,20.413,11.977,31.571,16.861l0.332,0.146
					l-0.335,0.143c-11.049,4.611-22.804,8.643-34.935,11.982L110.668,391.748L110.668,391.748z M83.639,369.93
					c8.22,7.676,17.329,14.9,27.086,21.48c11.972-3.299,23.576-7.271,34.494-11.811c-11.03-4.85-21.53-10.467-31.224-16.699
					C104.241,365.725,94.029,368.09,83.639,369.93L83.639,369.93z"/>
			</g>
			<g opacity="0.8">
				<path fill="#FFFFFF" d="M147.841,426.443l-0.061-0.025c-12.031-5.34-23.539-11.426-34.192-18.088l-0.301-0.188l0.341-0.096
					c13.753-3.824,27.026-8.479,39.451-13.826l0.058-0.027l0.062,0.025c12.064,4.666,24.772,8.531,37.77,11.494l0.387,0.088
					l-0.347,0.197c-13.297,7.684-27.802,14.553-43.107,20.422L147.841,426.443L147.841,426.443z M114.051,408.254
					c10.547,6.57,21.915,12.576,33.799,17.854c15.137-5.811,29.486-12.596,42.66-20.182c-12.855-2.947-25.424-6.781-37.365-11.396
					C140.825,399.83,127.676,404.445,114.051,408.254L114.051,408.254z"/>
			</g>
			<g opacity="0.8">
				<path fill="#FFFFFF" d="M202.771,319.826c-21.424,0-42.167-3.779-61.662-11.234l-0.327-0.125l0.313-0.16
					c10.266-5.227,19.216-10.969,27.363-17.553l0.05-0.041l0.063,0.008c5.315,0.576,10.651,0.869,15.862,0.869c0,0,0,0,0.001,0
					c13.664,0,27.056-2.006,39.807-5.963l0.307-0.096l-0.115,0.301c-4.603,11.912-11.51,23.014-21.126,33.941l-0.047,0.053H202.771
					L202.771,319.826z M141.546,308.426c19.364,7.357,39.959,11.088,61.224,11.088l0.35-0.002
					c9.483-10.787,16.325-21.748,20.905-33.494c-12.688,3.904-26.009,5.883-39.592,5.883c-0.001,0-0.001,0-0.001,0
					c-5.202,0-10.527-0.291-15.831-0.863C160.536,297.551,151.682,303.242,141.546,308.426L141.546,308.426z"/>
			</g>
			<g opacity="0.8">
				<path fill="#FFFFFF" d="M209.331,335.197c-6.098,0-12.308-0.293-18.457-0.865l-0.364-0.035l0.276-0.236
					c16.748-14.588,28.512-30.721,34.97-47.951l0.022-0.068l0.069-0.025c11.442-3.971,21.571-9.215,30.964-16.025l0.242-0.176
					l0.005,0.299c0.406,21.205-6.705,42.471-21.137,63.215l-0.042,0.055l-0.066,0.008
					C227.04,334.59,218.131,335.197,209.331,335.197L209.331,335.197z M191.267,334.055c6.02,0.551,12.094,0.83,18.064,0.83
					c8.761,0,17.634-0.602,26.374-1.791c14.299-20.57,21.382-41.656,21.051-62.676c-9.334,6.73-19.392,11.924-30.74,15.871
					C219.574,303.447,207.883,319.518,191.267,334.055L191.267,334.055z"/>
			</g>
			<g opacity="0.8">
				<path fill="#FFFFFF" d="M124.249,325.744l-0.066-0.037c-13.265-7.678-24.539-16.402-34.467-26.68l-0.204-0.211l0.293-0.049
					c6.577-1.139,13.071-2.549,19.3-4.201l0.068-0.018l0.06,0.043c11.713,8.402,24.402,15.002,38.79,20.176l0.33,0.119l-0.313,0.166
					c-7.503,3.99-15.267,7.479-23.726,10.664L124.249,325.744L124.249,325.744z M90.148,299.023
					c9.84,10.146,21.006,18.777,34.126,26.377c8.302-3.131,15.932-6.555,23.309-10.459c-14.25-5.156-26.839-11.719-38.468-20.053
					C102.99,296.508,96.611,297.898,90.148,299.023L90.148,299.023z"/>
			</g>
			<g opacity="0.8">
				<path fill="#FFFFFF" d="M158.047,371.861l-0.063-0.021c-16.02-5.752-30.958-13.105-44.394-21.859l-0.281-0.182l0.318-0.1
					c10.733-3.297,21.04-7.25,30.635-11.75l0.063-0.031l0.062,0.027c15.003,5.965,31.001,10.176,47.546,12.514l0.369,0.053
					l-0.296,0.225c-10.123,7.736-21.527,14.836-33.901,21.096L158.047,371.861L158.047,371.861z M114.037,349.902
					c13.331,8.648,28.126,15.922,43.99,21.621c12.211-6.182,23.479-13.186,33.495-20.809c-16.415-2.348-32.29-6.541-47.185-12.455
					C134.84,342.707,124.646,346.625,114.037,349.902L114.037,349.902z"/>
			</g>
			<g opacity="0.8">
				<path fill="#FFFFFF" d="M133.205,307.777l-0.068-0.031c-19.936-9.537-36.285-22.367-48.601-38.129l-0.174-0.221l0.279-0.029
					c7.126-0.758,13.907-1.813,20.732-3.227l0.068-0.014l0.06,0.045c16.087,12.461,35.139,20.801,56.618,24.781l0.358,0.066
					l-0.298,0.213c-8.726,6.303-18.185,11.705-28.91,16.516L133.205,307.777L133.205,307.777z M84.953,269.645
					c12.254,15.607,28.484,28.32,48.251,37.789c10.561-4.738,19.886-10.055,28.498-16.242c-21.354-4.012-40.306-12.332-56.338-24.73
					C98.645,267.852,91.96,268.893,84.953,269.645L84.953,269.645z"/>
			</g>
			<g opacity="0.8">
				<path fill="#FFFFFF" d="M187.21,355.137l-0.063-0.014c-24.38-4.264-46.826-12.379-66.708-24.115l-0.284-0.17l0.312-0.109
					c16.654-5.873,31.626-13.42,44.501-22.432l0.054-0.039l0.065,0.014c10.456,2.014,21.042,3.039,31.469,3.039
					c11.234,0,22.518-1.189,33.529-3.525l0.329-0.07l-0.161,0.299c-9.582,17.316-24.049,33.156-42.991,47.082L187.21,355.137
					L187.21,355.137z M120.888,330.908c19.76,11.617,42.047,19.656,66.245,23.896c18.776-13.807,33.131-29.498,42.685-46.645
					c-10.932,2.295-22.117,3.459-33.257,3.459c-0.003,0,0,0-0.003,0c-10.428,0-21.011-1.02-31.464-3.029
					C152.289,317.547,137.417,325.051,120.888,330.908L120.888,330.908z"/>
			</g>
			<g opacity="0.8">
				<path fill="#FFFFFF" d="M158.691,332.777l-0.064-0.021c-17.22-5.32-33.004-12.838-46.918-22.344l-0.268-0.182l0.307-0.094
					c10.828-3.303,20.665-7.207,30.069-11.941l0.059-0.029l0.066,0.021c15.583,5.555,32.055,8.652,48.955,9.201l0.355,0.014
					l-0.247,0.252c-9.107,9.344-19.659,17.551-32.253,25.088L158.691,332.777L158.691,332.777z M112.151,310.338
					c13.805,9.391,29.45,16.824,46.501,22.102c12.433-7.443,22.866-15.545,31.883-24.748c-16.792-0.586-33.15-3.676-48.64-9.188
					C132.585,303.186,122.851,307.061,112.151,310.338L112.151,310.338z"/>
			</g>
			<g opacity="0.8">
				<path fill="#FFFFFF" d="M190.032,390.17l-0.061-0.014c-20.262-4.314-39.449-10.949-57.035-19.717l-0.314-0.154l0.328-0.131
					c25.994-9.992,47.916-23.221,65.161-39.314l0.045-0.047l0.065,0.006c2.747,0.115,5.516,0.174,8.24,0.174
					c16.063,0,31.986-2.063,47.331-6.135l0.35-0.092l-0.174,0.316c-13.358,24.855-34.852,46.748-63.882,65.072L190.032,390.17
					L190.032,390.17z M133.392,370.32c17.458,8.668,36.492,15.234,56.585,19.52c28.83-18.213,50.21-39.949,63.553-64.607
					c-15.266,4.018-31.098,6.055-47.063,6.055c-0.004,0-0.004,0-0.004,0c-2.707,0-5.462-0.061-8.188-0.174
					C181.082,347.146,159.26,360.334,133.392,370.32L133.392,370.32z"/>
			</g>
			<g opacity="0.8">
				<path fill="#FFFFFF" d="M212.687,342.373l0.255-0.266c18.439-19.203,29.575-39.846,33.089-61.357l0.015-0.074l0.067-0.039
					c10.683-5.869,19.877-12.928,28.104-21.58l0.205-0.217l0.062,0.293c2.631,12.889,2.549,26.281-0.25,39.803
					c-2.586,12.512-7.496,25.172-14.594,37.635l-0.031,0.059l-0.064,0.016c-15.084,3.697-30.723,5.621-46.487,5.725L212.687,342.373
					L212.687,342.373z M246.328,280.875c-3.524,21.447-14.597,42.029-32.907,61.18c15.592-0.129,31.062-2.045,45.981-5.697
					c14.643-25.732,19.767-52.305,14.834-76.869C266.056,268.047,256.923,275.043,246.328,280.875L246.328,280.875z"/>
			</g>
			<g opacity="0.8">
				<path fill="#FFFFFF" d="M184.634,331.461l-0.068-0.008c-4.204-0.59-8.442-1.303-12.595-2.117l-0.355-0.072l0.295-0.209
					c11.726-8.424,21.271-17.393,29.183-27.422l0.043-0.053l0.068-0.004c3.807-0.27,7.627-0.688,11.356-1.248l0.341-0.053
					l-0.188,0.289c-7.215,11.162-16.381,21.256-28.026,30.854L184.634,331.461L184.634,331.461z M172.382,329.098
					c4.014,0.783,8.101,1.469,12.16,2.037c11.493-9.482,20.566-19.445,27.724-30.449c-3.607,0.533-7.295,0.936-10.97,1.195
					C193.441,311.828,183.979,320.736,172.382,329.098L172.382,329.098z"/>
			</g>
			<g opacity="0.8">
				<path fill="#FFFFFF" d="M47.004,323.797c-6.774,0-13.722-0.264-20.652-0.781l-0.114-0.008l-0.025-0.111
					c-2.917-11.953-4.309-24.066-4.142-36.004l0.003-0.18l0.177,0.027c12.795,2.004,25.64,3.021,38.184,3.021
					c0.323,0,0.647,0,0.971-0.002h0.097l0.043,0.09c5.348,11.141,12.128,21.377,20.732,31.281l0.19,0.219l-0.284,0.039
					C70.72,322.986,58.887,323.797,47.004,323.797L47.004,323.797z M26.488,322.713c6.886,0.512,13.788,0.773,20.517,0.773
					c11.769,0,23.494-0.797,34.85-2.365c-8.509-9.836-15.23-19.994-20.547-31.049c-12.794,0.051-25.88-0.961-38.926-2.996
					C22.228,298.893,23.611,310.881,26.488,322.713L26.488,322.713z"/>
			</g>
			<g opacity="0.8">
				<path fill="#FFFFFF" d="M76.355,313.711l-0.051-0.07c-8.448-11.143-14.97-23.068-19.384-35.451l-0.08-0.217l0.228,0.008
					c2.352,0.068,4.778,0.096,7.189,0.082h0.1l0.042,0.09c5.637,12.191,13.072,23.26,22.732,33.834l0.194,0.215l-0.287,0.045
					c-3.465,0.541-7.03,1.031-10.593,1.455L76.355,313.711L76.355,313.711z M57.29,278.299
					c4.392,12.248,10.854,24.051,19.208,35.082c3.431-0.41,6.865-0.879,10.209-1.398c-9.562-10.508-16.941-21.506-22.548-33.607
					C61.855,278.387,59.54,278.361,57.29,278.299L57.29,278.299z"/>
			</g>
			<g opacity="0.8">
				<path fill="#FFFFFF" d="M76.665,276.654l-0.051-0.08c-5.306-8.533-9.322-17.225-12.279-26.572l-0.068-0.209l0.221,0.006
					c1.131,0.033,1.698,0.049,2.824,0.066l0.107,0.002l0.038,0.1c3.414,9.238,7.885,17.777,13.663,26.109l0.155,0.223l-0.267,0.023
					c-1.658,0.145-2.49,0.207-4.251,0.326L76.665,276.654L76.665,276.654z M64.699,250.115c2.934,9.213,6.904,17.795,12.131,26.215
					c1.596-0.105,2.429-0.172,3.883-0.295c-5.701-8.256-10.124-16.719-13.513-25.861C66.211,250.16,65.653,250.146,64.699,250.115
					L64.699,250.115z"/>
			</g>
			<g opacity="0.8">
				<path fill="#FFFFFF" d="M170.153,301.898l-0.068-0.012c-10.661-1.682-20.679-4.277-30.626-7.939l-0.337-0.123l0.323-0.162
					c1.915-0.951,2.847-1.434,4.743-2.463l0.06-0.033l0.063,0.021c9.992,3.172,19.985,5.277,30.537,6.43l0.353,0.039l-0.264,0.232
					c-1.549,1.363-3.14,2.697-4.73,3.967L170.153,301.898L170.153,301.898z M139.908,293.781c9.793,3.578,19.664,6.129,30.157,7.789
					c1.482-1.182,2.956-2.418,4.399-3.682c-10.423-1.16-20.303-3.25-30.185-6.385C142.527,292.455,141.595,292.939,139.908,293.781
					L139.908,293.781z"/>
			</g>
			<g opacity="0.8">
				<path fill="#FFFFFF" d="M206.076,346.48l-0.065-0.004c-12.396-0.709-24.229-2.402-36.176-5.174l-0.358-0.084l0.313-0.197
					c2.56-1.656,5.073-3.373,7.474-5.104l0.051-0.039l0.065,0.012c11.941,2.113,23.684,3.148,35.898,3.158h0.363l-0.253,0.262
					c-2.332,2.441-4.774,4.84-7.263,7.125L206.076,346.48L206.076,346.48z M170.267,341.082c11.784,2.713,23.468,4.375,35.696,5.08
					c2.374-2.186,4.713-4.473,6.95-6.805c-12.077-0.029-23.703-1.061-35.523-3.148C175.101,337.859,172.707,339.5,170.267,341.082
					L170.267,341.082z"/>
			</g>
			<g opacity="0.8">
				<path fill="#FFFFFF" d="M65.593,273.162c-4.547,0-9.184-0.131-13.779-0.389l-0.116-0.006l-0.026-0.117
					c-1.57-7.047-2.507-13.936-2.852-21.061l-0.005-0.178l0.179,0.018c4.388,0.434,8.802,0.764,13.122,0.977l0.114,0.008
					l0.031,0.105c2.026,7.031,4.62,13.697,7.934,20.377l0.111,0.221l-0.248,0.002C68.579,273.146,67.073,273.162,65.593,273.162
					L65.593,273.162z M51.951,272.467c4.549,0.254,9.14,0.383,13.642,0.383c1.395,0,2.815-0.012,4.213-0.035
					c-3.253-6.59-5.81-13.17-7.811-20.102c-4.236-0.213-8.559-0.533-12.853-0.957C49.491,258.76,50.412,265.537,51.951,272.467
					L51.951,272.467z"/>
			</g>
		</g>
	</g>
</g>
<g>
	
		<linearGradient id="SVGID_3_" gradientUnits="userSpaceOnUse" x1="294.8965" y1="134.0029" x2="257.2656" y2="75.6923" gradientTransform="matrix(0.8485 0.5292 -0.5292 0.8485 3.7035 -147.4647)">
		<stop  offset="0" style="stop-color:#606F79"/>
		<stop  offset="0.261" style="stop-color:#86949D"/>
		<stop  offset="0.5929" style="stop-color:#B1BCC3"/>
		<stop  offset="0.8503" style="stop-color:#CCD4D9"/>
		<stop  offset="1" style="stop-color:#D6DCE0"/>
	</linearGradient>
	<polygon opacity="0.75" fill="url(#SVGID_3_)" points="151.569,38.484 210.324,140.888 213.467,142.611 187.965,54.738 	"/>
	
		<linearGradient id="SVGID_4_" gradientUnits="userSpaceOnUse" x1="311.5205" y1="124.7866" x2="272.187" y2="63.8378" gradientTransform="matrix(0.8485 0.5292 -0.5292 0.8485 3.7035 -147.4647)">
		<stop  offset="0" style="stop-color:#606F79"/>
		<stop  offset="0.261" style="stop-color:#86949D"/>
		<stop  offset="0.5929" style="stop-color:#B1BCC3"/>
		<stop  offset="0.8503" style="stop-color:#CCD4D9"/>
		<stop  offset="1" style="stop-color:#D6DCE0"/>
	</linearGradient>
	<polygon opacity="0.75" fill="url(#SVGID_4_)" points="187.965,54.738 213.467,142.611 215.209,139.451 210.291,25.591 	"/>
	
		<linearGradient id="SVGID_5_" gradientUnits="userSpaceOnUse" x1="232.2607" y1="45.4121" x2="264.2079" y2="77.3593" gradientTransform="matrix(0.8485 0.5292 -0.5292 0.8485 3.7035 -147.4647)">
		<stop  offset="0.0056" style="stop-color:#C6D800"/>
		<stop  offset="0.0373" style="stop-color:#C7D800"/>
		<stop  offset="0.6816" style="stop-color:#E0E44A"/>
		<stop  offset="1" style="stop-color:#E9E95F"/>
	</linearGradient>
	<polygon opacity="0.9" fill="url(#SVGID_5_)" points="210.291,25.591 175.817,12 151.569,38.484 187.965,54.738 	"/>
	
		<linearGradient id="SVGID_6_" gradientUnits="userSpaceOnUse" x1="268.4414" y1="82.3281" x2="332.6914" y2="82.3281" gradientTransform="matrix(0.8485 0.5292 -0.5292 0.8485 3.7035 -147.4647)">
		<stop  offset="0.0056" style="stop-color:#007BC6"/>
		<stop  offset="0.147" style="stop-color:#0081CA"/>
		<stop  offset="0.4148" style="stop-color:#0094D5"/>
		<stop  offset="0.7777" style="stop-color:#6BB9E8"/>
		<stop  offset="1" style="stop-color:#9CD6F5"/>
	</linearGradient>
	<polygon opacity="0.75" fill="url(#SVGID_6_)" points="212.494,25.03 215.396,139.383 216.514,139.995 225.603,30.172 	"/>
	
		<linearGradient id="SVGID_7_" gradientUnits="userSpaceOnUse" x1="313.083" y1="76.5215" x2="330.7302" y2="76.5215" gradientTransform="matrix(0.8485 0.5292 -0.5292 0.8485 3.7035 -147.4647)">
		<stop  offset="0.0056" style="stop-color:#007BC6"/>
		<stop  offset="0.147" style="stop-color:#0081CA"/>
		<stop  offset="0.4148" style="stop-color:#0094D5"/>
		<stop  offset="0.7777" style="stop-color:#6BB9E8"/>
		<stop  offset="1" style="stop-color:#9CD6F5"/>
	</linearGradient>
	<polygon opacity="0.75" fill="url(#SVGID_7_)" points="225.603,30.172 216.514,139.995 217.122,138.883 232.272,20.729 	"/>
	
		<linearGradient id="SVGID_8_" gradientUnits="userSpaceOnUse" x1="268.1084" y1="37.7402" x2="281.0294" y2="23.0176" gradientTransform="matrix(0.8485 0.5292 -0.5292 0.8485 3.7035 -147.4647)">
		<stop  offset="0.0056" style="stop-color:#D2DCDF"/>
		<stop  offset="0.4843" style="stop-color:#EBF0F1"/>
		<stop  offset="1" style="stop-color:#FFFFFF"/>
	</linearGradient>
	<polygon opacity="0.65" fill="url(#SVGID_8_)" points="219.44,15.894 212.494,25.03 225.603,30.172 232.272,20.729 	"/>
	
		<linearGradient id="SVGID_9_" gradientUnits="userSpaceOnUse" x1="286.96" y1="43.7607" x2="313.0187" y2="138.1354" gradientTransform="matrix(0.8485 0.5292 -0.5292 0.8485 3.7035 -147.4647)">
		<stop  offset="0" style="stop-color:#6D7C86"/>
		<stop  offset="0.2538" style="stop-color:#929FA8"/>
		<stop  offset="0.5889" style="stop-color:#BDC7CD"/>
		<stop  offset="0.8489" style="stop-color:#D8DEE2"/>
		<stop  offset="1" style="stop-color:#E2E7EA"/>
	</linearGradient>
	<polygon opacity="0.75" fill="url(#SVGID_9_)" points="204.382,35.7 214.725,140.607 215.848,141.218 217.798,41.213 	"/>
	
		<linearGradient id="SVGID_10_" gradientUnits="userSpaceOnUse" x1="291.3154" y1="31.9336" x2="320.1" y2="136.1801" gradientTransform="matrix(0.8485 0.5292 -0.5292 0.8485 3.7035 -147.4647)">
		<stop  offset="0" style="stop-color:#6D7C86"/>
		<stop  offset="0.2538" style="stop-color:#929FA8"/>
		<stop  offset="0.5889" style="stop-color:#BDC7CD"/>
		<stop  offset="0.8489" style="stop-color:#D8DEE2"/>
		<stop  offset="1" style="stop-color:#E2E7EA"/>
	</linearGradient>
	<polygon opacity="0.75" fill="url(#SVGID_10_)" points="217.798,41.213 215.848,141.218 216.454,140.101 224.938,31.112 	"/>
	
		<linearGradient id="SVGID_11_" gradientUnits="userSpaceOnUse" x1="267.9375" y1="49.8584" x2="281.7928" y2="34.0711" gradientTransform="matrix(0.8485 0.5292 -0.5292 0.8485 3.7035 -147.4647)">
		<stop  offset="0.0056" style="stop-color:#D2DCDF"/>
		<stop  offset="0.4843" style="stop-color:#EBF0F1"/>
		<stop  offset="1" style="stop-color:#FFFFFF"/>
	</linearGradient>
	<polygon opacity="0.8" fill="url(#SVGID_11_)" points="211.803,25.94 204.382,35.7 217.798,41.213 224.938,31.112 	"/>
	
		<linearGradient id="SVGID_12_" gradientUnits="userSpaceOnUse" x1="293.9707" y1="22.0986" x2="324.588" y2="132.9825" gradientTransform="matrix(0.8485 0.5292 -0.5292 0.8485 3.7035 -147.4647)">
		<stop  offset="0" style="stop-color:#6D7C86"/>
		<stop  offset="0.2538" style="stop-color:#929FA8"/>
		<stop  offset="0.5889" style="stop-color:#BDC7CD"/>
		<stop  offset="0.8489" style="stop-color:#D8DEE2"/>
		<stop  offset="1" style="stop-color:#E2E7EA"/>
	</linearGradient>
	<polygon opacity="0.27" fill="url(#SVGID_12_)" points="231.741,23.979 217.063,139.273 218.443,140.019 248.309,30.293 	"/>
	
		<linearGradient id="SVGID_13_" gradientUnits="userSpaceOnUse" x1="285.1328" y1="25.5962" x2="301.2401" y2="7.243" gradientTransform="matrix(0.8485 0.5292 -0.5292 0.8485 3.7035 -147.4647)">
		<stop  offset="0.0056" style="stop-color:#D2DCDF"/>
		<stop  offset="0.4843" style="stop-color:#EBF0F1"/>
		<stop  offset="1" style="stop-color:#FFFFFF"/>
	</linearGradient>
	<polygon opacity="0.7" fill="url(#SVGID_13_)" points="239.53,12.868 231.741,23.979 248.309,30.293 255.661,18.722 	"/>
	
		<linearGradient id="SVGID_14_" gradientUnits="userSpaceOnUse" x1="302.5957" y1="17.8711" x2="324.8694" y2="98.5379" gradientTransform="matrix(0.8485 0.5292 -0.5292 0.8485 3.7035 -147.4647)">
		<stop  offset="0" style="stop-color:#6D7C86"/>
		<stop  offset="0.2538" style="stop-color:#929FA8"/>
		<stop  offset="0.5889" style="stop-color:#BDC7CD"/>
		<stop  offset="0.8489" style="stop-color:#D8DEE2"/>
		<stop  offset="1" style="stop-color:#E2E7EA"/>
	</linearGradient>
	<polygon opacity="0.43" fill="url(#SVGID_14_)" points="248.309,30.293 218.443,140.019 219.183,138.653 255.661,18.722 	"/>
	
		<linearGradient id="SVGID_15_" gradientUnits="userSpaceOnUse" x1="305.9688" y1="21.8403" x2="336.4337" y2="132.1725" gradientTransform="matrix(0.8485 0.5292 -0.5292 0.8485 3.7035 -147.4647)">
		<stop  offset="0" style="stop-color:#6D7C86"/>
		<stop  offset="0.2538" style="stop-color:#929FA8"/>
		<stop  offset="0.5889" style="stop-color:#BDC7CD"/>
		<stop  offset="0.8489" style="stop-color:#D8DEE2"/>
		<stop  offset="1" style="stop-color:#E2E7EA"/>
	</linearGradient>
	<polygon opacity="0.62" fill="url(#SVGID_15_)" points="243.388,51.73 217.888,142.329 218.92,140.417 254.347,33.752 	"/>
	<polygon opacity="0.75" fill="#5A5A5A" points="219.239,41.805 215.967,141.284 217.888,142.329 243.388,51.73 	"/>
	
		<linearGradient id="SVGID_16_" gradientUnits="userSpaceOnUse" x1="284.4258" y1="47.7476" x2="308.1309" y2="20.7371" gradientTransform="matrix(0.8485 0.5292 -0.5292 0.8485 3.7035 -147.4647)">
		<stop  offset="0.0056" style="stop-color:#D2DCDF"/>
		<stop  offset="0.4843" style="stop-color:#EBF0F1"/>
		<stop  offset="1" style="stop-color:#FFFFFF"/>
	</linearGradient>
	<polygon opacity="0.85" fill="url(#SVGID_16_)" points="231.117,24.864 219.239,41.805 243.388,51.73 254.347,33.752 	"/>
	
		<linearGradient id="SVGID_17_" gradientUnits="userSpaceOnUse" x1="345.0488" y1="124.2627" x2="276.6024" y2="61.2022" gradientTransform="matrix(0.8485 0.5292 -0.5292 0.8485 3.7035 -147.4647)">
		<stop  offset="0" style="stop-color:#6D7C86"/>
		<stop  offset="0.1764" style="stop-color:#75848D"/>
		<stop  offset="0.4518" style="stop-color:#8A98A1"/>
		<stop  offset="0.7897" style="stop-color:#ADB8BF"/>
		<stop  offset="1" style="stop-color:#C6CFD4"/>
	</linearGradient>
	<polygon opacity="0.75" fill="url(#SVGID_17_)" points="189.449,55.404 213.588,142.678 216.757,144.416 230.084,73.548 	"/>
	
		<linearGradient id="SVGID_18_" gradientUnits="userSpaceOnUse" x1="272.8936" y1="44.6396" x2="302.5119" y2="74.258" gradientTransform="matrix(0.8485 0.5292 -0.5292 0.8485 3.7035 -147.4647)">
		<stop  offset="0.0056" style="stop-color:#C6D800"/>
		<stop  offset="0.0373" style="stop-color:#C7D800"/>
		<stop  offset="0.6816" style="stop-color:#E0E44A"/>
		<stop  offset="1" style="stop-color:#E9E95F"/>
	</linearGradient>
	<polygon fill="url(#SVGID_18_)" points="203.69,36.668 189.449,55.404 230.084,73.548 242.743,52.785 	"/>
	
		<linearGradient id="SVGID_19_" gradientUnits="userSpaceOnUse" x1="306.5635" y1="44.0283" x2="331.9119" y2="135.8303" gradientTransform="matrix(0.8485 0.5292 -0.5292 0.8485 3.7035 -147.4647)">
		<stop  offset="0" style="stop-color:#606F79"/>
		<stop  offset="0.3119" style="stop-color:#929FA8"/>
		<stop  offset="0.6221" style="stop-color:#BDC7CD"/>
		<stop  offset="0.8611" style="stop-color:#D8DEE2"/>
		<stop  offset="1" style="stop-color:#E2E7EA"/>
	</linearGradient>
	<polygon opacity="0.75" fill="url(#SVGID_19_)" points="230.084,73.548 216.757,144.416 217.831,142.438 242.743,52.785 	"/>
	
		<linearGradient id="SVGID_20_" gradientUnits="userSpaceOnUse" x1="327.2344" y1="130.1548" x2="268.2779" y2="75.8375" gradientTransform="matrix(0.8485 0.5292 -0.5292 0.8485 3.7035 -147.4647)">
		<stop  offset="0" style="stop-color:#171E23"/>
		<stop  offset="0.241" style="stop-color:#576670"/>
		<stop  offset="0.5042" style="stop-color:#929FA8"/>
		<stop  offset="0.7278" style="stop-color:#BDC7CD"/>
		<stop  offset="0.9" style="stop-color:#D8DEE2"/>
		<stop  offset="1" style="stop-color:#E2E7EA"/>
	</linearGradient>
	<polygon opacity="0.75" fill="url(#SVGID_20_)" points="187.613,83.989 213.605,145.326 214.668,143.387 202.741,62.582 	"/>
	
		<linearGradient id="SVGID_21_" gradientUnits="userSpaceOnUse" x1="316.0674" y1="103.0713" x2="340.6052" y2="103.0713" gradientTransform="matrix(0.8485 0.5292 -0.5292 0.8485 3.7035 -147.4647)">
		<stop  offset="0.0056" style="stop-color:#007BC6"/>
		<stop  offset="0.147" style="stop-color:#0081CA"/>
		<stop  offset="0.4148" style="stop-color:#0094D5"/>
		<stop  offset="0.7777" style="stop-color:#6BB9E8"/>
		<stop  offset="1" style="stop-color:#9CD6F5"/>
	</linearGradient>
	<polygon opacity="0.82" fill="url(#SVGID_21_)" points="215.45,97.555 215.656,146.458 216.71,144.506 229.468,74.563 	"/>
	
		<linearGradient id="SVGID_22_" gradientUnits="userSpaceOnUse" x1="294.4512" y1="116.5938" x2="343.8918" y2="116.5938" gradientTransform="matrix(0.8485 0.5292 -0.5292 0.8485 3.7035 -147.4647)">
		<stop  offset="0.0056" style="stop-color:#007BC6"/>
		<stop  offset="0.147" style="stop-color:#0081CA"/>
		<stop  offset="0.4148" style="stop-color:#0094D5"/>
		<stop  offset="0.7777" style="stop-color:#6BB9E8"/>
		<stop  offset="1" style="stop-color:#9CD6F5"/>
	</linearGradient>
	<polygon opacity="0.7" fill="url(#SVGID_22_)" points="189.136,84.734 213.72,145.39 215.656,146.458 215.45,97.555 	"/>
	
		<linearGradient id="SVGID_23_" gradientUnits="userSpaceOnUse" x1="345.8643" y1="99.2231" x2="316.9454" y2="54.4122" gradientTransform="matrix(0.8485 0.5292 -0.5292 0.8485 3.7035 -147.4647)">
		<stop  offset="0" style="stop-color:#606F79"/>
		<stop  offset="0.261" style="stop-color:#86949D"/>
		<stop  offset="0.5929" style="stop-color:#B1BCC3"/>
		<stop  offset="0.8503" style="stop-color:#CCD4D9"/>
		<stop  offset="1" style="stop-color:#D6DCE0"/>
	</linearGradient>
	<polygon opacity="0.75" fill="url(#SVGID_23_)" points="244.935,52.366 218.01,142.394 219.938,143.449 270.783,62.99 	"/>
	
		<linearGradient id="SVGID_24_" gradientUnits="userSpaceOnUse" x1="313.958" y1="19.481" x2="339.4902" y2="45.0131" gradientTransform="matrix(0.8485 0.5292 -0.5292 0.8485 3.704 -147.4647)">
		<stop  offset="0.0056" style="stop-color:#C6D800"/>
		<stop  offset="0.0373" style="stop-color:#C7D800"/>
		<stop  offset="0.6816" style="stop-color:#E0E44A"/>
		<stop  offset="1" style="stop-color:#E9E95F"/>
	</linearGradient>
	<polygon fill="url(#SVGID_24_)" points="270.783,62.99 280.607,43.798 255.835,34.319 244.935,52.366 	"/>
	<polygon opacity="0.75" fill="#595959" points="238.298,63.352 217.425,143.473 219.363,144.532 264.78,74.708 	"/>
	<polygon fill="#919191" points="264.78,74.708 270.002,64.512 244.069,53.794 238.298,63.352 	"/>
	<polygon opacity="0.75" fill="#5A5A5A" points="244.157,79.703 217.786,144.968 218.269,144.077 249.743,69.744 	"/>
	<polygon opacity="0.75" fill="#A1A1A1" points="231.765,74.17 216.884,144.474 217.786,144.968 244.157,79.703 	"/>
	<polygon opacity="0.75" fill="#ABABAB" points="244.157,79.703 249.743,69.744 237.595,64.514 231.765,74.17 	"/>
	<polygon opacity="0.99" fill="#B2B2B2" points="245.722,80.401 217.899,145.029 218.816,145.535 258.761,86.222 	"/>
	<polygon opacity="0.75" fill="#ADADAD" points="258.761,86.222 264.046,75.902 251.278,70.406 245.722,80.401 	"/>
	
		<linearGradient id="SVGID_25_" gradientUnits="userSpaceOnUse" x1="241.2578" y1="105.5449" x2="281.5385" y2="59.6477" gradientTransform="matrix(0.8485 0.5292 -0.5292 0.8485 3.7035 -147.4647)">
		<stop  offset="0.0056" style="stop-color:#D2DCDF"/>
		<stop  offset="0.4843" style="stop-color:#EBF0F1"/>
		<stop  offset="1" style="stop-color:#FFFFFF"/>
	</linearGradient>
	<polygon opacity="0.95" fill="url(#SVGID_25_)" points="187.613,83.989 202.741,62.582 159.07,43.004 142.386,61.953 	"/>
	
		<linearGradient id="SVGID_26_" gradientUnits="userSpaceOnUse" x1="293.0352" y1="139.8311" x2="243.6041" y2="63.2356" gradientTransform="matrix(0.8485 0.5292 -0.5292 0.8485 3.7035 -147.4647)">
		<stop  offset="0" style="stop-color:#606F79"/>
		<stop  offset="0.261" style="stop-color:#86949D"/>
		<stop  offset="0.5929" style="stop-color:#B1BCC3"/>
		<stop  offset="0.8503" style="stop-color:#CCD4D9"/>
		<stop  offset="1" style="stop-color:#D6DCE0"/>
	</linearGradient>
	<polygon opacity="0.75" fill="url(#SVGID_26_)" points="142.386,61.953 209.94,143.302 213.605,145.326 187.613,83.989 	"/>
	
		<linearGradient id="SVGID_27_" gradientUnits="userSpaceOnUse" x1="170.2568" y1="189.1748" x2="211.8086" y2="189.1748" gradientTransform="matrix(0.9574 -0.2887 0.2887 0.9574 -27.957 -45.4848)">
		<stop  offset="0.0056" style="stop-color:#D2DCDF"/>
		<stop  offset="0.4843" style="stop-color:#EBF0F1"/>
		<stop  offset="1" style="stop-color:#FFFFFF"/>
	</linearGradient>
	<polygon opacity="0.95" fill="url(#SVGID_27_)" points="215.45,97.555 229.468,74.563 204.208,63.239 189.136,84.734 	"/>
</g>
<path fill="#0E71B8" d="M134.858,175.901v14.118h-18.271v-14.118v-6.645v-6.645h38.202v-2.076h-31.974v-13.288l41.19-20.318
	l41.445,20.318v13.288h-32.805v2.076h20.346h9.137h9.134v27.407h-18.271v-14.118h-20.346v15.364h-17.857v-15.364H134.858z
	 M163.509,247.738c-5.813,0-8.72-2.906-8.72-8.719v-9.965h-13.702v4.566H122.4v-29.484v-5.398v-5.398h63.949h9.551h9.137v24.915
	v2.907l9.549,2.907v7.476c-0.278,10.797-6.642,16.193-19.1,16.193H163.509z M152.3,183.791h-14.12v-5.814h14.12V183.791z
	 M152.3,191.265h-14.12v-5.813h14.12V191.265z M154.789,204.137h-13.702v2.492h13.702V204.137z M154.789,215.764h-13.702v2.491
	h13.702V215.764z M173.891,206.629h12.458v-2.492h-12.458V206.629z M173.891,218.255h12.458v-2.491h-12.458V218.255z
	 M194.239,229.055h-20.349c0.273,1.932,1.381,2.904,3.322,2.904h13.706C193.129,231.682,194.239,230.715,194.239,229.055z
	 M190.086,183.791h-13.702v-5.814h13.702V183.791z M190.086,191.265h-13.702v-5.813h13.702V191.265z"/>
<path fill="#0E71B8" d="M58.584,223.179v-14.612h7.149v-9.015h-6.217v-13.99h6.217v-13.057h13.99v13.057h6.219v-13.057h13.99v13.057
	h8.083v13.99h-8.083v9.015h9.015v14.612H96.201c3.935,4.561,8.395,8.704,13.368,12.436l-10.258,12.123
	c-5.393-4.146-10.989-9.637-16.791-16.477l9.328-8.083H71.952l9.327,7.459c-4.353,5.598-9.638,11.195-15.855,16.789l-9.326-10.57
	v10.881H42.106v-34.196c-0.83,1.039-1.865,2.175-3.108,3.419l-4.042-18.031c5.387-7.665,9.74-16.89,13.058-27.669l13.991,4.664
	c-2.075,6.426-4.043,11.813-5.907,16.166v42.902c4.353-3.934,8.083-7.875,11.189-11.813H58.584z M85.942,208.567v-9.015h-6.219
	v9.015H85.942z"/>
<path fill="#BDD596" d="M226.443,239.68v-9.881h24.179v-1.561h-19.499v-3.639v-3.64V203.8h5.979h5.719h27.039h5.981h5.72v17.159
	v3.64v3.639h-19.498v1.561h24.958v9.881h-24.958V248h-11.441v-8.32H226.443z M244.642,202.239h-5.719h-5.463h-5.458V185.08h5.458
	h5.463h5.719h5.461h5.46v17.159h-5.46H244.642z M244.642,192.62h-5.719v2.079h5.719V192.62z M250.622,211.079h-7.801v1.561h7.801
	V211.079z M250.622,219.399h-7.801v1.56h7.801V219.399z M274.542,202.239h-5.981h-5.457h-5.462v-17.42h5.462h5.457h5.981h5.459
	h5.461v17.42h-5.461H274.542z M262.063,212.639h7.797v-1.561h-7.797V212.639z M262.063,220.959h7.797v-1.56h-7.797V220.959z
	 M274.542,192.359h-5.981v2.339h5.981V192.359z"/>
<path fill="#BDD596" d="M316.557,246.959h-11.959V219.66c-1.041,1.214-2.08,2.428-3.12,3.639l-3.12-15.339
	c4.681-6.586,8.404-14.385,11.179-23.399l11.7,3.899c-1.56,4.854-3.119,9.1-4.68,12.74V246.959z M345.936,205.36l12.221,3.38
	c-2.254,11.269-4.25,19.758-5.98,25.479h9.102v12.48h-42.9v-12.48h20.541C341.341,225.898,343.682,216.28,345.936,205.36z
	 M331.637,206.399c2.945,7.109,5.2,14.82,6.76,23.14l-12.219,2.34c-1.561-7.28-3.641-14.3-6.242-21.06L331.637,206.399z
	 M333.197,185.08h12.479v7.279h13.78v12.22h-38.74v-12.22h12.481V185.08z"/>
<polygon fill="#FFFFFF" points="161.936,136.743 170.036,136.743 166.354,143.37 171.141,143.37 160.464,154.048 163.041,147.42 
	158.622,147.42 "/>
<path fill="#999999" d="M210.604,272.045c0.14,0,0.9,0.602,2.288,1.803c0,0.395-0.185,0.646-0.555,0.762
	c-0.393,0.094-0.67,0.209-0.833,0.348c-1.225,1.434-2.494,2.668-3.811,3.709v17.504c0,0.324-0.21,0.486-0.624,0.486h-1.318
	c-0.415,0-0.625-0.162-0.625-0.486v-15.666c-1.247,0.9-2.796,1.895-4.646,2.98c-0.691-0.764-1.213-1.271-1.559-1.525
	c-0.162-0.207-0.243-0.348-0.243-0.416c0-0.115,0.058-0.207,0.173-0.277c2.611-1.225,4.91-2.705,6.899-4.438
	c1.501-1.27,2.992-2.795,4.472-4.576C210.338,272.113,210.466,272.045,210.604,272.045z M208.594,264.695l2.219,1.527
	c0.275,0.184,0.417,0.439,0.417,0.76c0,0.188-0.163,0.279-0.485,0.279c-0.579,0-0.984,0.104-1.214,0.313
	c-2.865,2.682-5.512,4.635-7.938,5.857c-0.256,0-0.452-0.07-0.59-0.209c-0.324-0.414-0.647-0.773-0.972-1.074
	c-0.208-0.16-0.312-0.266-0.312-0.313c0-0.113,0.093-0.195,0.277-0.24c0.878-0.371,1.71-0.834,2.495-1.389
	c1.249-0.715,2.38-1.525,3.397-2.426c0.925-0.877,1.699-1.791,2.324-2.738C208.374,264.813,208.501,264.695,208.594,264.695z
	 M213.239,275.857h17.402c0.321,0,0.484,0.162,0.484,0.486v1.178c0,0.324-0.163,0.486-0.484,0.486h-5.201v16.084
	c0,1.803-1.434,2.705-4.298,2.705l-2.912-0.141c-0.162,0-0.243-0.242-0.243-0.729c-0.046-0.484-0.267-1.096-0.658-1.836v-0.07
	c1.294,0.23,2.52,0.348,3.674,0.348c1.248,0,1.872-0.416,1.872-1.248v-15.113h-9.636c-0.324,0-0.485-0.162-0.485-0.486v-1.178
	C212.754,276.02,212.915,275.857,213.239,275.857z M215.04,266.359h13.659c0.277,0,0.416,0.209,0.416,0.623v1.041
	c0,0.416-0.139,0.625-0.416,0.625H215.04c-0.276,0-0.414-0.209-0.414-0.625v-1.041C214.626,266.568,214.764,266.359,215.04,266.359z
	"/>
<path fill="#999999" d="M257.419,266.498c-0.278,0-0.509,0.025-0.693,0.07c-1.386,0.557-2.937,0.982-4.645,1.281v2.531h7.278
	c0.139,0,0.209,0.137,0.209,0.416v1.109c0,0.371-0.07,0.555-0.209,0.555h-7.278v2.287h5.962c0.369,0,0.555,0.117,0.555,0.346v10.123
	c0,0.277-0.186,0.416-0.555,0.416h-5.962v2.496h6.239c0.185,0,0.277,0.137,0.277,0.416v1.109c0,0.369-0.093,0.555-0.277,0.555
	h-6.239v2.426c1.271-0.139,2.634-0.299,4.09-0.484c1.248-0.211,2.265-0.395,3.051-0.555c0.092,0,0.138,0.115,0.138,0.344
	c-0.138,0.488-0.218,1.02-0.243,1.596c0,0.232-0.057,0.348-0.173,0.348c-1.178,0.092-2.369,0.221-3.568,0.381
	c-3.838,0.648-7.802,1.283-11.892,1.906c-0.208,0.695-0.416,1.064-0.623,1.111c-0.139,0-0.267-0.068-0.382-0.209l-0.867-3.051
	c1.11-0.092,3.768-0.439,7.974-1.039v-2.773h-6.377c-0.141,0-0.21-0.186-0.21-0.555v-1.109c0-0.279,0.069-0.416,0.21-0.416h6.377
	v-2.496h-6.102c-0.324,0-0.485-0.139-0.485-0.416v-10.123c0-0.229,0.161-0.346,0.485-0.346h6.102v-2.287h-7.35
	c-0.185,0-0.276-0.184-0.276-0.555v-1.109c0-0.279,0.092-0.416,0.276-0.416h7.35v-2.08c-2.079,0.232-4.206,0.348-6.377,0.348
	c-0.348,0-0.567-0.127-0.66-0.383c-0.046-0.438-0.197-0.854-0.45-1.246c-0.094-0.139-0.139-0.313-0.139-0.521
	c3.374-0.023,6.008-0.172,7.903-0.451c2.264-0.252,4.31-0.771,6.136-1.557c0.231-0.094,0.404-0.141,0.52-0.141
	c0.138,0,0.277,0.047,0.415,0.141c1.11,0.969,1.665,1.592,1.665,1.869c0,0.416-0.139,0.623-0.416,0.623L257.419,266.498z
	 M245.493,279.186h4.092v-2.426h-4.092V279.186z M249.585,283.621v-2.424h-4.092v2.424H249.585z M252.081,276.76v2.426h4.09v-2.426
	H252.081z M256.171,283.621v-2.424h-4.09v2.424H256.171z M260.746,272.322h3.779c0.022-1.479,0.034-3.096,0.034-4.854
	c0-0.486-0.047-1.408-0.138-2.773c0-0.184,0.159-0.277,0.485-0.277l2.496,0.242c0.369,0.07,0.554,0.174,0.554,0.314
	c0,0.322-0.116,0.531-0.348,0.623c-0.463,0.115-0.692,0.369-0.692,0.762c0,2.219-0.022,4.207-0.069,5.963h6.171
	c0.276,0,0.415,0.207,0.415,0.625c-0.046,6.238-0.186,10.744-0.415,13.518c-0.232,3.258-0.613,5.707-1.145,7.348
	c-0.394,1.711-1.583,2.566-3.57,2.566c-1.595,0-2.416-0.242-2.461-0.727c-0.14-0.488-0.45-1.076-0.936-1.77v-0.275
	c1.247,0.09,2.379,0.137,3.396,0.137c0.947,0,1.525-0.611,1.732-1.836c0.3-1.018,0.566-2.936,0.798-5.756
	c0.208-2.357,0.348-6.205,0.417-11.543h-4.403c-0.093,3.051-0.242,5.512-0.45,7.385c-0.416,3.627-1.122,6.758-2.115,9.395
	c-0.67,1.893-1.49,3.648-2.46,5.268h-0.452c-0.739-0.232-1.443-0.498-2.114-0.797c-0.114-0.07-0.171-0.197-0.171-0.383
	c1.222-1.594,2.217-3.338,2.979-5.232c0.81-1.873,1.41-4.264,1.802-7.176c0.279-1.965,0.475-4.783,0.59-8.459h-3.709
	c-0.277,0-0.414-0.207-0.414-0.623v-1.039C260.332,272.529,260.469,272.322,260.746,272.322z"/>
<path fill="#999999" d="M285.793,268.369h13.797v-3.535c0-0.275,0.207-0.416,0.622-0.416c1.71,0,2.565,0.141,2.565,0.416
	c0,0.348-0.115,0.545-0.345,0.59c-0.233,0.023-0.349,0.244-0.349,0.658v2.287h13.312c0.277,0,0.418,0.164,0.418,0.486v1.178
	c0,0.324-0.141,0.484-0.418,0.484h-12.339c0.899,1.182,1.789,2.209,2.669,3.086c1.432,1.318,2.818,2.346,4.158,3.086
	c1.896,1.271,4.195,2.277,6.899,3.016c0.277,0.047,0.415,0.152,0.415,0.314c0,0.16-0.057,0.299-0.173,0.414
	c-0.485,0.371-0.961,0.785-1.422,1.248c-0.115,0.186-0.208,0.277-0.277,0.277c-2.032-0.693-3.72-1.445-5.061-2.254
	c-0.208-0.092-0.394-0.184-0.555-0.277v11.404c0,0.232-0.161,0.348-0.486,0.348h-16.222c-0.417,0-0.624-0.115-0.624-0.348v-11.646
	c0-0.275,0.207-0.416,0.624-0.416h6.587v-6.066c-1.11,1.156-2.093,2.08-2.947,2.773c-1.434,1.318-3.016,2.52-4.749,3.605
	c-1.966,1.154-3.929,2.16-5.894,3.016c-0.23,0-0.415-0.08-0.554-0.242c-0.486-0.463-0.936-0.867-1.352-1.213
	c-0.069-0.162-0.104-0.277-0.104-0.348c1.871-0.717,3.397-1.398,4.575-2.045c1.756-0.809,3.571-1.963,5.442-3.467
	c1.109-0.879,2.6-2.299,4.472-4.266h-12.687c-0.277,0-0.416-0.16-0.416-0.484v-1.178
	C285.377,268.533,285.516,268.369,285.793,268.369z M285.377,293.328h30.573c0.324,0,0.485,0.186,0.485,0.555v1.109
	c0,0.324-0.161,0.484-0.485,0.484h-30.573c-0.324,0-0.485-0.16-0.485-0.484v-1.109C284.892,293.514,285.053,293.328,285.377,293.328
	z M294.875,283.83h12.34v-2.91h-12.34V283.83z M307.215,289.031v-2.914h-12.34v2.914H307.215z M302.084,278.77h6.447
	c-1.248-0.809-2.402-1.709-3.466-2.705c-0.926-0.854-1.918-1.918-2.981-3.188V278.77z"/>
<path fill="#999999" d="M327.684,270.381h11.511c0.323,0,0.485,0.186,0.485,0.555v1.109c0,0.416-0.162,0.625-0.485,0.625h-11.511
	c-0.276,0-0.414-0.209-0.414-0.625v-1.109C327.27,270.566,327.407,270.381,327.684,270.381z M329.071,284.871h8.874
	c0.415,0,0.624,0.115,0.624,0.346v10.814c0,0.324-0.209,0.486-0.624,0.486h-1.386c-0.37,0-0.555-0.162-0.555-0.486v-1.801h-4.924
	v1.801c0,0.324-0.207,0.486-0.623,0.486h-1.387c-0.37,0-0.554-0.162-0.554-0.486v-10.676
	C328.518,285.033,328.701,284.871,329.071,284.871z M329.071,275.094h8.597c0.324,0,0.485,0.211,0.485,0.625v1.041
	c0,0.414-0.161,0.623-0.485,0.623h-8.597c-0.276,0-0.416-0.209-0.416-0.623v-1.041C328.655,275.305,328.795,275.094,329.071,275.094
	z M329.071,279.811h8.597c0.324,0,0.485,0.209,0.485,0.623v1.109c0,0.371-0.161,0.555-0.485,0.555h-8.597
	c-0.276,0-0.416-0.184-0.416-0.555v-1.109C328.655,280.02,328.795,279.811,329.071,279.811z M329.419,265.736h8.526
	c0.323,0,0.486,0.16,0.486,0.486v1.176c0,0.326-0.163,0.486-0.486,0.486h-8.526c-0.325,0-0.486-0.16-0.486-0.486v-1.176
	C328.933,265.896,329.094,265.736,329.419,265.736z M331.081,292.082h4.924v-5.063h-4.924V292.082z M345.018,264.35l2.461,0.902
	c0.208,0.184,0.312,0.346,0.312,0.484c0,0.16-0.068,0.277-0.208,0.346c-0.276,0-0.45,0.15-0.52,0.451
	c-0.325,0.996-0.602,1.861-0.832,2.6h12.237c0.322,0,0.484,0.209,0.484,0.623c-0.07,7.305-0.255,12.549-0.555,15.738
	c-0.3,3.836-0.751,6.678-1.352,8.527c-0.486,1.988-1.907,2.982-4.265,2.982c-1.617,0-2.461-0.207-2.53-0.625
	c-0.114-0.555-0.473-1.18-1.073-1.873v-0.275c1.315,0.092,2.518,0.139,3.604,0.139c1.248,0,2.021-0.707,2.323-2.117
	c0.393-1.178,0.727-3.465,1.005-6.861c0.301-2.771,0.473-7.43,0.521-13.971h-11.268c-0.484,1.156-1.027,2.254-1.629,3.295
	c-0.555,0.922-1.19,1.766-1.907,2.529c-0.254,0-0.484-0.045-0.692-0.139c-0.485-0.209-0.948-0.393-1.386-0.553
	c-0.185-0.072-0.278-0.141-0.278-0.209c0-0.092,0.058-0.174,0.173-0.244c1.039-1.129,1.954-2.529,2.74-4.193
	c0.529-0.947,0.947-1.953,1.248-3.016c0.438-1.086,0.817-2.531,1.143-4.332C344.843,264.418,344.924,264.35,345.018,264.35z
	 M343.49,275.719h9.152c0.416,0,0.624,0.139,0.624,0.416v12.549c0,0.416-0.208,0.625-0.624,0.625h-7.209v2.631
	c0,0.279-0.187,0.418-0.555,0.418h-1.389c-0.229,0-0.344-0.139-0.344-0.418v-15.805C343.146,275.857,343.261,275.719,343.49,275.719
	z M345.434,281.336h5.407v-3.605h-5.407V281.336z M345.434,287.158h5.407v-3.674h-5.407V287.158z"/>
<g>
	<path fill="#666666" d="M206.361,315.758c0,1.178-0.433,2.199-1.298,3.064c-0.854,0.854-1.87,1.281-3.047,1.281
		c-1.2,0-2.228-0.427-3.082-1.281c-0.854-0.865-1.281-1.887-1.281-3.064c0-1.223,0.427-2.25,1.281-3.081
		c0.854-0.854,1.881-1.281,3.082-1.281c1.177,0,2.192,0.428,3.047,1.281C205.929,313.508,206.361,314.535,206.361,315.758z
		 M205.946,315.758c0-1.084-0.375-2.025-1.125-2.821c-0.797-0.773-1.731-1.16-2.805-1.16c-1.085,0-2.025,0.387-2.822,1.16
		c-0.75,0.796-1.125,1.737-1.125,2.821c0,1.073,0.375,2.003,1.125,2.787c0.796,0.751,1.737,1.126,2.822,1.126
		c1.073,0,2.008-0.375,2.805-1.126C205.571,317.761,205.946,316.831,205.946,315.758z M204.613,317.091
		c-0.589,1.178-1.385,1.766-2.389,1.766c-0.831,0-1.512-0.271-2.043-0.813c-0.554-0.554-0.831-1.264-0.831-2.129
		c0-0.958,0.243-1.72,0.727-2.285c0.496-0.565,1.211-0.849,2.147-0.849c0.992,0,1.766,0.537,2.319,1.61h-0.831
		c-0.462-0.646-0.958-0.97-1.488-0.97c-1.397,0-2.095,0.831-2.095,2.493c0,0.601,0.196,1.125,0.588,1.575
		c0.404,0.484,0.906,0.728,1.506,0.728c0.635,0,1.143-0.375,1.523-1.126H204.613z"/>
	<path fill="#666666" d="M214.604,319.664h-4.154c0.072-1.142,0.63-2.163,1.672-3.066c1.074-0.931,1.615-1.659,1.622-2.187
		c0-0.343-0.093-0.653-0.277-0.93c-0.197-0.35-0.481-0.524-0.851-0.524c-0.824,0-1.282,0.537-1.375,1.612h-0.781
		c0.178-1.418,0.896-2.127,2.156-2.127c0.567,0,1.022,0.182,1.365,0.544c0.356,0.383,0.534,0.857,0.534,1.425
		c0,0.652-0.534,1.461-1.603,2.424c-0.87,0.771-1.395,1.497-1.572,2.176h3.264V319.664z"/>
	<path fill="#666666" d="M221.655,316.182c0,0.871-0.126,1.626-0.376,2.266c-0.343,0.896-0.887,1.345-1.632,1.345
		c-0.792,0-1.362-0.438-1.712-1.315c-0.244-0.606-0.366-1.371-0.366-2.295c0-2.493,0.692-3.739,2.078-3.739
		c0.771,0,1.321,0.459,1.651,1.375C221.536,314.464,221.655,315.252,221.655,316.182z M220.884,316.182
		c0-0.686-0.066-1.306-0.198-1.859c-0.211-0.857-0.558-1.286-1.038-1.286c-0.871,0-1.307,1.049-1.307,3.146
		c0,0.732,0.063,1.339,0.188,1.82c0.218,0.791,0.59,1.187,1.118,1.187c0.468,0,0.804-0.408,1.009-1.227
		C220.808,317.422,220.884,316.828,220.884,316.182z"/>
	<path fill="#666666" d="M227.399,319.624h-0.712v-6.4c-0.554,0.311-1.082,0.534-1.583,0.673v-0.722
		c0.58-0.06,1.085-0.268,1.514-0.623h0.781V319.624z"/>
	<path fill="#666666" d="M235.836,317.319c0,0.666-0.162,1.233-0.485,1.701c-0.375,0.515-0.884,0.771-1.522,0.771
		c-0.772,0-1.333-0.392-1.682-1.177c-0.265-0.58-0.396-1.329-0.396-2.245c0-2.618,0.756-3.928,2.266-3.928
		c0.481,0,0.867,0.136,1.157,0.405c0.237,0.238,0.445,0.61,0.623,1.118h-0.88c-0.211-0.659-0.512-0.989-0.9-0.989
		c-0.903,0-1.398,0.943-1.483,2.829c0.494-0.402,1.002-0.604,1.523-0.604c0.56,0,1.005,0.212,1.335,0.634
		C235.688,316.244,235.836,316.739,235.836,317.319z M235.064,317.319c0-0.35-0.096-0.683-0.287-0.999
		c-0.211-0.376-0.501-0.563-0.87-0.563c-0.455,0-0.917,0.26-1.386,0.781c0.007,1.794,0.442,2.69,1.307,2.69
		c0.448,0,0.777-0.234,0.988-0.702C234.981,318.17,235.064,317.768,235.064,317.319z"/>
	<path fill="#666666" d="M242.154,311.513c0.619,0.198,0.93,0.33,0.93,0.396c0,0.06-0.04,0.089-0.119,0.089
		c-0.092,0-0.138,0.03-0.138,0.09c-0.291,0.64-0.66,1.354-1.108,2.146c-0.218,0.396-0.445,0.762-0.683,1.098
		c1.688-0.165,3.37-0.369,5.045-0.613c-0.304-0.541-0.663-1.068-1.078-1.583c0-0.053,0.191-0.171,0.574-0.355
		c0.514,0.652,0.92,1.256,1.216,1.81c0.304,0.502,0.564,1.039,0.782,1.612c0,0.033-0.244,0.119-0.732,0.258
		c-0.065-0.316-0.208-0.692-0.425-1.128c-1.966,0.277-4.142,0.531-6.529,0.762c-0.118,0-0.208,0.05-0.267,0.148
		c-0.026,0.118-0.079,0.178-0.158,0.178c-0.093,0-0.271-0.31-0.534-0.93c0.461-0.026,0.916-0.06,1.364-0.099
		c0.481-0.817,0.927-1.672,1.336-2.563c0.171-0.429,0.313-0.851,0.425-1.266C242.062,311.529,242.095,311.513,242.154,311.513z
		 M240.373,316.677h5.976c0.092,0,0.138,0.039,0.138,0.118v3.858c0,0.079-0.046,0.118-0.138,0.118h-0.396
		c-0.105,0-0.158-0.039-0.158-0.118v-0.534h-4.887v0.475c0,0.092-0.046,0.139-0.138,0.139h-0.396c-0.118,0-0.178-0.047-0.178-0.139
		v-3.739C240.195,316.735,240.255,316.677,240.373,316.677z M240.907,319.506h4.887v-2.177h-4.887V319.506z"/>
	<path fill="#666666" d="M251.224,314.045c0.297,0.139,0.534,0.28,0.713,0.426c0.224,0.165,0.422,0.313,0.593,0.445l-0.049,0.059
		c-0.198,0.265-0.301,0.396-0.307,0.396c-0.251-0.212-0.512-0.396-0.781-0.555c-0.218-0.151-0.393-0.257-0.524-0.316
		c0-0.026,0.085-0.161,0.257-0.405C251.165,314.062,251.197,314.045,251.224,314.045z M251.402,311.869
		c0.283,0.158,0.518,0.313,0.702,0.465c0.211,0.178,0.386,0.333,0.524,0.465c0,0.013-0.01,0.039-0.03,0.079
		c-0.204,0.264-0.313,0.396-0.326,0.396c-0.225-0.224-0.465-0.426-0.722-0.604c-0.191-0.165-0.36-0.273-0.505-0.326
		c0-0.04,0.099-0.178,0.297-0.416C251.362,311.889,251.382,311.869,251.402,311.869z M252.45,316.598
		c0.033,0,0.053,0.026,0.06,0.079c0.158,0.35,0.237,0.54,0.237,0.573c0,0.046-0.01,0.093-0.029,0.139
		c-0.178,0.726-0.353,1.349-0.524,1.869c-0.093,0.29-0.211,0.613-0.356,0.97c-0.026,0.093-0.039,0.201-0.039,0.326
		c0,0.093-0.02,0.139-0.06,0.139c-0.046,0-0.254-0.208-0.623-0.623c-0.033-0.02-0.057-0.05-0.069-0.089
		c0-0.053,0.01-0.099,0.029-0.139c0.139-0.191,0.271-0.429,0.396-0.712c0.19-0.376,0.372-0.805,0.544-1.286
		c0.138-0.429,0.264-0.817,0.376-1.167C252.411,316.624,252.431,316.598,252.45,316.598z M253.104,315.192l0.445,0.158
		c0.072,0.026,0.108,0.06,0.108,0.1c0,0.032-0.013,0.059-0.039,0.079c-0.04,0-0.063,0.029-0.069,0.089
		c-0.093,0.389-0.198,0.695-0.316,0.92c-0.021,0.039-0.037,0.06-0.05,0.06c-0.033,0-0.076-0.011-0.129-0.03
		c-0.086-0.046-0.182-0.086-0.286-0.118c-0.04-0.014-0.06-0.023-0.06-0.03c0-0.013,0.006-0.036,0.02-0.069
		c0.099-0.185,0.168-0.355,0.208-0.514c0.065-0.185,0.111-0.373,0.139-0.564C253.08,315.219,253.09,315.192,253.104,315.192z
		 M254.014,311.651l0.573,0.297c0.026,0.033,0.04,0.053,0.04,0.059c0,0.047-0.043,0.069-0.129,0.069
		c-0.105,0-0.168,0.037-0.188,0.109c-0.191,0.316-0.363,0.606-0.515,0.87c0.105,0.119,0.218,0.241,0.336,0.366
		c0.014-0.02,0.023-0.036,0.03-0.05c0.204-0.297,0.386-0.566,0.544-0.811c0.329,0.29,0.494,0.455,0.494,0.494
		c0,0.02-0.017,0.03-0.049,0.03c-0.086,0-0.139,0.013-0.158,0.039c-0.337,0.436-0.663,0.848-0.979,1.236
		c0.23-0.013,0.484-0.022,0.762-0.029c-0.04-0.125-0.089-0.234-0.148-0.326c0-0.033,0.118-0.119,0.356-0.258
		c0.111,0.225,0.204,0.433,0.276,0.623c0.079,0.159,0.146,0.34,0.198,0.545l-0.436,0.099c-0.02-0.099-0.063-0.23-0.129-0.396
		l-0.524,0.099v1.741c0,0.053-0.032,0.079-0.099,0.079h-0.336c-0.066,0-0.099-0.026-0.099-0.079v-1.652l-0.732,0.109
		c-0.125,0.118-0.198,0.178-0.218,0.178s-0.066-0.218-0.139-0.653c0-0.013,0.218-0.029,0.653-0.049
		c0.218-0.264,0.389-0.495,0.515-0.692c-0.218-0.211-0.38-0.363-0.485-0.455c-0.191-0.126-0.386-0.248-0.583-0.366
		c0-0.04,0.092-0.158,0.276-0.356c0.02-0.026,0.04-0.039,0.06-0.039c0.105,0.086,0.201,0.171,0.287,0.257
		c0.085-0.151,0.164-0.29,0.237-0.415C253.846,312.034,253.947,311.81,254.014,311.651z M253.756,316.973h5.579
		c0.093,0,0.139,0.033,0.139,0.1v1.207c0,0.092-0.046,0.138-0.139,0.138h-4.886c-0.033,0.165-0.069,0.311-0.109,0.436h5.49
		c0.145,0,0.218,0.033,0.218,0.099c-0.126,0.416-0.244,0.756-0.356,1.02c-0.172,0.329-0.333,0.537-0.484,0.623
		c-0.205,0.118-0.57,0.178-1.099,0.178c-0.745,0-1.153-0.076-1.227-0.228c-0.053-0.171-0.164-0.34-0.336-0.504
		c0-0.066,0.033-0.1,0.099-0.1c0.613,0.066,1.161,0.1,1.643,0.1c0.355,0,0.587-0.066,0.692-0.198
		c0.072-0.112,0.154-0.264,0.247-0.455h-5.055c-0.099,0.225-0.194,0.432-0.287,0.623c-0.02,0.046-0.036,0.069-0.049,0.069
		c-0.054,0-0.112-0.007-0.179-0.02c-0.132-0.02-0.276-0.046-0.436-0.079c-0.053,0-0.079-0.014-0.079-0.04
		c0.152-0.257,0.248-0.441,0.287-0.554c0.099-0.211,0.191-0.448,0.277-0.712c0.086-0.277,0.145-0.567,0.178-0.871
		c0-0.053,0.03-0.079,0.089-0.079c0.198,0.086,0.337,0.146,0.416,0.179h4.392v-0.436h-5.025c-0.065,0-0.099-0.046-0.099-0.139
		v-0.257C253.657,317.006,253.69,316.973,253.756,316.973z M255.022,315.094c0.02,0,0.033,0.02,0.04,0.06
		c0.118,0.283,0.237,0.587,0.355,0.91c0,0.065-0.023,0.102-0.069,0.108c-0.151,0.099-0.273,0.148-0.365,0.148
		c-0.112-0.389-0.205-0.719-0.277-0.989C254.706,315.285,254.812,315.206,255.022,315.094z M255.458,312.7h2.137
		c0.053,0,0.079,0.032,0.079,0.099v0.257c0,0.079-0.026,0.119-0.079,0.119h-2.137c-0.053,0-0.079-0.04-0.079-0.119v-0.257
		C255.379,312.732,255.405,312.7,255.458,312.7z M255.636,311.908h1.82c0.065,0,0.099,0.02,0.099,0.06v0.257
		c0,0.079-0.033,0.119-0.099,0.119h-1.82c-0.039,0-0.06-0.04-0.06-0.119v-0.257C255.576,311.928,255.597,311.908,255.636,311.908z
		 M255.676,313.57h1.74c0.066,0,0.1,0.026,0.1,0.079v0.237c0,0.079-0.033,0.119-0.1,0.119h-1.74c-0.054,0-0.079-0.04-0.079-0.119
		v-0.237C255.597,313.597,255.622,313.57,255.676,313.57z M255.676,314.322h1.74c0.066,0,0.1,0.026,0.1,0.079v0.218
		c0,0.092-0.033,0.138-0.1,0.138h-1.74c-0.054,0-0.079-0.046-0.079-0.138v-0.218C255.597,314.349,255.622,314.322,255.676,314.322z
		 M255.715,315.094h1.701c0.093,0,0.139,0.033,0.139,0.099v1.306c0,0.053-0.046,0.079-0.139,0.079h-1.701
		c-0.079,0-0.118-0.026-0.118-0.079v-1.306C255.597,315.127,255.636,315.094,255.715,315.094z M256.981,316.143v-0.613h-0.831v0.613
		H256.981z M258.86,311.69l0.544,0.287c0.021,0.04,0.03,0.063,0.03,0.069c0,0.046-0.033,0.069-0.1,0.069
		c-0.105,0-0.178,0.036-0.217,0.108c-0.179,0.284-0.354,0.534-0.524,0.752c0.125,0.139,0.24,0.271,0.346,0.396
		c0.007-0.013,0.01-0.022,0.01-0.029c0.251-0.316,0.452-0.604,0.604-0.86c0.356,0.29,0.534,0.448,0.534,0.475
		s-0.033,0.039-0.099,0.039c-0.093,0-0.151,0.021-0.178,0.06c-0.337,0.455-0.67,0.877-0.999,1.267
		c0.211-0.014,0.448-0.04,0.712-0.079c-0.046-0.112-0.096-0.218-0.148-0.316c0-0.033,0.119-0.119,0.356-0.258
		c0.105,0.231,0.201,0.438,0.286,0.623c0.073,0.158,0.136,0.34,0.188,0.545c0,0.013-0.146,0.046-0.436,0.099
		c-0.02-0.093-0.056-0.221-0.108-0.386l-0.445,0.099v1.811c0,0.053-0.046,0.079-0.139,0.079h-0.297
		c-0.092,0-0.139-0.026-0.139-0.079v-1.662l-0.613,0.139c-0.151,0.145-0.237,0.218-0.257,0.218c-0.014,0-0.046-0.225-0.099-0.673
		c0-0.02,0.154-0.05,0.465-0.089c0.244-0.284,0.438-0.531,0.583-0.742c-0.178-0.191-0.322-0.33-0.435-0.415
		c-0.158-0.126-0.343-0.244-0.554-0.356c0-0.04,0.102-0.158,0.307-0.356c0.02-0.026,0.042-0.039,0.068-0.039
		c0.06,0.053,0.119,0.115,0.179,0.188c0.099-0.139,0.178-0.264,0.237-0.376C258.683,312.03,258.795,311.829,258.86,311.69z
		 M258.069,315.192l0.376,0.158c0.053,0.026,0.079,0.06,0.079,0.1c0,0.032-0.004,0.056-0.01,0.068c-0.026,0-0.043,0.03-0.05,0.09
		c-0.065,0.369-0.139,0.656-0.218,0.86c-0.02,0.046-0.033,0.069-0.039,0.069c-0.033,0-0.066-0.017-0.1-0.05
		c-0.092-0.046-0.185-0.092-0.276-0.139c-0.04-0.013-0.06-0.022-0.06-0.029c0-0.014,0.003-0.029,0.01-0.05
		c0.066-0.171,0.119-0.329,0.158-0.475c0.046-0.185,0.079-0.359,0.1-0.524C258.046,315.219,258.056,315.192,258.069,315.192z
		 M259.771,315.094c0.014,0,0.02,0.02,0.02,0.06c0.172,0.303,0.317,0.633,0.436,0.989c0,0.053-0.01,0.082-0.029,0.089
		c-0.172,0.125-0.307,0.188-0.406,0.188c-0.111-0.441-0.23-0.805-0.355-1.088C259.435,315.285,259.547,315.206,259.771,315.094z"/>
	<path fill="#666666" d="M264.25,311.611h6.944c0.053,0,0.079,0.04,0.079,0.119v0.316c0,0.119-0.026,0.178-0.079,0.178h-3.106v0.653
		h3.799c0.092,0,0.138,0.039,0.138,0.118v1.939c0,0.079-0.046,0.118-0.138,0.118h-0.396c-0.105,0-0.158-0.039-0.158-0.118v-1.444
		h-3.244v2.255c0,0.066-0.06,0.1-0.178,0.1h-0.376c-0.119,0-0.179-0.033-0.179-0.1v-2.255h-3.323v1.444
		c0,0.079-0.046,0.118-0.139,0.118h-0.396c-0.105,0-0.158-0.039-0.158-0.118v-1.939c0-0.079,0.053-0.118,0.158-0.118h3.857v-0.653
		h-3.105c-0.053,0-0.079-0.059-0.079-0.178v-0.316C264.171,311.651,264.197,311.611,264.25,311.611z M264.507,316.182h6.43
		c0.105,0,0.158,0.033,0.158,0.099v2.829c0,0.066-0.053,0.1-0.158,0.1h-2.81v0.336c0,0.29,0.165,0.436,0.495,0.436h2.176
		c0.409,0,0.653-0.05,0.732-0.148c0.086-0.086,0.204-0.38,0.356-0.881c0.072,0.119,0.201,0.228,0.386,0.327
		c0.072,0.032,0.108,0.082,0.108,0.148c-0.191,0.593-0.336,0.916-0.436,0.969c-0.099,0.132-0.323,0.198-0.672,0.198h-2.711
		c-0.752,0-1.128-0.218-1.128-0.653v-0.731h-2.928c-0.105,0-0.158-0.033-0.158-0.1v-2.829
		C264.349,316.215,264.401,316.182,264.507,316.182z M264.646,314.064h2.058c0.053,0,0.079,0.04,0.079,0.119v0.316
		c0,0.079-0.026,0.119-0.079,0.119h-2.058c-0.066,0-0.099-0.04-0.099-0.119v-0.316C264.547,314.104,264.579,314.064,264.646,314.064
		z M264.646,315.094h2.058c0.053,0,0.079,0.046,0.079,0.139v0.297c0,0.092-0.026,0.138-0.079,0.138h-2.058
		c-0.066,0-0.099-0.046-0.099-0.138v-0.297C264.547,315.14,264.579,315.094,264.646,315.094z M265.081,317.408h2.354v-0.652h-2.354
		V317.408z M267.435,318.635v-0.692h-2.354v0.692H267.435z M268.127,316.756v0.652h2.236v-0.652H268.127z M270.363,318.635v-0.692
		h-2.236v0.692H270.363z M268.74,314.064h2.058c0.053,0,0.079,0.04,0.079,0.119v0.316c0,0.079-0.026,0.119-0.079,0.119h-2.058
		c-0.053,0-0.079-0.04-0.079-0.119v-0.316C268.661,314.104,268.688,314.064,268.74,314.064z M268.74,315.094h2.058
		c0.053,0,0.079,0.046,0.079,0.139v0.297c0,0.092-0.026,0.138-0.079,0.138h-2.058c-0.053,0-0.079-0.046-0.079-0.138v-0.297
		C268.661,315.14,268.688,315.094,268.74,315.094z"/>
	<path fill="#666666" d="M276.05,313.451h3.076c0.021-0.422,0.03-0.903,0.03-1.444v-0.396c0-0.053,0.013-0.079,0.039-0.079
		c0.726,0.066,1.088,0.119,1.088,0.158c0,0.06-0.039,0.109-0.118,0.148c-0.132,0.053-0.204,0.168-0.218,0.347
		c-0.007,0.455-0.023,0.877-0.05,1.266h3.789c0.092,0,0.139,0.054,0.139,0.158c0,1.609-0.033,2.826-0.099,3.65
		c-0.08,0.864-0.208,1.573-0.387,2.127c-0.138,0.481-0.316,0.812-0.534,0.989c-0.217,0.185-0.616,0.277-1.196,0.277
		c-0.297,0-0.577-0.023-0.841-0.069c-0.105-0.014-0.158-0.047-0.158-0.1c-0.047-0.19-0.122-0.386-0.228-0.583v-0.119
		c0.487,0.079,0.877,0.119,1.167,0.119c0.316,0,0.547-0.066,0.692-0.198c0.125-0.099,0.237-0.293,0.337-0.583
		c0.132-0.39,0.233-0.924,0.307-1.603c0.085-0.601,0.135-1.738,0.147-3.413h-3.185c-0.014,0.211-0.033,0.399-0.06,0.563
		c-0.046,0.528-0.146,1.056-0.297,1.583c-0.125,0.527-0.277,0.977-0.455,1.346c-0.211,0.508-0.479,0.963-0.801,1.365
		c-0.244,0.283-0.521,0.54-0.831,0.771c-0.356,0.343-0.809,0.629-1.355,0.86c-0.053,0-0.103-0.033-0.148-0.099
		c-0.112-0.106-0.237-0.225-0.376-0.356c-0.06-0.053-0.089-0.086-0.089-0.099c0-0.04,0.023-0.06,0.069-0.06
		c0.547-0.251,0.92-0.455,1.118-0.613c0.31-0.211,0.613-0.485,0.909-0.821c0.317-0.343,0.577-0.738,0.782-1.187
		c0.211-0.449,0.376-0.917,0.494-1.405c0.132-0.415,0.208-0.874,0.228-1.375c0.02-0.132,0.036-0.29,0.05-0.475h-3.037
		c-0.079,0-0.118-0.046-0.118-0.139v-0.396C275.932,313.491,275.971,313.451,276.05,313.451z"/>
	<path fill="#666666" d="M290.184,312.087l0.702,0.276c0.086,0.046,0.129,0.086,0.129,0.119c0,0.092-0.047,0.151-0.139,0.178
		c-0.112,0-0.185,0.046-0.218,0.139c-0.283,0.726-0.534,1.266-0.752,1.622c-0.25,0.39-0.514,0.769-0.791,1.138
		c-0.277,0.316-0.567,0.604-0.87,0.86c-0.093,0-0.175-0.02-0.248-0.06c-0.125-0.059-0.264-0.115-0.415-0.168
		c-0.046-0.013-0.069-0.029-0.069-0.049c0-0.047,0.02-0.079,0.06-0.1c0.501-0.389,0.949-0.856,1.345-1.404
		c0.225-0.316,0.422-0.646,0.594-0.989c0.198-0.383,0.376-0.867,0.534-1.454C290.085,312.123,290.131,312.087,290.184,312.087z
		 M291.707,314.48c0.053,0,0.108,0.007,0.168,0.02c0.521,0.271,0.781,0.429,0.781,0.475c0,0.053-0.039,0.079-0.118,0.079
		c-0.146,0.014-0.247,0.079-0.307,0.198c-0.495,0.937-1.211,2.269-2.146,3.996c1.227-0.099,2.71-0.264,4.451-0.494
		c-0.316-0.541-0.62-1.016-0.91-1.425c0-0.092,0.172-0.211,0.515-0.356c0.026,0,0.046,0.014,0.06,0.04
		c0.725,0.937,1.378,1.945,1.958,3.027c0,0.118-0.023,0.181-0.069,0.188c-0.257,0.165-0.465,0.247-0.623,0.247
		c-0.211-0.408-0.412-0.798-0.604-1.167c-3.033,0.475-5.002,0.762-5.905,0.86c-0.112,0.021-0.185,0.076-0.218,0.169
		c-0.026,0.092-0.072,0.138-0.139,0.138c-0.112,0-0.23-0.362-0.355-1.088c0.322-0.014,0.692-0.039,1.107-0.079
		c0.771-1.457,1.263-2.403,1.474-2.839c0.29-0.646,0.534-1.272,0.732-1.88C291.592,314.517,291.641,314.48,291.707,314.48z
		 M292.004,311.829h2.097c0.04,0,0.076,0.043,0.109,0.129c0.243,1.114,0.497,1.896,0.762,2.345c0.303,0.686,0.798,1.174,1.483,1.464
		c0.093,0.02,0.139,0.072,0.139,0.158c0,0.046-0.023,0.089-0.069,0.128c-0.146,0.112-0.261,0.218-0.347,0.317
		c-0.046,0.085-0.111,0.128-0.197,0.128c-0.726-0.475-1.253-1.035-1.583-1.682c-0.244-0.481-0.505-1.272-0.781-2.374h-1.612
		c-0.079,0-0.119-0.046-0.119-0.139v-0.336C291.885,311.875,291.925,311.829,292.004,311.829z"/>
	<path fill="#666666" d="M300.144,311.908h7.814c0.119,0,0.179,0.047,0.179,0.139v7.617c0,0.316-0.188,0.563-0.564,0.741
		c-0.369,0.146-0.847,0.241-1.434,0.287c-0.086,0-0.136-0.046-0.148-0.139c-0.007-0.132-0.076-0.336-0.208-0.613
		c0-0.039,0.036-0.059,0.108-0.059c0.745,0,1.178-0.047,1.296-0.139c0.172-0.073,0.258-0.191,0.258-0.356v-6.865h-7.301
		c-0.079,0-0.118-0.046-0.118-0.139v-0.336C300.025,311.955,300.064,311.908,300.144,311.908z M300.539,313.827h5.243
		c0.065,0,0.099,0.06,0.099,0.179v0.316c0,0.105-0.033,0.158-0.099,0.158h-5.243c-0.079,0-0.118-0.053-0.118-0.158v-0.316
		C300.421,313.887,300.46,313.827,300.539,313.827z M301.192,315.628h4.115c0.105,0,0.158,0.039,0.158,0.118v3.245
		c0,0.079-0.053,0.118-0.158,0.118h-0.396c-0.119,0-0.179-0.039-0.179-0.118v-0.396h-3.007v1.088c0,0.092-0.046,0.139-0.139,0.139
		h-0.396c-0.119,0-0.178-0.047-0.178-0.139v-3.917C301.015,315.674,301.073,315.628,301.192,315.628z M301.727,317.942h3.007v-1.701
		h-3.007V317.942z"/>
	<path fill="#666666" d="M312.517,311.532l0.723,0.069c0.099,0.02,0.147,0.05,0.147,0.089c0,0.093-0.032,0.152-0.099,0.179
		c-0.132,0.033-0.197,0.105-0.197,0.218c0,0.87-0.007,1.642-0.021,2.314h1.207v-2.671c0-0.079,0.053-0.119,0.158-0.119
		c0.501,0,0.752,0.04,0.752,0.119c0,0.099-0.033,0.155-0.099,0.168c-0.053,0.007-0.079,0.069-0.079,0.188v2.789
		c0,0.093-0.06,0.139-0.179,0.139h-1.771c-0.013,0.494-0.029,0.917-0.049,1.266h1.819c0.119,0,0.179,0.047,0.179,0.139v4.175
		c0,0.092-0.06,0.139-0.179,0.139h-0.396c-0.105,0-0.158-0.047-0.158-0.139v-3.7h-1.306c-0.053,0.857-0.151,1.603-0.297,2.236
		c-0.099,0.54-0.23,1.028-0.396,1.464h-0.06c-0.218-0.066-0.419-0.132-0.604-0.198c-0.033-0.013-0.049-0.046-0.049-0.099
		c0.185-0.462,0.339-0.96,0.465-1.494c0.118-0.534,0.207-1.21,0.267-2.027c0.093-0.864,0.139-2.321,0.139-4.372
		c0-0.139-0.014-0.402-0.039-0.792C312.398,311.559,312.438,311.532,312.517,311.532z M316.968,312.66v1.603h3.284
		c0.06,0,0.126,0.026,0.198,0.079c0.105,0.093,0.158,0.158,0.158,0.198c-0.066,0.646-0.142,1.184-0.228,1.612
		c-0.105,0.455-0.234,0.896-0.386,1.325c-0.099,0.277-0.231,0.594-0.396,0.95c-0.093,0.178-0.185,0.333-0.277,0.465
		c0.105,0.125,0.218,0.237,0.337,0.336c0.401,0.383,0.89,0.738,1.464,1.068c0,0.04-0.03,0.072-0.089,0.099
		c-0.112,0.086-0.248,0.188-0.406,0.307c-0.039,0.046-0.092,0.069-0.158,0.069c-0.362-0.23-0.719-0.494-1.068-0.791
		c-0.178-0.172-0.343-0.33-0.494-0.475c-0.146,0.204-0.337,0.401-0.574,0.593c-0.211,0.198-0.515,0.422-0.91,0.673
		c-0.072,0-0.128-0.029-0.168-0.089c-0.112-0.105-0.241-0.201-0.386-0.287c-0.039-0.026-0.06-0.046-0.06-0.059
		c0-0.033,0.017-0.06,0.05-0.08c0.436-0.204,0.788-0.429,1.059-0.672c0.211-0.179,0.402-0.369,0.573-0.574
		c-0.026-0.039-0.049-0.082-0.069-0.129c-0.257-0.369-0.484-0.834-0.683-1.395c-0.164-0.508-0.271-1.174-0.316-1.998
		c0-0.105,0.053-0.158,0.158-0.158h0.316c0.119,0,0.179,0.053,0.179,0.158c0.033,0.659,0.118,1.177,0.257,1.553
		c0.112,0.39,0.277,0.788,0.495,1.197c0.032,0.053,0.063,0.099,0.089,0.139c0.151-0.218,0.267-0.419,0.346-0.604
		c0.158-0.402,0.301-0.812,0.426-1.227c0.092-0.422,0.191-0.966,0.297-1.632h-3.018c0,1.227-0.053,2.209-0.158,2.947
		c-0.06,0.594-0.197,1.193-0.415,1.801c-0.093,0.376-0.244,0.731-0.455,1.068c-0.033,0-0.063-0.007-0.089-0.021
		c-0.119-0.105-0.241-0.194-0.366-0.267c-0.026-0.033-0.04-0.069-0.04-0.108c0.165-0.317,0.323-0.742,0.476-1.276
		c0.125-0.567,0.224-1.161,0.296-1.781c0.066-0.659,0.1-1.447,0.1-2.363v-2.73c0-0.119,0.032-0.179,0.099-0.179h4.273
		c0.092,0,0.139,0.06,0.139,0.179v0.297c0,0.118-0.047,0.178-0.139,0.178H316.968z"/>
	<path fill="#666666" d="M324.06,313.887h1.365v-2.235c0-0.079,0.046-0.119,0.139-0.119c0.514,0,0.771,0.04,0.771,0.119
		c0,0.099-0.033,0.155-0.099,0.168c-0.08,0.007-0.119,0.069-0.119,0.188v1.88h0.93c0.079,0,0.119,0.053,0.119,0.158v0.316
		c0,0.093-0.04,0.139-0.119,0.139h-0.791c0.105,0.29,0.204,0.527,0.297,0.712c0.145,0.271,0.376,0.581,0.692,0.931
		c0.039,0.02,0.059,0.039,0.059,0.059c0,0.021-0.02,0.05-0.059,0.09c-0.066,0.105-0.168,0.207-0.307,0.307
		c-0.04,0.053-0.076,0.079-0.109,0.079c-0.013,0-0.043-0.017-0.089-0.05c-0.23-0.264-0.432-0.561-0.604-0.891
		c-0.007-0.013-0.013-0.026-0.02-0.039v4.896c0,0.092-0.046,0.139-0.139,0.139h-0.415c-0.093,0-0.139-0.047-0.139-0.139v-4.451
		c-0.146,0.283-0.287,0.551-0.426,0.801c-0.191,0.336-0.425,0.656-0.702,0.96c-0.06,0-0.108-0.014-0.148-0.04
		c-0.151-0.065-0.293-0.142-0.425-0.228c-0.066,0-0.1-0.017-0.1-0.049c0.363-0.376,0.646-0.742,0.851-1.099
		c0.212-0.356,0.383-0.699,0.515-1.028c0.093-0.198,0.191-0.518,0.297-0.96h-1.227c-0.079,0-0.119-0.046-0.119-0.139v-0.316
		C323.94,313.939,323.98,313.887,324.06,313.887z M327.641,313.669h1.979c0.105,0,0.158,0.04,0.158,0.119v1.444
		c0,0.065-0.053,0.099-0.158,0.099h-1.138l0.425,0.326c0.04,0.047,0.06,0.083,0.06,0.109c0,0.039-0.02,0.063-0.06,0.069
		c-0.079,0.013-0.138,0.046-0.178,0.099c-0.072,0.118-0.135,0.221-0.188,0.307h1.513c0.053-0.04,0.093-0.079,0.119-0.119
		c0.099-0.151,0.198-0.326,0.297-0.524c0.013-0.046,0.033-0.068,0.06-0.068c0.527,0.211,0.791,0.329,0.791,0.355
		c0,0.033-0.046,0.066-0.139,0.1c-0.079,0.006-0.132,0.036-0.158,0.089c-0.046,0.059-0.092,0.115-0.139,0.168h1.84
		c0.053,0,0.079,0.039,0.079,0.118v0.317c0,0.118-0.026,0.178-0.079,0.178h-1.938v0.613h1.761c0.053,0,0.079,0.039,0.079,0.119
		v0.316c0,0.105-0.026,0.158-0.079,0.158h-1.761v0.613h1.801c0.053,0,0.079,0.033,0.079,0.099v0.336
		c0,0.093-0.026,0.139-0.079,0.139h-1.801v0.653h2.137c0.065,0,0.099,0.033,0.099,0.099v0.337c0,0.092-0.033,0.138-0.099,0.138
		h-4.451v0.258c0,0.065-0.053,0.099-0.158,0.099h-0.396c-0.093,0-0.139-0.033-0.139-0.099v-3.473
		c-0.198,0.211-0.429,0.426-0.692,0.644c-0.093,0-0.148-0.021-0.169-0.06c-0.118-0.105-0.23-0.204-0.336-0.297
		c-0.046-0.02-0.069-0.046-0.069-0.079c0-0.013,0.014-0.029,0.04-0.05c0.197-0.092,0.362-0.207,0.494-0.346
		c0.277-0.244,0.511-0.515,0.702-0.812c0.185-0.244,0.38-0.551,0.584-0.92c0-0.007,0.003-0.01,0.01-0.01h-0.702
		c-0.105,0-0.158-0.033-0.158-0.099v-1.444C327.482,313.709,327.535,313.669,327.641,313.669z M327.166,312.265h1.365v-0.613
		c0-0.053,0.039-0.079,0.118-0.079c0.475,0,0.712,0.039,0.712,0.118c0,0.093-0.02,0.143-0.059,0.148
		c-0.053,0.007-0.079,0.063-0.079,0.168v0.258h1.701v-0.613c0-0.053,0.039-0.079,0.118-0.079c0.476,0,0.713,0.039,0.713,0.118
		c0,0.093-0.033,0.143-0.1,0.148c-0.053,0.007-0.079,0.063-0.079,0.168v0.258h1.444c0.053,0,0.079,0.039,0.079,0.118v0.317
		c0,0.092-0.026,0.138-0.079,0.138h-1.444v0.476c0,0.092-0.046,0.138-0.138,0.138h-0.396c-0.079,0-0.118-0.046-0.118-0.138v-0.476
		h-1.701v0.476c0,0.092-0.06,0.138-0.179,0.138h-0.396c-0.079,0-0.118-0.046-0.118-0.138v-0.476h-1.365
		c-0.053,0-0.079-0.046-0.079-0.138v-0.317C327.087,312.304,327.113,312.265,327.166,312.265z M329.085,314.797v-0.574h-0.95v0.574
		H329.085z M330.134,317.468v-0.613h-1.662v0.613H330.134z M330.134,318.675v-0.613h-1.662v0.613H330.134z M328.472,319.901h1.662
		v-0.653h-1.662V319.901z M330.489,313.669h1.998c0.119,0,0.179,0.04,0.179,0.119v1.444c0,0.065-0.06,0.099-0.179,0.099h-1.998
		c-0.118,0-0.178-0.033-0.178-0.099v-1.444C330.312,313.709,330.371,313.669,330.489,313.669z M331.974,314.797v-0.574h-0.97v0.574
		H331.974z"/>
	<path fill="#666666" d="M340.191,312.344c-0.046,0-0.089,0.007-0.129,0.02c-0.35,0.211-0.731,0.363-1.147,0.455
		c-0.487,0.112-0.979,0.172-1.474,0.178v0.831h2.711c0.092,0,0.138,0.047,0.138,0.139v3.541c0,0.08-0.046,0.119-0.138,0.119h-0.396
		c-0.118,0-0.178-0.039-0.178-0.119v-0.396h-2.146c-0.014,0.627-0.057,1.145-0.129,1.554c-0.046,0.402-0.161,0.814-0.346,1.236
		c-0.079,0.244-0.208,0.475-0.386,0.692c-0.047,0-0.079-0.007-0.1-0.02c-0.099-0.105-0.221-0.191-0.365-0.258
		c-0.033-0.039-0.05-0.092-0.05-0.158c0.145-0.191,0.273-0.468,0.386-0.831c0.099-0.362,0.175-0.741,0.228-1.138
		c0.053-0.428,0.079-0.946,0.079-1.553v-4.115c0-0.092,0.046-0.139,0.139-0.139h0.079c0.679-0.013,1.207-0.063,1.583-0.148
		c0.461-0.104,0.877-0.279,1.246-0.523c0.033-0.04,0.065-0.06,0.099-0.06c0.04,0,0.079,0.02,0.119,0.06
		c0.355,0.276,0.534,0.461,0.534,0.554c0,0.118-0.047,0.178-0.139,0.178L340.191,312.344z M337.441,314.48v2.018h2.137v-2.018
		H337.441z M344.86,312.304c-0.053,0-0.099,0.004-0.139,0.011c-0.389,0.138-0.811,0.25-1.266,0.336
		c-0.515,0.079-1.035,0.122-1.563,0.129v1.938h3.363c0.066,0,0.1,0.053,0.1,0.158v0.316c0,0.093-0.033,0.139-0.1,0.139h-1.167v5.263
		c0,0.092-0.046,0.139-0.139,0.139h-0.396c-0.118,0-0.178-0.047-0.178-0.139v-5.263h-1.484c-0.013,1.062-0.099,1.906-0.257,2.532
		c-0.099,0.574-0.3,1.145-0.604,1.712c-0.172,0.343-0.405,0.669-0.702,0.979c-0.046,0-0.076-0.006-0.089-0.02
		c-0.105-0.093-0.231-0.178-0.376-0.257c-0.033-0.04-0.05-0.093-0.05-0.158c0.283-0.291,0.534-0.68,0.752-1.168
		c0.218-0.521,0.372-1.068,0.465-1.642c0.086-0.606,0.129-1.346,0.129-2.216v-2.75c0-0.105,0.06-0.158,0.178-0.158h0.079
		c0.719-0.02,1.293-0.063,1.722-0.129c0.501-0.065,0.946-0.188,1.335-0.366c0.053-0.026,0.096-0.039,0.129-0.039
		s0.075,0.02,0.129,0.06c0.322,0.276,0.484,0.461,0.484,0.554s-0.046,0.139-0.139,0.139L344.86,312.304z"/>
	<path fill="#666666" d="M348.431,312.799h3.047c0.132-0.33,0.264-0.699,0.396-1.108c0.046-0.079,0.092-0.118,0.139-0.118
		l0.801,0.307c0.072,0.053,0.109,0.096,0.109,0.128c0,0.08-0.033,0.139-0.1,0.179c-0.185,0-0.297,0.063-0.336,0.188
		c-0.06,0.158-0.119,0.301-0.178,0.426h4.847c0.092,0,0.139,0.053,0.139,0.158v0.316c0,0.119-0.047,0.178-0.139,0.178h-5.164
		c-0.204,0.402-0.386,0.732-0.544,0.989c-0.033,0.047-0.072,0.093-0.118,0.139h4.738c0.118,0,0.178,0.06,0.178,0.178v5.322
		c0,0.225-0.161,0.396-0.484,0.515c-0.316,0.112-0.735,0.185-1.257,0.218c-0.059,0-0.096-0.04-0.108-0.119
		c-0.014-0.151-0.096-0.369-0.247-0.652c0-0.026,0.036-0.04,0.108-0.04c0.62,0,0.986-0.02,1.098-0.06
		c0.119-0.046,0.179-0.132,0.179-0.257v-0.692h-4.273v1.662c0,0.079-0.046,0.118-0.139,0.118h-0.415
		c-0.093,0-0.139-0.039-0.139-0.118v-4.986c-0.073,0.073-0.143,0.148-0.208,0.228c-0.376,0.416-0.788,0.788-1.236,1.118
		c-0.086,0-0.162-0.013-0.228-0.04c-0.152-0.065-0.297-0.128-0.436-0.188c-0.06-0.02-0.089-0.043-0.089-0.069
		c0-0.053,0.033-0.092,0.099-0.118c0.673-0.481,1.279-1.065,1.82-1.751c0.316-0.416,0.594-0.845,0.831-1.286
		c0.013-0.04,0.029-0.076,0.05-0.109h-2.74c-0.093,0-0.139-0.059-0.139-0.178v-0.316
		C348.292,312.852,348.338,312.799,348.431,312.799z M351.26,316.459h4.273v-1.188h-4.273V316.459z M351.26,318.338h4.273v-1.266
		h-4.273V318.338z"/>
</g>
</svg>
