<?xml version="1.0" encoding="utf-8"?>
<!-- Generator: Adobe Illustrator 14.0.0, SVG Export Plug-In . SVG Version: 6.00 Build 43363)  -->
<!DOCTYPE svg PUBLIC "-//W3C//DTD SVG 1.1//EN" "http://www.w3.org/Graphics/SVG/1.1/DTD/svg11.dtd">
<svg version="1.1" xmlns="http://www.w3.org/2000/svg" xmlns:xlink="http://www.w3.org/1999/xlink" x="0px" y="0px" width="60px"
	 height="30px" viewBox="0 0 60 30" enable-background="new 0 0 60 30" xml:space="preserve">
<g id="圖層_2">
</g>
<g id="圖層_1">
	<path fill="#195F83" d="M60,28c0,1.104-0.895,2-2,2H2c-1.104,0-2-0.896-2-2V2c0-1.104,0.896-2,2-2h56c1.105,0,2,0.896,2,2V28z"/>
	<path fill="#FFFFFF" d="M48.15,21.039c0,0.892-0.723,1.614-1.615,1.614H24.671c-0.892,0-1.614-0.723-1.614-1.614V8.915
		c0-0.892,0.723-1.614,1.614-1.614h21.864c0.893,0,1.615,0.723,1.615,1.614V21.039z"/>
	<g>
		<path fill="#FFFFFF" d="M9.202,13.803c-0.89,0.646-0.89,1.704,0,2.35l14.613,10.604c0.89,0.646,1.619,0.274,1.619-0.825V4.024
			c0-1.1-0.729-1.471-1.619-0.825L9.202,13.803z"/>
	</g>
</g>
</svg>
