<?xml version="1.0" encoding="utf-8"?>
<!-- Generator: Adobe Illustrator 14.0.0, SVG Export Plug-In . SVG Version: 6.00 Build 43363)  -->
<!DOCTYPE svg PUBLIC "-//W3C//DTD SVG 1.1//EN" "http://www.w3.org/Graphics/SVG/1.1/DTD/svg11.dtd">
<svg version="1.1" xmlns="http://www.w3.org/2000/svg" xmlns:xlink="http://www.w3.org/1999/xlink" x="0px" y="0px" width="60px"
	 height="30px" viewBox="0 0 60 30" enable-background="new 0 0 60 30" xml:space="preserve">
<g id="圖層_2">
</g>
<g id="圖層_1">
	<path fill="#388ABF" d="M61.667,62.166c0,1.105-0.895,2-2,2h-56c-1.104,0-2-0.895-2-2v-26c0-1.104,0.896-2,2-2h56
		c1.105,0,2,0.896,2,2V62.166z"/>
	<path fill="#5FB2E1" d="M47.655,21.354c0,0.938-0.762,1.699-1.699,1.699h-23c-0.938,0-1.698-0.761-1.698-1.699V8.6
		c0-0.938,0.76-1.698,1.698-1.698h23c0.938,0,1.699,0.76,1.699,1.698V21.354z"/>
	<g>
		<path fill="#5FB2E1" d="M10.114,13.803c-0.89,0.646-0.89,1.704,0,2.35L25.655,27.43c0.89,0.646,1.619,0.274,1.619-0.825V3.351
			c0-1.1-0.729-1.471-1.619-0.825L10.114,13.803z"/>
	</g>
</g>
</svg>
